<?xml version="1.0" standalone="no"?><svg xmlns:xlink="http://www.w3.org/1999/xlink" xmlns="http://www.w3.org/2000/svg" viewBox="0 0 1000 1200" preserveAspectRatio="xMaxYMax slice"><g transform="scale(1.6194331983805668)"><rect x="0" y="0" width="617.5" height="741" fill="#ffffff"/><rect x="370.5" y="123.5" width="123.5" height="123.5" fill="#ffffff"/><rect x="370.5" y="370.5" width="123.5" height="123.5" fill="#ffffff"/><polygon points="494,370.5 494,432.25 432.25,432.25" fill="#e2edef"/><rect x="494" y="370.5" width="123.5" height="123.5" fill="#ffffff"/><rect x="555.75" y="370.5" width="61.75" height="61.75" fill="#fceee0"/><rect x="494" y="432.25" width="61.75" height="61.75" fill="#f4b679"/><g transform="translate(555.75,432.25) scale(3.0875) rotate(0)"><rect width="20" height="10" fill="#f5ba81"/></g><rect x="0" y="494" width="123.5" height="123.5" fill="#ffffff"/><g transform="translate(0,494) scale(3.0875) rotate(0)"><rect width="20" height="10" fill="#f1a357"/></g><polygon points="61.75,494 123.5,494 61.75,555.75" fill="#5998a4"/><g transform="translate(0,555.75) scale(3.0875) rotate(0)"><rect width="20" height="10" fill="#fadbbd"/></g><g transform="translate(61.75,555.75) scale(3.0875) rotate(0)"><rect width="20" height="10" fill="#3a8593"/></g><rect x="123.5" y="494" width="123.5" height="123.5" fill="#ffffff"/><rect x="123.5" y="555.75" width="61.75" height="61.75" fill="#dbe9eb"/><g transform="translate(185.25,555.75) scale(3.0875) rotate(0)"><rect width="20" height="10" fill="#f2a963"/></g><rect x="247" y="494" width="123.5" height="123.5" fill="#ffffff"/><polygon points="308.75,494 370.5,555.75 308.75,555.75" fill="#89b6be"/><polygon points="247,555.75 308.75,555.75 308.75,617.5" fill="#7badb6"/><polygon points="308.75,555.75 370.5,555.75 308.75,617.5" fill="#9ac0c7"/><rect x="370.5" y="494" width="123.5" height="123.5" fill="#ffffff"/><g transform="translate(370.5,494) scale(3.0875) rotate(0)"><rect width="20" height="10" fill="#5897a3"/></g><polygon points="432.25,494 494,494 494,555.75" fill="#bed7db"/><g transform="translate(432.25,555.75) scale(3.0875) rotate(0)"><rect width="20" height="10" fill="#dae8ea"/></g><rect x="0" y="617.5" width="123.5" height="123.5" fill="#ffffff"/><polygon points="61.75,617.5 61.75,679.25 0,679.25" fill="#f8d0a9"/><polygon points="61.75,617.5 123.5,679.25 61.75,679.25" fill="#9bc1c8"/><polygon points="0,679.25 61.75,679.25 0,741" fill="#fcead9"/><rect x="61.75" y="679.25" width="61.75" height="61.75" fill="#7daeb7"/><rect x="123.5" y="617.5" width="123.5" height="123.5" fill="#ffffff"/><g transform="translate(123.5,617.5) scale(3.0875) rotate(0)"><rect width="20" height="10" fill="#f5be89"/></g><polygon points="185.25,617.5 247,679.25 185.25,679.25" fill="#4e919d"/><g transform="translate(123.5,679.25) scale(3.0875) rotate(0)"><rect width="20" height="10" fill="#fdefe1"/></g><g transform="translate(185.25,679.25) scale(3.0875) rotate(0)"><rect width="20" height="10" fill="#f3ac68"/></g><rect x="247" y="617.5" width="123.5" height="123.5" fill="#ffffff"/><g transform="translate(247,617.5) scale(3.0875) rotate(0)"><rect width="20" height="10" fill="#b3d0d5"/></g><g transform="translate(308.75,617.5) scale(3.0875) rotate(0)"><rect width="20" height="10" fill="#f09b49"/></g><g transform="translate(247,679.25) scale(3.0875) rotate(0)"><rect width="20" height="10" fill="#86b4bc"/></g><polygon points="370.5,679.25 370.5,741 308.75,741" fill="#fcebdb"/><rect x="370.5" y="617.5" width="123.5" height="123.5" fill="#ffffff"/><polygon points="370.5,617.5 432.25,679.25 370.5,679.25" fill="#468c99"/><polygon points="432.25,617.5 494,679.25 432.25,679.25" fill="#f3ae6b"/><g transform="translate(370.5,679.25) scale(3.0875) rotate(0)"><rect width="20" height="10" fill="#f3f7f8"/></g><g transform="translate(432.25,679.25) scale(3.0875) rotate(0)"><rect width="20" height="10" fill="#86b4bc"/></g><rect x="494" y="617.5" width="123.5" height="123.5" fill="#ffffff"/><g transform="translate(494,617.5) scale(3.0875) rotate(0)"><rect width="20" height="10" fill="#4f929e"/></g><rect x="555.75" y="617.5" width="61.75" height="61.75" fill="#a8c9cf"/><g transform="translate(494,679.25) scale(3.0875) rotate(0)"><rect width="20" height="10" fill="#f1a052"/></g><rect x="555.75" y="679.25" width="61.75" height="61.75" fill="#f6c291"/></g></svg>