<?xml version="1.0" standalone="no"?><svg xmlns:xlink="http://www.w3.org/1999/xlink" xmlns="http://www.w3.org/2000/svg" viewBox="0 0 1000 1666.6891590979635" preserveAspectRatio="xMaxYMax slice"><g transform="scale(2.2492431296868602)"><rect x="0" y="0" width="444.59999999999997" height="741" fill="#ffffff"/><rect x="148.2" y="49.4" width="49.4" height="49.4" fill="#ffffff"/><rect x="247" y="49.4" width="49.4" height="49.4" fill="#ffffff"/><rect x="148.2" y="98.8" width="49.4" height="49.4" fill="#ffffff"/><polygon points="148.2,98.8 172.89999999999998,98.8 148.2,123.5" fill="#b2cfd5"/><rect x="395.2" y="98.8" width="49.4" height="49.4" fill="#ffffff"/><rect x="148.2" y="148.2" width="49.4" height="49.4" fill="#ffffff"/><rect x="247" y="148.2" width="49.4" height="49.4" fill="#ffffff"/><g transform="translate(247,148.2) scale(1.2349999999999999) rotate(0)"><rect width="20" height="10" fill="#f09844"/></g><rect x="0" y="197.6" width="49.4" height="49.4" fill="#ffffff"/><rect x="148.2" y="197.6" width="49.4" height="49.4" fill="#ffffff"/><rect x="172.9" y="197.6" width="24.7" height="24.7" fill="#f09742"/><polygon points="172.89999999999998,222.3 172.89999999999998,247 148.2,247" fill="#dae8eb"/><rect x="345.8" y="197.6" width="49.4" height="49.4" fill="#ffffff"/><rect x="345.8" y="197.6" width="24.7" height="24.7" fill="#ef943b"/><g transform="translate(345.8,222.3) scale(1.2349999999999999) rotate(0)"><rect width="20" height="10" fill="#f7ca9e"/></g><rect x="370.5" y="222.3" width="24.7" height="24.7" fill="#bcd5da"/><rect x="49.4" y="247" width="49.4" height="49.4" fill="#ffffff"/><polygon points="74.1,271.7 74.1,296.4 49.4,296.4" fill="#79acb5"/><rect x="197.6" y="247" width="49.4" height="49.4" fill="#ffffff"/><polygon points="197.6,271.7 222.29999999999998,271.7 222.29999999999998,296.4" fill="#f7cba0"/><rect x="0" y="296.4" width="49.4" height="49.4" fill="#ffffff"/><g transform="translate(24.7,296.4) scale(1.2349999999999999) rotate(0)"><rect width="20" height="10" fill="#f5bc85"/></g><rect x="49.4" y="296.4" width="49.4" height="49.4" fill="#ffffff"/><g transform="translate(74.1,296.4) scale(1.2349999999999999) rotate(0)"><rect width="20" height="10" fill="#8db8c1"/></g><rect x="98.8" y="296.4" width="49.4" height="49.4" fill="#ffffff"/><polygon points="148.2,296.4 148.2,321.09999999999997 123.5,321.09999999999997" fill="#f4b477"/><polygon points="98.8,321.1 123.5,321.1 123.5,345.8" fill="#88b5be"/><polygon points="123.5,321.1 148.2,345.8 123.5,345.8" fill="#fadec3"/><rect x="296.4" y="296.4" width="49.4" height="49.4" fill="#ffffff"/><rect x="296.4" y="296.4" width="24.7" height="24.7" fill="#f8cca3"/><g transform="translate(296.4,321.1) scale(1.2349999999999999) rotate(0)"><rect width="20" height="10" fill="#dfebed"/></g><g transform="translate(321.1,321.1) scale(1.2349999999999999) rotate(0)"><rect width="20" height="10" fill="#f09c4b"/></g><rect x="395.2" y="296.4" width="49.4" height="49.4" fill="#ffffff"/><g transform="translate(395.2,296.4) scale(1.2349999999999999) rotate(0)"><rect width="20" height="10" fill="#f9d8b8"/></g><g transform="translate(419.9,296.4) scale(1.2349999999999999) rotate(0)"><rect width="20" height="10" fill="#a4c7cd"/></g><rect x="0" y="345.8" width="49.4" height="49.4" fill="#ffffff"/><g transform="translate(0,345.8) scale(1.2349999999999999) rotate(0)"><rect width="20" height="10" fill="#f4b77b"/></g><polygon points="49.4,345.8 49.4,370.5 24.7,370.5" fill="#fce9d6"/><rect x="0" y="370.5" width="24.7" height="24.7" fill="#fadcc0"/><g transform="translate(24.7,370.5) scale(1.2349999999999999) rotate(0)"><rect width="20" height="10" fill="#f09a48"/></g><rect x="49.4" y="345.8" width="49.4" height="49.4" fill="#ffffff"/><g transform="translate(74.1,370.5) scale(1.2349999999999999) rotate(0)"><rect width="20" height="10" fill="#d7e6e9"/></g><rect x="98.8" y="345.8" width="49.4" height="49.4" fill="#ffffff"/><polygon points="123.5,345.8 148.2,370.5 123.5,370.5" fill="#dae8ea"/><g transform="translate(98.8,370.5) scale(1.2349999999999999) rotate(0)"><rect width="20" height="10" fill="#eef4f6"/></g><polygon points="123.5,370.5 148.2,370.5 123.5,395.2" fill="#fce9d6"/><rect x="148.2" y="345.8" width="49.4" height="49.4" fill="#ffffff"/><polygon points="172.89999999999998,345.8 172.89999999999998,370.5 148.2,370.5" fill="#6ba3ae"/><rect x="148.2" y="370.5" width="24.7" height="24.7" fill="#f7ca9f"/><polygon points="197.6,370.5 197.6,395.2 172.9,395.2" fill="#c3dade"/><rect x="197.6" y="345.8" width="49.4" height="49.4" fill="#ffffff"/><g transform="translate(222.3,345.8) scale(1.2349999999999999) rotate(0)"><rect width="20" height="10" fill="#7eafb8"/></g><polygon points="222.3,370.5 247,395.2 222.3,395.2" fill="#deebed"/><rect x="247" y="345.8" width="49.4" height="49.4" fill="#ffffff"/><g transform="translate(271.7,345.8) scale(1.2349999999999999) rotate(0)"><rect width="20" height="10" fill="#fadfc4"/></g><polygon points="271.7,370.5 271.7,395.2 247,395.2" fill="#619da8"/><g transform="translate(271.7,370.5) scale(1.2349999999999999) rotate(0)"><rect width="20" height="10" fill="#7eafb8"/></g><rect x="296.4" y="345.8" width="49.4" height="49.4" fill="#ffffff"/><g transform="translate(296.4,345.8) scale(1.2349999999999999) rotate(0)"><rect width="20" height="10" fill="#fbe7d3"/></g><polygon points="321.1,345.8 345.8,345.8 321.1,370.5" fill="#d5e5e8"/><g transform="translate(296.4,370.5) scale(1.2349999999999999) rotate(0)"><rect width="20" height="10" fill="#a6c8ce"/></g><g transform="translate(321.1,370.5) scale(1.2349999999999999) rotate(0)"><rect width="20" height="10" fill="#70a6b0"/></g><rect x="395.2" y="345.8" width="49.4" height="49.4" fill="#ffffff"/><g transform="translate(419.9,345.8) scale(1.2349999999999999) rotate(0)"><rect width="20" height="10" fill="#f5f9f9"/></g><rect x="419.9" y="370.5" width="24.7" height="24.7" fill="#f8d2ac"/><rect x="0" y="395.2" width="49.4" height="49.4" fill="#ffffff"/><polygon points="0,395.2 24.7,395.2 24.7,419.9" fill="#f5b97f"/><rect x="24.7" y="395.2" width="24.7" height="24.7" fill="#67a1ab"/><g transform="translate(0,419.9) scale(1.2349999999999999) rotate(0)"><rect width="20" height="10" fill="#f8fbfb"/></g><polygon points="24.7,419.9 49.4,419.9 49.4,444.59999999999997" fill="#f4f8f9"/><rect x="49.4" y="395.2" width="49.4" height="49.4" fill="#ffffff"/><rect x="49.4" y="395.2" width="24.7" height="24.7" fill="#f2aa64"/><g transform="translate(74.1,395.2) scale(1.2349999999999999) rotate(0)"><rect width="20" height="10" fill="#f4b67a"/></g><polygon points="49.4,419.9 74.1,419.9 49.4,444.59999999999997" fill="#d4e4e7"/><rect x="74.1" y="419.9" width="24.7" height="24.7" fill="#fdf1e5"/><rect x="98.8" y="395.2" width="49.4" height="49.4" fill="#ffffff"/><g transform="translate(98.8,395.2) scale(1.2349999999999999) rotate(0)"><rect width="20" height="10" fill="#f7c99c"/></g><polygon points="148.2,395.2 148.2,419.9 123.5,419.9" fill="#cce0e3"/><g transform="translate(98.8,419.9) scale(1.2349999999999999) rotate(0)"><rect width="20" height="10" fill="#f8d0a8"/></g><rect x="247" y="395.2" width="49.4" height="49.4" fill="#ffffff"/><g transform="translate(247,395.2) scale(1.2349999999999999) rotate(0)"><rect width="20" height="10" fill="#f2a75f"/></g><polygon points="271.7,419.9 296.4,419.9 296.4,444.59999999999997" fill="#fdf1e6"/><rect x="296.4" y="395.2" width="49.4" height="49.4" fill="#ffffff"/><polygon points="321.1,395.2 345.8,395.2 345.8,419.9" fill="#f9d7b5"/><g transform="translate(296.4,419.9) scale(1.2349999999999999) rotate(0)"><rect width="20" height="10" fill="#f8cea6"/></g><rect x="345.8" y="395.2" width="49.4" height="49.4" fill="#ffffff"/><polygon points="345.8,395.2 370.5,395.2 345.8,419.9" fill="#f6f9fa"/><polygon points="370.5,395.2 395.2,395.2 370.5,419.9" fill="#f9dabb"/><rect x="370.5" y="419.9" width="24.7" height="24.7" fill="#f5f9fa"/><rect x="0" y="444.59999999999997" width="49.4" height="49.4" fill="#ffffff"/><g transform="translate(24.7,444.6) scale(1.2349999999999999) rotate(0)"><rect width="20" height="10" fill="#f3af6c"/></g><g transform="translate(0,469.3) scale(1.2349999999999999) rotate(0)"><rect width="20" height="10" fill="#a1c4cb"/></g><g transform="translate(24.7,469.3) scale(1.2349999999999999) rotate(0)"><rect width="20" height="10" fill="#fdf2e7"/></g><rect x="49.4" y="444.59999999999997" width="49.4" height="49.4" fill="#ffffff"/><g transform="translate(74.1,444.6) scale(1.2349999999999999) rotate(0)"><rect width="20" height="10" fill="#f6c28f"/></g><g transform="translate(49.4,469.3) scale(1.2349999999999999) rotate(0)"><rect width="20" height="10" fill="#50929f"/></g><g transform="translate(74.1,469.3) scale(1.2349999999999999) rotate(0)"><rect width="20" height="10" fill="#458b99"/></g><rect x="98.8" y="444.59999999999997" width="49.4" height="49.4" fill="#ffffff"/><rect x="148.2" y="444.59999999999997" width="49.4" height="49.4" fill="#ffffff"/><polygon points="172.89999999999998,444.6 172.89999999999998,469.3 148.2,469.3" fill="#5e9ba7"/><rect x="148.2" y="469.3" width="24.7" height="24.7" fill="#a5c7ce"/><g transform="translate(172.9,469.3) scale(1.2349999999999999) rotate(0)"><rect width="20" height="10" fill="#f3ad69"/></g><rect x="197.6" y="444.59999999999997" width="49.4" height="49.4" fill="#ffffff"/><rect x="197.6" y="444.6" width="24.7" height="24.7" fill="#b2cfd5"/><polygon points="222.29999999999998,469.3 222.29999999999998,494 197.6,494" fill="#74a9b2"/><g transform="translate(222.3,469.3) scale(1.2349999999999999) rotate(0)"><rect width="20" height="10" fill="#a1c5cb"/></g><rect x="296.4" y="444.59999999999997" width="49.4" height="49.4" fill="#ffffff"/><rect x="296.4" y="444.6" width="24.7" height="24.7" fill="#f8cea6"/><polygon points="321.09999999999997,469.3 321.09999999999997,494 296.4,494" fill="#99c0c7"/><g transform="translate(321.1,469.3) scale(1.2349999999999999) rotate(0)"><rect width="20" height="10" fill="#cfe1e4"/></g><rect x="345.8" y="444.59999999999997" width="49.4" height="49.4" fill="#ffffff"/><rect x="345.8" y="444.6" width="24.7" height="24.7" fill="#5897a3"/><polygon points="370.5,444.6 395.2,444.6 395.2,469.3" fill="#fffefc"/><g transform="translate(370.5,469.3) scale(1.2349999999999999) rotate(0)"><rect width="20" height="10" fill="#b9d3d8"/></g><rect x="98.8" y="494" width="49.4" height="49.4" fill="#ffffff"/><polygon points="98.8,494 123.5,494 98.8,518.7" fill="#aecdd2"/><polygon points="123.5,494 148.2,494 148.2,518.7" fill="#c2d9de"/><polygon points="98.8,518.7 123.5,543.4000000000001 98.8,543.4000000000001" fill="#bed7db"/><rect x="123.5" y="518.7" width="24.7" height="24.7" fill="#50939f"/><rect x="148.2" y="494" width="49.4" height="49.4" fill="#ffffff"/><rect x="172.9" y="494" width="24.7" height="24.7" fill="#b8d3d8"/><rect x="148.2" y="518.7" width="24.7" height="24.7" fill="#408896"/><polygon points="172.9,518.7 197.6,518.7 197.6,543.4000000000001" fill="#fdfefe"/><rect x="247" y="494" width="49.4" height="49.4" fill="#ffffff"/><rect x="247" y="494" width="24.7" height="24.7" fill="#f2a861"/><rect x="271.7" y="494" width="24.7" height="24.7" fill="#fefbf8"/><rect x="247" y="518.7" width="24.7" height="24.7" fill="#609ca8"/><polygon points="271.7,518.7 296.4,518.7 271.7,543.4000000000001" fill="#f7c89a"/><rect x="296.4" y="494" width="49.4" height="49.4" fill="#ffffff"/><g transform="translate(296.4,494) scale(1.2349999999999999) rotate(0)"><rect width="20" height="10" fill="#5c9aa5"/></g><rect x="321.1" y="494" width="24.7" height="24.7" fill="#fbe2c9"/><g transform="translate(321.1,518.7) scale(1.2349999999999999) rotate(0)"><rect width="20" height="10" fill="#c7dce0"/></g><rect x="345.8" y="494" width="49.4" height="49.4" fill="#ffffff"/><rect x="345.8" y="494" width="24.7" height="24.7" fill="#fbe1c9"/><polygon points="370.5,494 395.2,494 370.5,518.7" fill="#f3f8f9"/><g transform="translate(370.5,518.7) scale(1.2349999999999999) rotate(0)"><rect width="20" height="10" fill="#eef4f6"/></g><rect x="395.2" y="494" width="49.4" height="49.4" fill="#ffffff"/><rect x="395.2" y="494" width="24.7" height="24.7" fill="#bcd6da"/><g transform="translate(419.9,494) scale(1.2349999999999999) rotate(0)"><rect width="20" height="10" fill="#649ea9"/></g><g transform="translate(395.2,518.7) scale(1.2349999999999999) rotate(0)"><rect width="20" height="10" fill="#f7c79a"/></g><rect x="0" y="543.4" width="49.4" height="49.4" fill="#ffffff"/><polygon points="0,543.4 24.7,543.4 0,568.1" fill="#428a97"/><rect x="24.7" y="543.4" width="24.7" height="24.7" fill="#a4c7cd"/><polygon points="24.7,568.1 24.7,592.8000000000001 0,592.8000000000001" fill="#f09843"/><g transform="translate(24.7,568.1) scale(1.2349999999999999) rotate(0)"><rect width="20" height="10" fill="#488d9a"/></g><rect x="98.8" y="543.4" width="49.4" height="49.4" fill="#ffffff"/><rect x="98.8" y="543.4" width="24.7" height="24.7" fill="#afcdd3"/><g transform="translate(123.5,543.4) scale(1.2349999999999999) rotate(0)"><rect width="20" height="10" fill="#69a2ac"/></g><rect x="98.8" y="568.1" width="24.7" height="24.7" fill="#aecdd3"/><rect x="148.2" y="543.4" width="49.4" height="49.4" fill="#ffffff"/><polygon points="148.2,543.4 172.89999999999998,568.1 148.2,568.1" fill="#d3e4e7"/><g transform="translate(148.2,568.1) scale(1.2349999999999999) rotate(0)"><rect width="20" height="10" fill="#f6c596"/></g><polygon points="172.9,568.1 197.6,568.1 197.6,592.8000000000001" fill="#478d9a"/><rect x="197.6" y="543.4" width="49.4" height="49.4" fill="#ffffff"/><g transform="translate(197.6,543.4) scale(1.2349999999999999) rotate(0)"><rect width="20" height="10" fill="#b4d1d6"/></g><rect x="222.3" y="543.4" width="24.7" height="24.7" fill="#f2a65d"/><rect x="197.6" y="568.1" width="24.7" height="24.7" fill="#c1d9dd"/><g transform="translate(222.3,568.1) scale(1.2349999999999999) rotate(0)"><rect width="20" height="10" fill="#f5b97f"/></g><rect x="247" y="543.4" width="49.4" height="49.4" fill="#ffffff"/><rect x="247" y="543.4" width="24.7" height="24.7" fill="#619da8"/><rect x="271.7" y="543.4" width="24.7" height="24.7" fill="#fdf4eb"/><g transform="translate(247,568.1) scale(1.2349999999999999) rotate(0)"><rect width="20" height="10" fill="#f0f6f7"/></g><g transform="translate(271.7,568.1) scale(1.2349999999999999) rotate(0)"><rect width="20" height="10" fill="#d1e3e6"/></g><rect x="345.8" y="543.4" width="49.4" height="49.4" fill="#ffffff"/><polygon points="345.8,543.4 370.5,568.1 345.8,568.1" fill="#ef943c"/><g transform="translate(370.5,543.4) scale(1.2349999999999999) rotate(0)"><rect width="20" height="10" fill="#c5dbdf"/></g><rect x="370.5" y="568.1" width="24.7" height="24.7" fill="#f4b87d"/><rect x="0" y="592.8" width="49.4" height="49.4" fill="#ffffff"/><g transform="translate(0,592.8) scale(1.2349999999999999) rotate(0)"><rect width="20" height="10" fill="#fadbbd"/></g><polygon points="24.7,592.8 49.4,592.8 24.7,617.5" fill="#fef7f0"/><rect x="24.7" y="617.5" width="24.7" height="24.7" fill="#e4eef0"/><rect x="49.4" y="592.8" width="49.4" height="49.4" fill="#ffffff"/><rect x="49.4" y="592.8" width="24.7" height="24.7" fill="#f09741"/><polygon points="74.1,592.8 98.8,617.5 74.1,617.5" fill="#cbdfe2"/><rect x="49.4" y="617.5" width="24.7" height="24.7" fill="#9bc1c8"/><rect x="74.1" y="617.5" width="24.7" height="24.7" fill="#e1edef"/><rect x="148.2" y="592.8" width="49.4" height="49.4" fill="#ffffff"/><polygon points="148.2,592.8 172.89999999999998,617.5 148.2,617.5" fill="#96bec5"/><g transform="translate(172.9,592.8) scale(1.2349999999999999) rotate(0)"><rect width="20" height="10" fill="#c6dce0"/></g><rect x="148.2" y="617.5" width="24.7" height="24.7" fill="#fceee0"/><polygon points="172.9,617.5 197.6,617.5 172.9,642.2" fill="#adccd2"/><rect x="197.6" y="592.8" width="49.4" height="49.4" fill="#ffffff"/><g transform="translate(197.6,592.8) scale(1.2349999999999999) rotate(0)"><rect width="20" height="10" fill="#a8c9cf"/></g><polygon points="222.3,592.8 247,592.8 222.3,617.5" fill="#fce8d6"/><polygon points="197.6,617.5 222.29999999999998,617.5 222.29999999999998,642.2" fill="#398492"/><rect x="222.3" y="617.5" width="24.7" height="24.7" fill="#f7c99d"/><rect x="247" y="592.8" width="49.4" height="49.4" fill="#ffffff"/><rect x="247" y="592.8" width="24.7" height="24.7" fill="#c3dade"/><g transform="translate(271.7,592.8) scale(1.2349999999999999) rotate(0)"><rect width="20" height="10" fill="#f6c08b"/></g><rect x="247" y="617.5" width="24.7" height="24.7" fill="#c2d9dd"/><rect x="271.7" y="617.5" width="24.7" height="24.7" fill="#82b1ba"/><rect x="296.4" y="592.8" width="49.4" height="49.4" fill="#ffffff"/><polygon points="296.4,592.8 321.09999999999997,617.5 296.4,617.5" fill="#d6e6e9"/><rect x="321.1" y="592.8" width="24.7" height="24.7" fill="#fffefe"/><g transform="translate(296.4,617.5) scale(1.2349999999999999) rotate(0)"><rect width="20" height="10" fill="#f3ad6a"/></g><rect x="321.1" y="617.5" width="24.7" height="24.7" fill="#8fb9c1"/><rect x="345.8" y="592.8" width="49.4" height="49.4" fill="#ffffff"/><polygon points="345.8,592.8 370.5,592.8 370.5,617.5" fill="#f5bc85"/><rect x="370.5" y="592.8" width="24.7" height="24.7" fill="#c0d8dc"/><rect x="345.8" y="617.5" width="24.7" height="24.7" fill="#6ea5af"/><polygon points="370.5,617.5 395.2,642.2 370.5,642.2" fill="#f9d4b1"/><rect x="395.2" y="592.8" width="49.4" height="49.4" fill="#ffffff"/><g transform="translate(395.2,592.8) scale(1.2349999999999999) rotate(0)"><rect width="20" height="10" fill="#e4eef0"/></g><polygon points="419.9,592.8 444.59999999999997,592.8 444.59999999999997,617.5" fill="#f19f4f"/><polygon points="395.2,617.5 419.9,617.5 395.2,642.2" fill="#468c99"/><rect x="0" y="642.1999999999999" width="49.4" height="49.4" fill="#ffffff"/><rect x="0" y="642.2" width="24.7" height="24.7" fill="#ddeaec"/><polygon points="24.7,642.2 49.4,642.2 49.4,666.9000000000001" fill="#fbe4cf"/><polygon points="0,666.9 24.7,666.9 24.7,691.6" fill="#fdf2e8"/><polygon points="24.7,666.9 49.4,666.9 49.4,691.6" fill="#d9e7ea"/><rect x="49.4" y="642.1999999999999" width="49.4" height="49.4" fill="#ffffff"/><polygon points="49.4,642.2 74.1,666.9000000000001 49.4,666.9000000000001" fill="#f09c4a"/><polygon points="98.8,642.2 98.8,666.9000000000001 74.1,666.9000000000001" fill="#4a8f9c"/><g transform="translate(49.4,666.9) scale(1.2349999999999999) rotate(0)"><rect width="20" height="10" fill="#498e9b"/></g><rect x="74.1" y="666.9" width="24.7" height="24.7" fill="#5c9aa6"/><rect x="98.8" y="642.1999999999999" width="49.4" height="49.4" fill="#ffffff"/><g transform="translate(98.8,642.2) scale(1.2349999999999999) rotate(0)"><rect width="20" height="10" fill="#f1a255"/></g><rect x="123.5" y="642.2" width="24.7" height="24.7" fill="#fcead9"/><g transform="translate(98.8,666.9) scale(1.2349999999999999) rotate(0)"><rect width="20" height="10" fill="#fef9f5"/></g><g transform="translate(123.5,666.9) scale(1.2349999999999999) rotate(0)"><rect width="20" height="10" fill="#fdf2e7"/></g><rect x="148.2" y="642.1999999999999" width="49.4" height="49.4" fill="#ffffff"/><rect x="148.2" y="642.2" width="24.7" height="24.7" fill="#f6bf8b"/><rect x="172.9" y="642.2" width="24.7" height="24.7" fill="#f5f9fa"/><rect x="148.2" y="666.9" width="24.7" height="24.7" fill="#fadfc5"/><rect x="172.9" y="666.9" width="24.7" height="24.7" fill="#fef8f3"/><rect x="197.6" y="642.1999999999999" width="49.4" height="49.4" fill="#ffffff"/><g transform="translate(197.6,642.2) scale(1.2349999999999999) rotate(0)"><rect width="20" height="10" fill="#f8d0a9"/></g><g transform="translate(222.3,642.2) scale(1.2349999999999999) rotate(0)"><rect width="20" height="10" fill="#f09b48"/></g><polygon points="222.29999999999998,666.9 222.29999999999998,691.6 197.6,691.6" fill="#f7c89b"/><rect x="222.3" y="666.9" width="24.7" height="24.7" fill="#fadbbd"/><rect x="247" y="642.1999999999999" width="49.4" height="49.4" fill="#ffffff"/><polygon points="271.7,642.2 271.7,666.9000000000001 247,666.9000000000001" fill="#fdf0e4"/><polygon points="271.7,642.2 296.4,642.2 296.4,666.9000000000001" fill="#9bc1c8"/><rect x="247" y="666.9" width="24.7" height="24.7" fill="#4e919e"/><polygon points="271.7,666.9 296.4,691.6 271.7,691.6" fill="#ccdfe3"/><rect x="296.4" y="642.1999999999999" width="49.4" height="49.4" fill="#ffffff"/><polygon points="296.4,642.2 321.09999999999997,642.2 296.4,666.9000000000001" fill="#f2a962"/><g transform="translate(321.1,642.2) scale(1.2349999999999999) rotate(0)"><rect width="20" height="10" fill="#639ea9"/></g><rect x="296.4" y="666.9" width="24.7" height="24.7" fill="#f4b87d"/><rect x="321.1" y="666.9" width="24.7" height="24.7" fill="#fcead8"/><rect x="345.8" y="642.1999999999999" width="49.4" height="49.4" fill="#ffffff"/><g transform="translate(345.8,642.2) scale(1.2349999999999999) rotate(0)"><rect width="20" height="10" fill="#f5bd86"/></g><g transform="translate(370.5,642.2) scale(1.2349999999999999) rotate(0)"><rect width="20" height="10" fill="#fadfc4"/></g><rect x="345.8" y="666.9" width="24.7" height="24.7" fill="#aecdd2"/><rect x="370.5" y="666.9" width="24.7" height="24.7" fill="#f4b578"/><rect x="395.2" y="642.1999999999999" width="49.4" height="49.4" fill="#ffffff"/><rect x="395.2" y="642.2" width="24.7" height="24.7" fill="#7caeb7"/><polygon points="419.9,642.2 444.59999999999997,642.2 444.59999999999997,666.9000000000001" fill="#fadabc"/><polygon points="395.2,666.9 419.9,666.9 419.9,691.6" fill="#f5be88"/><polygon points="419.9,666.9 444.59999999999997,666.9 444.59999999999997,691.6" fill="#f9d5b3"/><rect x="0" y="691.6" width="49.4" height="49.4" fill="#ffffff"/><rect x="0" y="691.6" width="24.7" height="24.7" fill="#f9d5b3"/><rect x="24.7" y="691.6" width="24.7" height="24.7" fill="#f5bb83"/><polygon points="0,716.3 24.7,716.3 0,741" fill="#e6f0f1"/><polygon points="24.7,716.3 49.4,741 24.7,741" fill="#f7ca9e"/><rect x="49.4" y="691.6" width="49.4" height="49.4" fill="#ffffff"/><polygon points="49.4,691.6 74.1,716.3000000000001 49.4,716.3000000000001" fill="#a4c7cd"/><rect x="74.1" y="691.6" width="24.7" height="24.7" fill="#458b99"/><polygon points="49.4,716.3 74.1,716.3 49.4,741" fill="#d0e2e5"/><polygon points="98.8,716.3 98.8,741 74.1,741" fill="#f3ac68"/><rect x="98.8" y="691.6" width="49.4" height="49.4" fill="#ffffff"/><g transform="translate(98.8,691.6) scale(1.2349999999999999) rotate(0)"><rect width="20" height="10" fill="#5596a2"/></g><polygon points="123.5,691.6 148.2,716.3000000000001 123.5,716.3000000000001" fill="#4e919e"/><polygon points="98.8,716.3 123.5,741 98.8,741" fill="#f7cba0"/><rect x="123.5" y="716.3" width="24.7" height="24.7" fill="#f2aa64"/><rect x="148.2" y="691.6" width="49.4" height="49.4" fill="#ffffff"/><g transform="translate(148.2,691.6) scale(1.2349999999999999) rotate(0)"><rect width="20" height="10" fill="#f5bb83"/></g><g transform="translate(172.9,691.6) scale(1.2349999999999999) rotate(0)"><rect width="20" height="10" fill="#f2aa63"/></g><g transform="translate(148.2,716.3) scale(1.2349999999999999) rotate(0)"><rect width="20" height="10" fill="#5294a0"/></g><g transform="translate(172.9,716.3) scale(1.2349999999999999) rotate(0)"><rect width="20" height="10" fill="#fbe4cd"/></g><rect x="197.6" y="691.6" width="49.4" height="49.4" fill="#ffffff"/><polygon points="222.29999999999998,691.6 222.29999999999998,716.3000000000001 197.6,716.3000000000001" fill="#fbe1c9"/><rect x="222.3" y="691.6" width="24.7" height="24.7" fill="#d2e3e6"/><g transform="translate(197.6,716.3) scale(1.2349999999999999) rotate(0)"><rect width="20" height="10" fill="#f3b170"/></g><g transform="translate(222.3,716.3) scale(1.2349999999999999) rotate(0)"><rect width="20" height="10" fill="#428997"/></g><rect x="247" y="691.6" width="49.4" height="49.4" fill="#ffffff"/><rect x="247" y="691.6" width="24.7" height="24.7" fill="#4a8f9b"/><polygon points="271.7,691.6 296.4,716.3000000000001 271.7,716.3000000000001" fill="#fcebda"/><polygon points="247,716.3 271.7,741 247,741" fill="#f5ba82"/><rect x="271.7" y="716.3" width="24.7" height="24.7" fill="#ddeaec"/><rect x="296.4" y="691.6" width="49.4" height="49.4" fill="#ffffff"/><rect x="296.4" y="691.6" width="24.7" height="24.7" fill="#f8cea6"/><polygon points="321.1,691.6 345.8,716.3000000000001 321.1,716.3000000000001" fill="#f5ba80"/><polygon points="296.4,716.3 321.09999999999997,741 296.4,741" fill="#5394a0"/><polygon points="321.1,716.3 345.8,716.3 345.8,741" fill="#e0ecee"/><rect x="345.8" y="691.6" width="49.4" height="49.4" fill="#ffffff"/><rect x="345.8" y="691.6" width="24.7" height="24.7" fill="#f3f7f8"/><rect x="370.5" y="691.6" width="24.7" height="24.7" fill="#f9d8b7"/><g transform="translate(345.8,716.3) scale(1.2349999999999999) rotate(0)"><rect width="20" height="10" fill="#f7cba0"/></g><g transform="translate(370.5,716.3) scale(1.2349999999999999) rotate(0)"><rect width="20" height="10" fill="#dae8eb"/></g><rect x="395.2" y="691.6" width="49.4" height="49.4" fill="#ffffff"/><polygon points="395.2,691.6 419.9,716.3000000000001 395.2,716.3000000000001" fill="#f09a47"/><g transform="translate(419.9,691.6) scale(1.2349999999999999) rotate(0)"><rect width="20" height="10" fill="#f7fafb"/></g><g transform="translate(395.2,716.3) scale(1.2349999999999999) rotate(0)"><rect width="20" height="10" fill="#4e919d"/></g><g transform="translate(419.9,716.3) scale(1.2349999999999999) rotate(0)"><rect width="20" height="10" fill="#fce9d7"/></g></g></svg>