<?xml version="1.0" standalone="no"?><svg xmlns:xlink="http://www.w3.org/1999/xlink" xmlns="http://www.w3.org/2000/svg" viewBox="0 0 1000 2000.0000000000002" preserveAspectRatio="xMaxYMax slice"><g transform="scale(2.699055330634278)"><rect x="0" y="0" width="370.5" height="741" fill="#ffffff"/><rect x="157.6848" y="34.184799999999996" width="5.7303999999999995" height="5.7303999999999995" fill="#ffffff"/><rect x="58.489599999999996" y="58.489599999999996" width="6.520799999999998" height="6.520799999999998" fill="#ffffff"/><rect x="58.0944" y="82.7944" width="7.3111999999999995" height="7.3111999999999995" fill="#ffffff"/><rect x="107.4944" y="82.7944" width="7.3111999999999995" height="7.3111999999999995" fill="#ffffff"/><rect x="156.8944" y="82.7944" width="7.3111999999999995" height="7.3111999999999995" fill="#ffffff"/><rect x="82.3992" y="107.0992" width="8.101600000000001" height="8.101600000000001" fill="#ffffff"/><g transform="translate(86.45,111.15) scale(0.20249999999999999) rotate(0)"><rect width="20" height="10" fill="#f2aa63"/></g><rect x="205.8992" y="107.0992" width="8.101600000000001" height="8.101600000000001" fill="#ffffff"/><rect x="279.9992" y="107.0992" width="8.101600000000001" height="8.101600000000001" fill="#ffffff"/><rect x="82.00399999999999" y="131.404" width="8.892" height="8.892" fill="#ffffff"/><g transform="translate(82,135.85) scale(0.2225) rotate(0)"><rect width="20" height="10" fill="#9cc1c8"/></g><rect x="230.20399999999998" y="131.404" width="8.892" height="8.892" fill="#ffffff"/><g transform="translate(230.2,131.4) scale(0.2225) rotate(0)"><rect width="20" height="10" fill="#5e9ba7"/></g><rect x="7.5088" y="155.7088" width="9.6824" height="9.6824" fill="#ffffff"/><g transform="translate(7.51,155.71) scale(0.242) rotate(0)"><rect width="20" height="10" fill="#fef6ef"/></g><rect x="155.7088" y="155.7088" width="9.6824" height="9.6824" fill="#ffffff"/><g transform="translate(155.71,155.71) scale(0.242) rotate(0)"><rect width="20" height="10" fill="#f09d4b"/></g><rect x="303.9088" y="155.7088" width="9.6824" height="9.6824" fill="#ffffff"/><rect x="105.9136" y="180.0136" width="10.4728" height="10.4728" fill="#ffffff"/><g transform="translate(105.91,180.01) scale(0.262) rotate(0)"><rect width="20" height="10" fill="#fcebdb"/></g><g transform="translate(111.15,185.25) scale(0.262) rotate(0)"><rect width="20" height="10" fill="#ddeaec"/></g><rect x="204.71359999999999" y="180.0136" width="10.4728" height="10.4728" fill="#ffffff"/><polygon points="209.95,185.25 215.19,185.25 215.19,190.49" fill="#f2a55a"/><rect x="229.41359999999997" y="180.0136" width="10.4728" height="10.4728" fill="#ffffff"/><polygon points="229.41,185.25 234.65,185.25 234.65,190.49" fill="#74a9b3"/><rect x="278.8136" y="180.0136" width="10.4728" height="10.4728" fill="#ffffff"/><g transform="translate(278.81,180.01) scale(0.262) rotate(0)"><rect width="20" height="10" fill="#6ea5af"/></g><rect x="328.2136" y="180.0136" width="10.4728" height="10.4728" fill="#ffffff"/><rect x="328.21" y="185.25" width="5.24" height="5.24" fill="#98bfc7"/><rect x="6.7184" y="204.3184" width="11.2632" height="11.2632" fill="#ffffff"/><rect x="6.72" y="204.32" width="5.63" height="5.63" fill="#fbe5cf"/><polygon points="17.98,204.32 17.98,209.95 12.35,209.95" fill="#f19f4f"/><g transform="translate(12.35,209.95) scale(0.2815) rotate(0)"><rect width="20" height="10" fill="#fadcbf"/></g><rect x="31.4184" y="204.3184" width="11.2632" height="11.2632" fill="#ffffff"/><polygon points="31.42,209.95 37.050000000000004,209.95 37.050000000000004,215.57999999999998" fill="#75aab3"/><g transform="translate(37.05,209.95) scale(0.2815) rotate(0)"><rect width="20" height="10" fill="#e1ecee"/></g><rect x="179.6184" y="204.3184" width="11.2632" height="11.2632" fill="#ffffff"/><polygon points="179.62,209.95 185.25,209.95 179.62,215.57999999999998" fill="#3e8795"/><rect x="204.3184" y="204.3184" width="11.2632" height="11.2632" fill="#ffffff"/><rect x="209.95" y="209.95" width="5.63" height="5.63" fill="#d5e5e8"/><rect x="229.01839999999999" y="204.3184" width="11.2632" height="11.2632" fill="#ffffff"/><polygon points="229.02,204.32 234.65,204.32 229.02,209.95" fill="#e3eef0"/><rect x="303.11839999999995" y="204.3184" width="11.2632" height="11.2632" fill="#ffffff"/><rect x="303.12" y="204.32" width="5.63" height="5.63" fill="#f8cea6"/><rect x="308.75" y="209.95" width="5.63" height="5.63" fill="#bcd5da"/><rect x="327.81839999999994" y="204.3184" width="11.2632" height="11.2632" fill="#ffffff"/><rect x="327.82" y="204.32" width="5.63" height="5.63" fill="#629da9"/><rect x="55.7232" y="228.6232" width="12.0536" height="12.0536" fill="#ffffff"/><g transform="translate(55.72,228.62) scale(0.3015) rotate(0)"><rect width="20" height="10" fill="#f6c08c"/></g><g transform="translate(61.75,234.65) scale(0.3015) rotate(0)"><rect width="20" height="10" fill="#f2aa65"/></g><rect x="129.82319999999999" y="228.6232" width="12.0536" height="12.0536" fill="#ffffff"/><g transform="translate(129.82,234.65) scale(0.3015) rotate(0)"><rect width="20" height="10" fill="#e1ecee"/></g><rect x="135.85" y="234.65" width="6.03" height="6.03" fill="#afcdd3"/><rect x="179.22320000000002" y="228.6232" width="12.0536" height="12.0536" fill="#ffffff"/><polygon points="185.25,228.62 191.28,228.62 191.28,234.65" fill="#fbe4cd"/><rect x="302.72319999999996" y="228.6232" width="12.0536" height="12.0536" fill="#ffffff"/><polygon points="308.75,228.62 308.75,234.65 302.72,234.65" fill="#69a2ac"/><rect x="352.1232" y="228.6232" width="12.0536" height="12.0536" fill="#ffffff"/><polygon points="358.15,228.62 364.17999999999995,228.62 364.17999999999995,234.65" fill="#d9e8ea"/><rect x="80.02799999999999" y="252.928" width="12.843999999999998" height="12.843999999999998" fill="#ffffff"/><g transform="translate(80.03,259.35) scale(0.321) rotate(0)"><rect width="20" height="10" fill="#f9d6b4"/></g><g transform="translate(86.45,259.35) scale(0.321) rotate(0)"><rect width="20" height="10" fill="#b9d3d8"/></g><rect x="154.128" y="252.928" width="12.843999999999998" height="12.843999999999998" fill="#ffffff"/><g transform="translate(160.55,259.35) scale(0.321) rotate(0)"><rect width="20" height="10" fill="#96bec5"/></g><rect x="178.828" y="252.928" width="12.843999999999998" height="12.843999999999998" fill="#ffffff"/><polygon points="185.25,252.93 191.67,259.35 185.25,259.35" fill="#f1a358"/><rect x="228.22799999999998" y="252.928" width="12.843999999999998" height="12.843999999999998" fill="#ffffff"/><rect x="252.928" y="252.928" width="12.843999999999998" height="12.843999999999998" fill="#ffffff"/><rect x="5.532800000000001" y="277.2328" width="13.634399999999998" height="13.634399999999998" fill="#ffffff"/><polygon points="12.35,277.23 19.17,277.23 19.17,284.05" fill="#fafcfc"/><g transform="translate(5.53,284.05) scale(0.341) rotate(0)"><rect width="20" height="10" fill="#f19d4d"/></g><rect x="12.35" y="284.05" width="6.82" height="6.82" fill="#f3ae6b"/><rect x="30.2328" y="277.2328" width="13.634399999999998" height="13.634399999999998" fill="#ffffff"/><rect x="30.23" y="277.23" width="6.82" height="6.82" fill="#f9d9ba"/><polygon points="37.05,277.23 43.87,284.05 37.05,284.05" fill="#89b6be"/><g transform="translate(30.23,284.05) scale(0.341) rotate(0)"><rect width="20" height="10" fill="#cadee2"/></g><rect x="79.63279999999999" y="277.2328" width="13.634399999999998" height="13.634399999999998" fill="#ffffff"/><rect x="86.45" y="277.23" width="6.82" height="6.82" fill="#f1a051"/><polygon points="79.63,284.05 86.44999999999999,290.87 79.63,290.87" fill="#99bfc7"/><g transform="translate(86.45,284.05) scale(0.341) rotate(0)"><rect width="20" height="10" fill="#b4d0d6"/></g><rect x="153.7328" y="277.2328" width="13.634399999999998" height="13.634399999999998" fill="#ffffff"/><rect x="203.1328" y="277.2328" width="13.634399999999998" height="13.634399999999998" fill="#ffffff"/><rect x="203.13" y="284.05" width="6.82" height="6.82" fill="#4d909d"/><rect x="227.8328" y="277.2328" width="13.634399999999998" height="13.634399999999998" fill="#ffffff"/><g transform="translate(227.83,284.05) scale(0.341) rotate(0)"><rect width="20" height="10" fill="#f0f5f6"/></g><rect x="301.9328" y="277.2328" width="13.634399999999998" height="13.634399999999998" fill="#ffffff"/><rect x="29.8376" y="301.5376" width="14.4248" height="14.4248" fill="#ffffff"/><rect x="37.05" y="308.75" width="7.21" height="7.21" fill="#fbe3cb"/><rect x="103.9376" y="301.5376" width="14.4248" height="14.4248" fill="#ffffff"/><rect x="103.94" y="301.54" width="7.21" height="7.21" fill="#488d9a"/><polygon points="103.94,308.75 111.14999999999999,315.96 103.94,315.96" fill="#f8fbfb"/><rect x="111.15" y="308.75" width="7.21" height="7.21" fill="#f8d1ab"/><rect x="128.6376" y="301.5376" width="14.4248" height="14.4248" fill="#ffffff"/><rect x="128.64" y="308.75" width="7.21" height="7.21" fill="#e8f1f2"/><polygon points="135.85,308.75 143.06,315.96 135.85,315.96" fill="#e3edef"/><rect x="153.33759999999998" y="301.5376" width="14.4248" height="14.4248" fill="#ffffff"/><polygon points="153.34,301.54 160.55,301.54 153.34,308.75" fill="#f2f7f8"/><rect x="160.55" y="308.75" width="7.21" height="7.21" fill="#8db8c0"/><rect x="178.0376" y="301.5376" width="14.4248" height="14.4248" fill="#ffffff"/><rect x="178.04" y="301.54" width="7.21" height="7.21" fill="#8fb9c1"/><rect x="202.7376" y="301.5376" width="14.4248" height="14.4248" fill="#ffffff"/><polygon points="202.74,301.54 209.95000000000002,301.54 209.95000000000002,308.75" fill="#5696a2"/><polygon points="202.74,308.75 209.95000000000002,308.75 202.74,315.96" fill="#f09741"/><rect x="209.95" y="308.75" width="7.21" height="7.21" fill="#f5bb83"/><rect x="252.1376" y="301.5376" width="14.4248" height="14.4248" fill="#ffffff"/><rect x="252.14" y="301.54" width="7.21" height="7.21" fill="#f5be89"/><g transform="translate(259.35,301.54) scale(0.3605) rotate(0)"><rect width="20" height="10" fill="#5394a0"/></g><rect x="301.5376" y="301.5376" width="14.4248" height="14.4248" fill="#ffffff"/><polygon points="301.54,301.54 308.75,301.54 308.75,308.75" fill="#f19d4d"/><g transform="translate(308.75,301.54) scale(0.3605) rotate(0)"><rect width="20" height="10" fill="#84b3bb"/></g><polygon points="301.54,308.75 308.75,315.96 301.54,315.96" fill="#84b3bb"/><g transform="translate(308.75,308.75) scale(0.3605) rotate(0)"><rect width="20" height="10" fill="#fcebdb"/></g><rect x="326.2376" y="301.5376" width="14.4248" height="14.4248" fill="#ffffff"/><polygon points="333.45,308.75 340.65999999999997,315.96 333.45,315.96" fill="#fcebdb"/><rect x="4.7424" y="325.84239999999994" width="15.2152" height="15.2152" fill="#ffffff"/><rect x="4.74" y="333.45" width="7.61" height="7.61" fill="#bbd5d9"/><rect x="29.4424" y="325.84239999999994" width="15.2152" height="15.2152" fill="#ffffff"/><g transform="translate(29.44,333.45) scale(0.3805) rotate(0)"><rect width="20" height="10" fill="#f7c799"/></g><rect x="152.9424" y="325.84239999999994" width="15.2152" height="15.2152" fill="#ffffff"/><rect x="152.94" y="325.84" width="7.61" height="7.61" fill="#fdf4ec"/><g transform="translate(152.94,333.45) scale(0.3805) rotate(0)"><rect width="20" height="10" fill="#f4b477"/></g><polygon points="168.16000000000003,333.45 168.16000000000003,341.06 160.55,341.06" fill="#f19f50"/><rect x="177.6424" y="325.84239999999994" width="15.2152" height="15.2152" fill="#ffffff"/><rect x="177.64" y="325.84" width="7.61" height="7.61" fill="#5696a2"/><rect x="276.44239999999996" y="325.84239999999994" width="15.2152" height="15.2152" fill="#ffffff"/><g transform="translate(276.44,333.45) scale(0.3805) rotate(0)"><rect width="20" height="10" fill="#afcdd3"/></g><rect x="29.0472" y="350.1472" width="16.0056" height="16.0056" fill="#ffffff"/><rect x="103.1472" y="350.1472" width="16.0056" height="16.0056" fill="#ffffff"/><rect x="103.15" y="358.15" width="8" height="8" fill="#f4b77c"/><rect x="127.8472" y="350.1472" width="16.0056" height="16.0056" fill="#ffffff"/><rect x="135.85" y="358.15" width="8" height="8" fill="#84b3bb"/><rect x="201.94719999999998" y="350.1472" width="16.0056" height="16.0056" fill="#ffffff"/><rect x="209.95" y="350.15" width="8" height="8" fill="#eff5f6"/><rect x="201.95" y="358.15" width="8" height="8" fill="#fffffe"/><rect x="209.95" y="358.15" width="8" height="8" fill="#f7c99c"/><rect x="251.3472" y="350.1472" width="16.0056" height="16.0056" fill="#ffffff"/><polygon points="259.35,350.15 259.35,358.15 251.35,358.15" fill="#f6c392"/><g transform="translate(259.35,350.15) scale(0.4) rotate(0)"><rect width="20" height="10" fill="#fefaf6"/></g><g transform="translate(259.35,358.15) scale(0.4) rotate(0)"><rect width="20" height="10" fill="#fbe3cb"/></g><rect x="276.0472" y="350.1472" width="16.0056" height="16.0056" fill="#ffffff"/><polygon points="276.05,358.15 284.05,358.15 276.05,366.15" fill="#f09b48"/><rect x="300.74719999999996" y="350.1472" width="16.0056" height="16.0056" fill="#ffffff"/><g transform="translate(300.75,350.15) scale(0.4) rotate(0)"><rect width="20" height="10" fill="#d0e2e5"/></g><rect x="325.44719999999995" y="350.1472" width="16.0056" height="16.0056" fill="#ffffff"/><rect x="325.45" y="350.15" width="8" height="8" fill="#f5bc84"/><g transform="translate(333.45,350.15) scale(0.4) rotate(0)"><rect width="20" height="10" fill="#fef9f3"/></g><polygon points="333.45,358.15 341.45,358.15 333.45,366.15" fill="#f09741"/><rect x="3.9520000000000004" y="374.452" width="16.796" height="16.796" fill="#ffffff"/><polygon points="12.35,374.45 20.75,382.84999999999997 12.35,382.84999999999997" fill="#cee1e4"/><polygon points="12.35,382.85 20.75,391.25 12.35,391.25" fill="#f09c4a"/><rect x="53.352" y="374.452" width="16.796" height="16.796" fill="#ffffff"/><g transform="translate(53.35,374.45) scale(0.42000000000000004) rotate(0)"><rect width="20" height="10" fill="#d7e6e9"/></g><g transform="translate(53.35,382.85) scale(0.42000000000000004) rotate(0)"><rect width="20" height="10" fill="#dbe8eb"/></g><polygon points="61.75,382.85 70.15,382.85 70.15,391.25" fill="#f6c595"/><rect x="102.752" y="374.452" width="16.796" height="16.796" fill="#ffffff"/><g transform="translate(102.75,374.45) scale(0.42000000000000004) rotate(0)"><rect width="20" height="10" fill="#d4e4e7"/></g><g transform="translate(111.15,382.85) scale(0.42000000000000004) rotate(0)"><rect width="20" height="10" fill="#bfd8dc"/></g><rect x="127.452" y="374.452" width="16.796" height="16.796" fill="#ffffff"/><g transform="translate(127.45,374.45) scale(0.42000000000000004) rotate(0)"><rect width="20" height="10" fill="#f5bf8a"/></g><g transform="translate(135.85,374.45) scale(0.42000000000000004) rotate(0)"><rect width="20" height="10" fill="#f7cba1"/></g><rect x="135.85" y="382.85" width="8.4" height="8.4" fill="#9fc3ca"/><rect x="152.152" y="374.452" width="16.796" height="16.796" fill="#ffffff"/><g transform="translate(152.15,382.85) scale(0.42000000000000004) rotate(0)"><rect width="20" height="10" fill="#f6c08c"/></g><g transform="translate(160.55,382.85) scale(0.42000000000000004) rotate(0)"><rect width="20" height="10" fill="#f2a55a"/></g><rect x="176.852" y="374.452" width="16.796" height="16.796" fill="#ffffff"/><rect x="176.85" y="374.45" width="8.4" height="8.4" fill="#fbe2ca"/><g transform="translate(185.25,374.45) scale(0.42000000000000004) rotate(0)"><rect width="20" height="10" fill="#f2a65c"/></g><g transform="translate(176.85,382.85) scale(0.42000000000000004) rotate(0)"><rect width="20" height="10" fill="#f4b579"/></g><rect x="185.25" y="382.85" width="8.4" height="8.4" fill="#f19f51"/><rect x="226.25199999999998" y="374.452" width="16.796" height="16.796" fill="#ffffff"/><rect x="226.25" y="374.45" width="8.4" height="8.4" fill="#ef943c"/><polygon points="234.65,374.45 243.05,374.45 234.65,382.84999999999997" fill="#b3d0d5"/><rect x="275.652" y="374.452" width="16.796" height="16.796" fill="#ffffff"/><rect x="284.05" y="374.45" width="8.4" height="8.4" fill="#5998a4"/><polygon points="275.65,382.85 284.04999999999995,391.25 275.65,391.25" fill="#f5bb82"/><rect x="325.05199999999996" y="374.452" width="16.796" height="16.796" fill="#ffffff"/><rect x="333.45" y="374.45" width="8.4" height="8.4" fill="#428997"/><g transform="translate(333.45,382.85) scale(0.42000000000000004) rotate(0)"><rect width="20" height="10" fill="#f9d6b5"/></g><rect x="349.752" y="374.452" width="16.796" height="16.796" fill="#ffffff"/><g transform="translate(349.75,374.45) scale(0.42000000000000004) rotate(0)"><rect width="20" height="10" fill="#f1a052"/></g><g transform="translate(358.15,382.85) scale(0.42000000000000004) rotate(0)"><rect width="20" height="10" fill="#69a2ac"/></g><rect x="28.2568" y="398.7568" width="17.586399999999998" height="17.586399999999998" fill="#ffffff"/><rect x="28.26" y="398.76" width="8.79" height="8.79" fill="#478d9a"/><polygon points="45.839999999999996,398.76 45.839999999999996,407.55 37.05,407.55" fill="#f9d7b7"/><g transform="translate(37.05,407.55) scale(0.43949999999999995) rotate(0)"><rect width="20" height="10" fill="#f6c18e"/></g><rect x="52.9568" y="398.7568" width="17.586399999999998" height="17.586399999999998" fill="#ffffff"/><polygon points="52.96,398.76 61.75,407.55 52.96,407.55" fill="#f09945"/><g transform="translate(52.96,407.55) scale(0.43949999999999995) rotate(0)"><rect width="20" height="10" fill="#9cc2c9"/></g><rect x="77.65679999999999" y="398.7568" width="17.586399999999998" height="17.586399999999998" fill="#ffffff"/><polygon points="77.66,398.76 86.44999999999999,407.55 77.66,407.55" fill="#f9d7b5"/><polygon points="86.45,398.76 95.24000000000001,407.55 86.45,407.55" fill="#fef8f3"/><rect x="102.35679999999999" y="398.7568" width="17.586399999999998" height="17.586399999999998" fill="#ffffff"/><polygon points="111.15,398.76 119.94,398.76 111.15,407.55" fill="#fbe2ca"/><g transform="translate(111.15,407.55) scale(0.43949999999999995) rotate(0)"><rect width="20" height="10" fill="#3f8895"/></g><rect x="127.0568" y="398.7568" width="17.586399999999998" height="17.586399999999998" fill="#ffffff"/><rect x="127.06" y="398.76" width="8.79" height="8.79" fill="#fdfefe"/><rect x="176.45680000000002" y="398.7568" width="17.586399999999998" height="17.586399999999998" fill="#ffffff"/><g transform="translate(185.25,398.76) scale(0.43949999999999995) rotate(0)"><rect width="20" height="10" fill="#77aab4"/></g><g transform="translate(176.46,407.55) scale(0.43949999999999995) rotate(0)"><rect width="20" height="10" fill="#acccd1"/></g><polygon points="185.25,407.55 194.04,407.55 194.04,416.34000000000003" fill="#e4eff0"/><rect x="201.1568" y="398.7568" width="17.586399999999998" height="17.586399999999998" fill="#ffffff"/><polygon points="201.16,398.76 209.95,398.76 201.16,407.55" fill="#f9d3af"/><g transform="translate(209.95,398.76) scale(0.43949999999999995) rotate(0)"><rect width="20" height="10" fill="#3f8795"/></g><g transform="translate(201.16,407.55) scale(0.43949999999999995) rotate(0)"><rect width="20" height="10" fill="#f8cfa8"/></g><rect x="275.2568" y="398.7568" width="17.586399999999998" height="17.586399999999998" fill="#ffffff"/><rect x="275.26" y="407.55" width="8.79" height="8.79" fill="#8eb9c1"/><polygon points="284.05,407.55 292.84000000000003,416.34000000000003 284.05,416.34000000000003" fill="#f8cda4"/><rect x="349.3568" y="398.7568" width="17.586399999999998" height="17.586399999999998" fill="#ffffff"/><polygon points="366.94,398.76 366.94,407.55 358.15,407.55" fill="#fdf1e6"/><rect x="358.15" y="407.55" width="8.79" height="8.79" fill="#fefaf6"/><rect x="3.1616" y="423.0616" width="18.3768" height="18.3768" fill="#ffffff"/><rect x="12.35" y="423.06" width="9.19" height="9.19" fill="#b9d4d9"/><g transform="translate(3.16,432.25) scale(0.45949999999999996) rotate(0)"><rect width="20" height="10" fill="#5897a3"/></g><polygon points="12.35,432.25 21.54,432.25 12.35,441.44" fill="#9ec3c9"/><rect x="27.8616" y="423.0616" width="18.3768" height="18.3768" fill="#ffffff"/><g transform="translate(27.86,423.06) scale(0.45949999999999996) rotate(0)"><rect width="20" height="10" fill="#e4eef0"/></g><polygon points="37.05,432.25 46.239999999999995,432.25 46.239999999999995,441.44" fill="#4e919e"/><rect x="52.5616" y="423.0616" width="18.3768" height="18.3768" fill="#ffffff"/><polygon points="52.56,423.06 61.75,423.06 52.56,432.25" fill="#ef933a"/><rect x="61.75" y="423.06" width="9.19" height="9.19" fill="#f6c392"/><polygon points="52.56,432.25 61.75,432.25 61.75,441.44" fill="#bad4d9"/><rect x="77.26159999999999" y="423.0616" width="18.3768" height="18.3768" fill="#ffffff"/><polygon points="77.26,423.06 86.45,423.06 86.45,432.25" fill="#eaf2f4"/><g transform="translate(86.45,423.06) scale(0.45949999999999996) rotate(0)"><rect width="20" height="10" fill="#f1a052"/></g><polygon points="86.45,432.25 86.45,441.44 77.26,441.44" fill="#4f929e"/><rect x="126.66159999999999" y="423.0616" width="18.3768" height="18.3768" fill="#ffffff"/><polygon points="126.66,423.06 135.85,423.06 126.66,432.25" fill="#f09843"/><polygon points="135.85,423.06 145.04,423.06 145.04,432.25" fill="#f5bd87"/><g transform="translate(135.85,432.25) scale(0.45949999999999996) rotate(0)"><rect width="20" height="10" fill="#f09741"/></g><rect x="151.36159999999998" y="423.0616" width="18.3768" height="18.3768" fill="#ffffff"/><rect x="160.55" y="423.06" width="9.19" height="9.19" fill="#ecf3f5"/><polygon points="160.55,432.25 169.74,432.25 169.74,441.44" fill="#fbe3cb"/><rect x="176.0616" y="423.0616" width="18.3768" height="18.3768" fill="#ffffff"/><rect x="176.06" y="423.06" width="9.19" height="9.19" fill="#fdeee1"/><rect x="185.25" y="423.06" width="9.19" height="9.19" fill="#dce9ec"/><polygon points="194.44,432.25 194.44,441.44 185.25,441.44" fill="#faddc1"/><rect x="200.7616" y="423.0616" width="18.3768" height="18.3768" fill="#ffffff"/><polygon points="219.14,423.06 219.14,432.25 209.95,432.25" fill="#79acb5"/><polygon points="200.76,432.25 209.95,432.25 200.76,441.44" fill="#cadee2"/><polygon points="209.95,432.25 219.14,441.44 209.95,441.44" fill="#94bdc4"/><rect x="225.46159999999998" y="423.0616" width="18.3768" height="18.3768" fill="#ffffff"/><rect x="234.65" y="423.06" width="9.19" height="9.19" fill="#7badb6"/><rect x="299.5616" y="423.0616" width="18.3768" height="18.3768" fill="#ffffff"/><polygon points="299.56,423.06 308.75,423.06 308.75,432.25" fill="#5394a0"/><rect x="308.75" y="423.06" width="9.19" height="9.19" fill="#f9d9ba"/><g transform="translate(299.56,432.25) scale(0.45949999999999996) rotate(0)"><rect width="20" height="10" fill="#c2d9dd"/></g><rect x="324.2616" y="423.0616" width="18.3768" height="18.3768" fill="#ffffff"/><polygon points="324.26,423.06 333.45,423.06 324.26,432.25" fill="#70a6b0"/><polygon points="324.26,432.25 333.45,432.25 324.26,441.44" fill="#fbfcfd"/><polygon points="342.64,432.25 342.64,441.44 333.45,441.44" fill="#f9d7b5"/><rect x="348.96160000000003" y="423.0616" width="18.3768" height="18.3768" fill="#ffffff"/><polygon points="348.96,423.06 358.15,432.25 348.96,432.25" fill="#fcead8"/><g transform="translate(358.15,423.06) scale(0.45949999999999996) rotate(0)"><rect width="20" height="10" fill="#f5f9f9"/></g><rect x="2.7664000000000004" y="447.36639999999994" width="19.167199999999998" height="19.167199999999998" fill="#ffffff"/><polygon points="2.77,447.37 12.35,447.37 2.77,456.95" fill="#f8fbfb"/><rect x="12.35" y="456.95" width="9.58" height="9.58" fill="#77aab4"/><rect x="27.4664" y="447.36639999999994" width="19.167199999999998" height="19.167199999999998" fill="#ffffff"/><polygon points="37.05,447.37 46.629999999999995,447.37 46.629999999999995,456.95" fill="#c5dbdf"/><rect x="76.8664" y="447.36639999999994" width="19.167199999999998" height="19.167199999999998" fill="#ffffff"/><rect x="86.45" y="447.37" width="9.58" height="9.58" fill="#488d9a"/><polygon points="76.87,456.95 86.45,456.95 86.45,466.53" fill="#f9d6b5"/><g transform="translate(86.45,456.95) scale(0.479) rotate(0)"><rect width="20" height="10" fill="#65a0aa"/></g><rect x="101.5664" y="447.36639999999994" width="19.167199999999998" height="19.167199999999998" fill="#ffffff"/><g transform="translate(101.57,447.37) scale(0.479) rotate(0)"><rect width="20" height="10" fill="#3d8794"/></g><polygon points="111.15,447.37 120.73,447.37 111.15,456.95" fill="#f8cda3"/><rect x="111.15" y="456.95" width="9.58" height="9.58" fill="#b6d2d7"/><rect x="150.9664" y="447.36639999999994" width="19.167199999999998" height="19.167199999999998" fill="#ffffff"/><rect x="150.97" y="447.37" width="9.58" height="9.58" fill="#b5d1d7"/><rect x="160.55" y="447.37" width="9.58" height="9.58" fill="#fbe1c8"/><polygon points="150.97,456.95 160.55,466.53 150.97,466.53" fill="#6ea5af"/><g transform="translate(160.55,456.95) scale(0.479) rotate(0)"><rect width="20" height="10" fill="#bad4d9"/></g><rect x="200.3664" y="447.36639999999994" width="19.167199999999998" height="19.167199999999998" fill="#ffffff"/><g transform="translate(200.37,447.37) scale(0.479) rotate(0)"><rect width="20" height="10" fill="#f2a65d"/></g><polygon points="219.53,447.37 219.53,456.95 209.95,456.95" fill="#4c909d"/><rect x="200.37" y="456.95" width="9.58" height="9.58" fill="#fbfdfd"/><g transform="translate(209.95,456.95) scale(0.479) rotate(0)"><rect width="20" height="10" fill="#f3ae6b"/></g><rect x="225.0664" y="447.36639999999994" width="19.167199999999998" height="19.167199999999998" fill="#ffffff"/><g transform="translate(225.07,447.37) scale(0.479) rotate(0)"><rect width="20" height="10" fill="#f19e4f"/></g><g transform="translate(234.65,447.37) scale(0.479) rotate(0)"><rect width="20" height="10" fill="#f4b577"/></g><g transform="translate(225.07,456.95) scale(0.479) rotate(0)"><rect width="20" height="10" fill="#fce9d6"/></g><polygon points="244.23000000000002,456.95 244.23000000000002,466.53 234.65,466.53" fill="#c7dce0"/><rect x="249.7664" y="447.36639999999994" width="19.167199999999998" height="19.167199999999998" fill="#ffffff"/><polygon points="249.77,447.37 259.35,447.37 249.77,456.95" fill="#e1ecee"/><polygon points="259.35,447.37 268.93,447.37 268.93,456.95" fill="#d0e2e5"/><rect x="249.77" y="456.95" width="9.58" height="9.58" fill="#feffff"/><polygon points="259.35,456.95 268.93,466.53 259.35,466.53" fill="#fef8f2"/><rect x="299.16639999999995" y="447.36639999999994" width="19.167199999999998" height="19.167199999999998" fill="#ffffff"/><rect x="299.17" y="447.37" width="9.58" height="9.58" fill="#5696a2"/><polygon points="308.75,447.37 318.33,456.95 308.75,456.95" fill="#f3ad6a"/><g transform="translate(299.17,456.95) scale(0.479) rotate(0)"><rect width="20" height="10" fill="#e4eef0"/></g><polygon points="318.33,456.95 318.33,466.53 308.75,466.53" fill="#77abb4"/><rect x="323.86639999999994" y="447.36639999999994" width="19.167199999999998" height="19.167199999999998" fill="#ffffff"/><polygon points="323.87,447.37 333.45,447.37 323.87,456.95" fill="#3f8895"/><polygon points="343.03,447.37 343.03,456.95 333.45,456.95" fill="#a1c4cb"/><polygon points="333.45,456.95 333.45,466.53 323.87,466.53" fill="#f8cfa8"/><g transform="translate(333.45,456.95) scale(0.479) rotate(0)"><rect width="20" height="10" fill="#fdf5ec"/></g><rect x="2.3712000000000004" y="471.6712" width="19.9576" height="19.9576" fill="#ffffff"/><g transform="translate(2.37,471.67) scale(0.499) rotate(0)"><rect width="20" height="10" fill="#f1a153"/></g><g transform="translate(12.35,481.65) scale(0.499) rotate(0)"><rect width="20" height="10" fill="#80b0b9"/></g><rect x="27.0712" y="471.6712" width="19.9576" height="19.9576" fill="#ffffff"/><polygon points="47.03,471.67 47.03,481.65000000000003 37.05,481.65000000000003" fill="#ef953e"/><rect x="27.07" y="481.65" width="9.98" height="9.98" fill="#fdf4eb"/><polygon points="47.03,481.65 47.03,491.63 37.05,491.63" fill="#deeaed"/><rect x="51.7712" y="471.6712" width="19.9576" height="19.9576" fill="#ffffff"/><rect x="51.77" y="471.67" width="9.98" height="9.98" fill="#fbe1c8"/><polygon points="61.75,471.67 71.73,471.67 61.75,481.65000000000003" fill="#fadec2"/><g transform="translate(51.77,481.65) scale(0.499) rotate(0)"><rect width="20" height="10" fill="#f4b272"/></g><polygon points="71.73,481.65 71.73,491.63 61.75,491.63" fill="#d0e2e5"/><rect x="76.4712" y="471.6712" width="19.9576" height="19.9576" fill="#ffffff"/><rect x="86.45" y="471.67" width="9.98" height="9.98" fill="#ebf3f4"/><rect x="76.47" y="481.65" width="9.98" height="9.98" fill="#f09c4b"/><polygon points="96.43,481.65 96.43,491.63 86.45,491.63" fill="#69a2ac"/><rect x="125.8712" y="471.6712" width="19.9576" height="19.9576" fill="#ffffff"/><g transform="translate(125.87,471.67) scale(0.499) rotate(0)"><rect width="20" height="10" fill="#fbe3cb"/></g><rect x="125.87" y="481.65" width="9.98" height="9.98" fill="#fbe2ca"/><rect x="150.57119999999998" y="471.6712" width="19.9576" height="19.9576" fill="#ffffff"/><rect x="150.57" y="471.67" width="9.98" height="9.98" fill="#f09740"/><g transform="translate(160.55,481.65) scale(0.499) rotate(0)"><rect width="20" height="10" fill="#f7c79a"/></g><rect x="175.2712" y="471.6712" width="19.9576" height="19.9576" fill="#ffffff"/><g transform="translate(175.27,471.67) scale(0.499) rotate(0)"><rect width="20" height="10" fill="#f5b97f"/></g><polygon points="185.25,471.67 195.23,471.67 185.25,481.65000000000003" fill="#f09741"/><polygon points="185.25,481.65 195.23,491.63 185.25,491.63" fill="#7daeb7"/><rect x="199.97119999999998" y="471.6712" width="19.9576" height="19.9576" fill="#ffffff"/><rect x="199.97" y="471.67" width="9.98" height="9.98" fill="#85b3bc"/><rect x="209.95" y="481.65" width="9.98" height="9.98" fill="#f3b171"/><rect x="224.67119999999997" y="471.6712" width="19.9576" height="19.9576" fill="#ffffff"/><g transform="translate(224.67,471.67) scale(0.499) rotate(0)"><rect width="20" height="10" fill="#87b5bd"/></g><rect x="234.65" y="471.67" width="9.98" height="9.98" fill="#a8c9cf"/><rect x="224.67" y="481.65" width="9.98" height="9.98" fill="#f3f8f8"/><polygon points="234.65,481.65 244.63,491.63 234.65,491.63" fill="#ebf2f4"/><rect x="249.3712" y="471.6712" width="19.9576" height="19.9576" fill="#ffffff"/><g transform="translate(259.35,471.67) scale(0.499) rotate(0)"><rect width="20" height="10" fill="#fceddf"/></g><rect x="249.37" y="481.65" width="9.98" height="9.98" fill="#7daeb7"/><g transform="translate(259.35,481.65) scale(0.499) rotate(0)"><rect width="20" height="10" fill="#f1a458"/></g><rect x="348.1712" y="471.6712" width="19.9576" height="19.9576" fill="#ffffff"/><polygon points="368.13,471.67 368.13,481.65000000000003 358.15,481.65000000000003" fill="#fbe6d1"/><rect x="1.9760000000000006" y="495.976" width="20.747999999999998" height="20.747999999999998" fill="#ffffff"/><rect x="1.98" y="495.98" width="10.37" height="10.37" fill="#fffefd"/><g transform="translate(12.35,495.98) scale(0.5185) rotate(0)"><rect width="20" height="10" fill="#82b1ba"/></g><g transform="translate(1.98,506.35) scale(0.5185) rotate(0)"><rect width="20" height="10" fill="#fce8d5"/></g><rect x="12.35" y="506.35" width="10.37" height="10.37" fill="#f5be88"/><rect x="26.676" y="495.976" width="20.747999999999998" height="20.747999999999998" fill="#ffffff"/><g transform="translate(26.68,495.98) scale(0.5185) rotate(0)"><rect width="20" height="10" fill="#f4b679"/></g><rect x="37.05" y="495.98" width="10.37" height="10.37" fill="#f5bf8a"/><polygon points="37.05,506.35 37.05,516.72 26.68,516.72" fill="#f6c18d"/><polygon points="47.419999999999995,506.35 47.419999999999995,516.72 37.05,516.72" fill="#70a6b0"/><rect x="51.376" y="495.976" width="20.747999999999998" height="20.747999999999998" fill="#ffffff"/><g transform="translate(51.38,495.98) scale(0.5185) rotate(0)"><rect width="20" height="10" fill="#f9d9ba"/></g><g transform="translate(61.75,495.98) scale(0.5185) rotate(0)"><rect width="20" height="10" fill="#f1f6f7"/></g><g transform="translate(61.75,506.35) scale(0.5185) rotate(0)"><rect width="20" height="10" fill="#609ca7"/></g><rect x="100.776" y="495.976" width="20.747999999999998" height="20.747999999999998" fill="#ffffff"/><rect x="111.15" y="495.98" width="10.37" height="10.37" fill="#f9d4b1"/><rect x="111.15" y="506.35" width="10.37" height="10.37" fill="#f2f7f8"/><rect x="125.476" y="495.976" width="20.747999999999998" height="20.747999999999998" fill="#ffffff"/><rect x="125.48" y="495.98" width="10.37" height="10.37" fill="#d4e4e7"/><polygon points="135.85,495.98 146.22,506.35 135.85,506.35" fill="#72a7b1"/><g transform="translate(135.85,506.35) scale(0.5185) rotate(0)"><rect width="20" height="10" fill="#9dc2c9"/></g><rect x="150.176" y="495.976" width="20.747999999999998" height="20.747999999999998" fill="#ffffff"/><polygon points="160.55,495.98 160.55,506.35 150.18,506.35" fill="#5293a0"/><g transform="translate(160.55,495.98) scale(0.5185) rotate(0)"><rect width="20" height="10" fill="#bdd6db"/></g><polygon points="150.18,506.35 160.55,516.72 150.18,516.72" fill="#f6c290"/><g transform="translate(160.55,506.35) scale(0.5185) rotate(0)"><rect width="20" height="10" fill="#f8cfa7"/></g><rect x="174.876" y="495.976" width="20.747999999999998" height="20.747999999999998" fill="#ffffff"/><rect x="174.88" y="495.98" width="10.37" height="10.37" fill="#f8d0aa"/><g transform="translate(185.25,495.98) scale(0.5185) rotate(0)"><rect width="20" height="10" fill="#f7cca2"/></g><g transform="translate(174.88,506.35) scale(0.5185) rotate(0)"><rect width="20" height="10" fill="#fef6ef"/></g><polygon points="195.62,506.35 195.62,516.72 185.25,516.72" fill="#6fa6b0"/><rect x="199.576" y="495.976" width="20.747999999999998" height="20.747999999999998" fill="#ffffff"/><g transform="translate(199.58,495.98) scale(0.5185) rotate(0)"><rect width="20" height="10" fill="#5998a3"/></g><g transform="translate(209.95,495.98) scale(0.5185) rotate(0)"><rect width="20" height="10" fill="#99bfc7"/></g><g transform="translate(199.58,506.35) scale(0.5185) rotate(0)"><rect width="20" height="10" fill="#f6c18e"/></g><rect x="209.95" y="506.35" width="10.37" height="10.37" fill="#3d8694"/><rect x="224.27599999999998" y="495.976" width="20.747999999999998" height="20.747999999999998" fill="#ffffff"/><rect x="224.28" y="495.98" width="10.37" height="10.37" fill="#f6c08c"/><polygon points="234.65,495.98 245.02,495.98 234.65,506.35" fill="#fcfdfd"/><rect x="234.65" y="506.35" width="10.37" height="10.37" fill="#a0c4cb"/><rect x="248.976" y="495.976" width="20.747999999999998" height="20.747999999999998" fill="#ffffff"/><g transform="translate(248.98,506.35) scale(0.5185) rotate(0)"><rect width="20" height="10" fill="#5a98a4"/></g><polygon points="259.35,506.35 269.72,506.35 269.72,516.72" fill="#5495a1"/><rect x="273.676" y="495.976" width="20.747999999999998" height="20.747999999999998" fill="#ffffff"/><polygon points="284.05,495.98 284.05,506.35 273.68,506.35" fill="#faddc1"/><g transform="translate(284.05,495.98) scale(0.5185) rotate(0)"><rect width="20" height="10" fill="#ddeaec"/></g><rect x="273.68" y="506.35" width="10.37" height="10.37" fill="#f09640"/><rect x="323.07599999999996" y="495.976" width="20.747999999999998" height="20.747999999999998" fill="#ffffff"/><polygon points="323.08,495.98 333.45,495.98 333.45,506.35" fill="#f5b87e"/><polygon points="343.82,495.98 343.82,506.35 333.45,506.35" fill="#f3ac68"/><rect x="323.08" y="506.35" width="10.37" height="10.37" fill="#f2a962"/><g transform="translate(333.45,506.35) scale(0.5185) rotate(0)"><rect width="20" height="10" fill="#a6c8ce"/></g><rect x="347.776" y="495.976" width="20.747999999999998" height="20.747999999999998" fill="#ffffff"/><g transform="translate(347.78,495.98) scale(0.5185) rotate(0)"><rect width="20" height="10" fill="#bbd5da"/></g><rect x="358.15" y="495.98" width="10.37" height="10.37" fill="#f2a65c"/><g transform="translate(358.15,506.35) scale(0.5185) rotate(0)"><rect width="20" height="10" fill="#f09843"/></g><rect x="1.5808000000000009" y="520.2807999999999" width="21.538399999999996" height="21.538399999999996" fill="#ffffff"/><rect x="12.35" y="520.28" width="10.77" height="10.77" fill="#b4d1d6"/><g transform="translate(1.58,531.05) scale(0.5385) rotate(0)"><rect width="20" height="10" fill="#fbe3cc"/></g><rect x="12.35" y="531.05" width="10.77" height="10.77" fill="#f9d9ba"/><rect x="26.2808" y="520.2807999999999" width="21.538399999999996" height="21.538399999999996" fill="#ffffff"/><rect x="26.28" y="520.28" width="10.77" height="10.77" fill="#5c9aa5"/><polygon points="37.05,520.28 47.81999999999999,531.05 37.05,531.05" fill="#f19f4f"/><rect x="26.28" y="531.05" width="10.77" height="10.77" fill="#a0c4cb"/><g transform="translate(37.05,531.05) scale(0.5385) rotate(0)"><rect width="20" height="10" fill="#feffff"/></g><rect x="50.9808" y="520.2807999999999" width="21.538399999999996" height="21.538399999999996" fill="#ffffff"/><g transform="translate(50.98,520.28) scale(0.5385) rotate(0)"><rect width="20" height="10" fill="#99bfc7"/></g><rect x="61.75" y="520.28" width="10.77" height="10.77" fill="#76aab4"/><rect x="50.98" y="531.05" width="10.77" height="10.77" fill="#8db8c0"/><rect x="61.75" y="531.05" width="10.77" height="10.77" fill="#fdf5ec"/><rect x="100.3808" y="520.2807999999999" width="21.538399999999996" height="21.538399999999996" fill="#ffffff"/><polygon points="100.38,520.28 111.14999999999999,520.28 111.14999999999999,531.05" fill="#f4b375"/><g transform="translate(111.15,520.28) scale(0.5385) rotate(0)"><rect width="20" height="10" fill="#6aa2ad"/></g><g transform="translate(111.15,531.05) scale(0.5385) rotate(0)"><rect width="20" height="10" fill="#7fafb8"/></g><rect x="125.0808" y="520.2807999999999" width="21.538399999999996" height="21.538399999999996" fill="#ffffff"/><rect x="125.08" y="520.28" width="10.77" height="10.77" fill="#f4b375"/><rect x="135.85" y="520.28" width="10.77" height="10.77" fill="#e2edef"/><g transform="translate(125.08,531.05) scale(0.5385) rotate(0)"><rect width="20" height="10" fill="#f8fafb"/></g><rect x="135.85" y="531.05" width="10.77" height="10.77" fill="#f09844"/><rect x="149.7808" y="520.2807999999999" width="21.538399999999996" height="21.538399999999996" fill="#ffffff"/><polygon points="149.78,520.28 160.55,531.05 149.78,531.05" fill="#f7cca2"/><polygon points="160.55,520.28 171.32000000000002,520.28 171.32000000000002,531.05" fill="#609ca8"/><g transform="translate(160.55,531.05) scale(0.5385) rotate(0)"><rect width="20" height="10" fill="#f5bc85"/></g><rect x="174.48080000000002" y="520.2807999999999" width="21.538399999999996" height="21.538399999999996" fill="#ffffff"/><g transform="translate(174.48,520.28) scale(0.5385) rotate(0)"><rect width="20" height="10" fill="#f9d6b4"/></g><g transform="translate(185.25,520.28) scale(0.5385) rotate(0)"><rect width="20" height="10" fill="#d6e5e8"/></g><polygon points="174.48,531.05 185.25,541.8199999999999 174.48,541.8199999999999" fill="#f8d1aa"/><g transform="translate(185.25,531.05) scale(0.5385) rotate(0)"><rect width="20" height="10" fill="#fce8d4"/></g><rect x="199.1808" y="520.2807999999999" width="21.538399999999996" height="21.538399999999996" fill="#ffffff"/><g transform="translate(209.95,520.28) scale(0.5385) rotate(0)"><rect width="20" height="10" fill="#fadec3"/></g><rect x="199.18" y="531.05" width="10.77" height="10.77" fill="#f5b97f"/><polygon points="220.72,531.05 220.72,541.8199999999999 209.95,541.8199999999999" fill="#d9e7ea"/><rect x="223.8808" y="520.2807999999999" width="21.538399999999996" height="21.538399999999996" fill="#ffffff"/><polygon points="223.88,520.28 234.65,531.05 223.88,531.05" fill="#c4dade"/><g transform="translate(234.65,520.28) scale(0.5385) rotate(0)"><rect width="20" height="10" fill="#f5f9fa"/></g><g transform="translate(223.88,531.05) scale(0.5385) rotate(0)"><rect width="20" height="10" fill="#eaf2f3"/></g><rect x="234.65" y="531.05" width="10.77" height="10.77" fill="#f6c290"/><rect x="248.5808" y="520.2807999999999" width="21.538399999999996" height="21.538399999999996" fill="#ffffff"/><polygon points="259.35,520.28 259.35,531.05 248.58,531.05" fill="#f3ab66"/><polygon points="270.12,520.28 270.12,531.05 259.35,531.05" fill="#3a8492"/><g transform="translate(248.58,531.05) scale(0.5385) rotate(0)"><rect width="20" height="10" fill="#5494a1"/></g><rect x="273.2808" y="520.2807999999999" width="21.538399999999996" height="21.538399999999996" fill="#ffffff"/><rect x="273.28" y="520.28" width="10.77" height="10.77" fill="#69a2ad"/><g transform="translate(284.05,520.28) scale(0.5385) rotate(0)"><rect width="20" height="10" fill="#d4e4e7"/></g><rect x="273.28" y="531.05" width="10.77" height="10.77" fill="#f3ae6b"/><rect x="297.9808" y="520.2807999999999" width="21.538399999999996" height="21.538399999999996" fill="#ffffff"/><rect x="297.98" y="520.28" width="10.77" height="10.77" fill="#fadabb"/><g transform="translate(308.75,520.28) scale(0.5385) rotate(0)"><rect width="20" height="10" fill="#69a2ac"/></g><rect x="308.75" y="531.05" width="10.77" height="10.77" fill="#f2aa65"/><rect x="322.6808" y="520.2807999999999" width="21.538399999999996" height="21.538399999999996" fill="#ffffff"/><g transform="translate(333.45,520.28) scale(0.5385) rotate(0)"><rect width="20" height="10" fill="#f1a154"/></g><polygon points="322.68,531.05 333.45,531.05 322.68,541.8199999999999" fill="#f8cfa8"/><rect x="347.3808" y="520.2807999999999" width="21.538399999999996" height="21.538399999999996" fill="#ffffff"/><g transform="translate(358.15,520.28) scale(0.5385) rotate(0)"><rect width="20" height="10" fill="#f1a357"/></g><rect x="1.1856000000000009" y="544.5856" width="22.328799999999998" height="22.328799999999998" fill="#ffffff"/><polygon points="12.35,544.59 12.35,555.75 1.19,555.75" fill="#f9d6b4"/><polygon points="1.19,555.75 12.35,555.75 1.19,566.91" fill="#f4b679"/><rect x="25.8856" y="544.5856" width="22.328799999999998" height="22.328799999999998" fill="#ffffff"/><g transform="translate(25.89,544.59) scale(0.558) rotate(0)"><rect width="20" height="10" fill="#fdf4eb"/></g><g transform="translate(37.05,544.59) scale(0.558) rotate(0)"><rect width="20" height="10" fill="#fefefe"/></g><polygon points="25.89,555.75 37.05,555.75 37.05,566.91" fill="#438a97"/><rect x="75.28559999999999" y="544.5856" width="22.328799999999998" height="22.328799999999998" fill="#ffffff"/><g transform="translate(75.29,544.59) scale(0.558) rotate(0)"><rect width="20" height="10" fill="#c3d9de"/></g><rect x="86.45" y="544.59" width="11.16" height="11.16" fill="#f8d2ae"/><g transform="translate(75.29,555.75) scale(0.558) rotate(0)"><rect width="20" height="10" fill="#a4c6cd"/></g><polygon points="86.45,555.75 97.61,555.75 86.45,566.91" fill="#a1c4cb"/><rect x="99.9856" y="544.5856" width="22.328799999999998" height="22.328799999999998" fill="#ffffff"/><polygon points="122.31,544.59 122.31,555.75 111.15,555.75" fill="#fce9d7"/><polygon points="99.99,555.75 111.14999999999999,555.75 111.14999999999999,566.91" fill="#fcedde"/><g transform="translate(111.15,555.75) scale(0.558) rotate(0)"><rect width="20" height="10" fill="#78abb5"/></g><rect x="124.6856" y="544.5856" width="22.328799999999998" height="22.328799999999998" fill="#ffffff"/><polygon points="135.85,544.59 135.85,555.75 124.69,555.75" fill="#f2aa64"/><g transform="translate(135.85,544.59) scale(0.558) rotate(0)"><rect width="20" height="10" fill="#f09741"/></g><rect x="124.69" y="555.75" width="11.16" height="11.16" fill="#fdefe2"/><g transform="translate(135.85,555.75) scale(0.558) rotate(0)"><rect width="20" height="10" fill="#f4b374"/></g><rect x="149.38559999999998" y="544.5856" width="22.328799999999998" height="22.328799999999998" fill="#ffffff"/><g transform="translate(149.39,544.59) scale(0.558) rotate(0)"><rect width="20" height="10" fill="#fae0c7"/></g><rect x="160.55" y="544.59" width="11.16" height="11.16" fill="#95bdc5"/><polygon points="149.39,555.75 160.54999999999998,555.75 160.54999999999998,566.91" fill="#66a0aa"/><g transform="translate(160.55,555.75) scale(0.558) rotate(0)"><rect width="20" height="10" fill="#f9d3b0"/></g><rect x="174.0856" y="544.5856" width="22.328799999999998" height="22.328799999999998" fill="#ffffff"/><rect x="174.09" y="544.59" width="11.16" height="11.16" fill="#b2cfd5"/><rect x="185.25" y="544.59" width="11.16" height="11.16" fill="#ef943c"/><rect x="174.09" y="555.75" width="11.16" height="11.16" fill="#cfe1e5"/><g transform="translate(185.25,555.75) scale(0.558) rotate(0)"><rect width="20" height="10" fill="#fefbf8"/></g><rect x="198.7856" y="544.5856" width="22.328799999999998" height="22.328799999999998" fill="#ffffff"/><rect x="223.48559999999998" y="544.5856" width="22.328799999999998" height="22.328799999999998" fill="#ffffff"/><rect x="223.49" y="544.59" width="11.16" height="11.16" fill="#cbdfe2"/><polygon points="234.65,544.59 245.81,555.75 234.65,555.75" fill="#629da8"/><polygon points="223.49,555.75 234.65,555.75 234.65,566.91" fill="#fafcfc"/><rect x="234.65" y="555.75" width="11.16" height="11.16" fill="#408896"/><rect x="248.1856" y="544.5856" width="22.328799999999998" height="22.328799999999998" fill="#ffffff"/><polygon points="248.19,544.59 259.35,555.75 248.19,555.75" fill="#f8cda4"/><polygon points="259.35,544.59 270.51000000000005,555.75 259.35,555.75" fill="#f6c18f"/><g transform="translate(248.19,555.75) scale(0.558) rotate(0)"><rect width="20" height="10" fill="#68a1ac"/></g><rect x="259.35" y="555.75" width="11.16" height="11.16" fill="#478d9a"/><rect x="272.8856" y="544.5856" width="22.328799999999998" height="22.328799999999998" fill="#ffffff"/><g transform="translate(272.89,544.59) scale(0.558) rotate(0)"><rect width="20" height="10" fill="#f6c595"/></g><rect x="284.05" y="544.59" width="11.16" height="11.16" fill="#f9dabb"/><polygon points="272.89,555.75 284.05,555.75 284.05,566.91" fill="#fdf3e9"/><g transform="translate(284.05,555.75) scale(0.558) rotate(0)"><rect width="20" height="10" fill="#4b8f9c"/></g><rect x="297.5856" y="544.5856" width="22.328799999999998" height="22.328799999999998" fill="#ffffff"/><g transform="translate(297.59,544.59) scale(0.558) rotate(0)"><rect width="20" height="10" fill="#5897a3"/></g><polygon points="308.75,544.59 319.91,555.75 308.75,555.75" fill="#fbe1c8"/><polygon points="308.75,555.75 308.75,566.91 297.59,566.91" fill="#abcbd1"/><g transform="translate(308.75,555.75) scale(0.558) rotate(0)"><rect width="20" height="10" fill="#6ea5af"/></g><rect x="322.2856" y="544.5856" width="22.328799999999998" height="22.328799999999998" fill="#ffffff"/><g transform="translate(322.29,544.59) scale(0.558) rotate(0)"><rect width="20" height="10" fill="#96bec5"/></g><polygon points="322.29,555.75 333.45000000000005,555.75 322.29,566.91" fill="#ccdfe3"/><g transform="translate(333.45,555.75) scale(0.558) rotate(0)"><rect width="20" height="10" fill="#79acb5"/></g><rect x="346.98560000000003" y="544.5856" width="22.328799999999998" height="22.328799999999998" fill="#ffffff"/><polygon points="346.99,544.59 358.15000000000003,555.75 346.99,555.75" fill="#f4b477"/><rect x="358.15" y="544.59" width="11.16" height="11.16" fill="#ddeaec"/><g transform="translate(346.99,555.75) scale(0.558) rotate(0)"><rect width="20" height="10" fill="#f3ae6b"/></g><polygon points="358.15,555.75 369.31,555.75 358.15,566.91" fill="#73a8b2"/><rect x="0.7903999999999997" y="568.8904" width="23.1192" height="23.1192" fill="#ffffff"/><g transform="translate(0.79,568.89) scale(0.5780000000000001) rotate(0)"><rect width="20" height="10" fill="#5f9ba7"/></g><rect x="12.35" y="568.89" width="11.56" height="11.56" fill="#b5d1d6"/><rect x="0.79" y="580.45" width="11.56" height="11.56" fill="#aacad0"/><g transform="translate(12.35,580.45) scale(0.5780000000000001) rotate(0)"><rect width="20" height="10" fill="#dbe9eb"/></g><rect x="74.8904" y="568.8904" width="23.1192" height="23.1192" fill="#ffffff"/><g transform="translate(74.89,568.89) scale(0.5780000000000001) rotate(0)"><rect width="20" height="10" fill="#a5c7ce"/></g><polygon points="98.01,568.89 98.01,580.4499999999999 86.45,580.4499999999999" fill="#f1a153"/><rect x="74.89" y="580.45" width="11.56" height="11.56" fill="#5796a2"/><rect x="86.45" y="580.45" width="11.56" height="11.56" fill="#fadcbf"/><rect x="99.5904" y="568.8904" width="23.1192" height="23.1192" fill="#ffffff"/><polygon points="99.59,568.89 111.15,568.89 111.15,580.4499999999999" fill="#f3ac68"/><g transform="translate(111.15,568.89) scale(0.5780000000000001) rotate(0)"><rect width="20" height="10" fill="#eaf2f3"/></g><polygon points="99.59,580.45 111.15,580.45 111.15,592.01" fill="#f3ab65"/><g transform="translate(111.15,580.45) scale(0.5780000000000001) rotate(0)"><rect width="20" height="10" fill="#f2a75e"/></g><rect x="124.2904" y="568.8904" width="23.1192" height="23.1192" fill="#ffffff"/><rect x="124.29" y="568.89" width="11.56" height="11.56" fill="#d5e5e8"/><polygon points="147.41,568.89 147.41,580.4499999999999 135.85,580.4499999999999" fill="#428997"/><polygon points="124.29,580.45 135.85,580.45 124.29,592.01" fill="#fef9f3"/><g transform="translate(135.85,580.45) scale(0.5780000000000001) rotate(0)"><rect width="20" height="10" fill="#edf4f5"/></g><rect x="173.6904" y="568.8904" width="23.1192" height="23.1192" fill="#ffffff"/><g transform="translate(173.69,568.89) scale(0.5780000000000001) rotate(0)"><rect width="20" height="10" fill="#f7c799"/></g><rect x="185.25" y="568.89" width="11.56" height="11.56" fill="#91bac2"/><polygon points="173.69,580.45 185.25,580.45 185.25,592.01" fill="#fefaf6"/><g transform="translate(185.25,580.45) scale(0.5780000000000001) rotate(0)"><rect width="20" height="10" fill="#b3d0d5"/></g><rect x="198.3904" y="568.8904" width="23.1192" height="23.1192" fill="#ffffff"/><rect x="198.39" y="568.89" width="11.56" height="11.56" fill="#f4b77b"/><polygon points="221.51,568.89 221.51,580.4499999999999 209.95,580.4499999999999" fill="#f2ab65"/><g transform="translate(209.95,580.45) scale(0.5780000000000001) rotate(0)"><rect width="20" height="10" fill="#fdf4ea"/></g><rect x="223.0904" y="568.8904" width="23.1192" height="23.1192" fill="#ffffff"/><polygon points="234.65,568.89 234.65,580.4499999999999 223.09,580.4499999999999" fill="#f8cea5"/><rect x="234.65" y="568.89" width="11.56" height="11.56" fill="#f3ab66"/><rect x="223.09" y="580.45" width="11.56" height="11.56" fill="#f4b77c"/><polygon points="234.65,580.45 246.21,592.01 234.65,592.01" fill="#6ba3ae"/><rect x="247.7904" y="568.8904" width="23.1192" height="23.1192" fill="#ffffff"/><rect x="247.79" y="568.89" width="11.56" height="11.56" fill="#f09b48"/><rect x="259.35" y="568.89" width="11.56" height="11.56" fill="#f6c08c"/><polygon points="270.91,580.45 270.91,592.01 259.35,592.01" fill="#fefbf8"/><rect x="272.49039999999997" y="568.8904" width="23.1192" height="23.1192" fill="#ffffff"/><g transform="translate(272.49,568.89) scale(0.5780000000000001) rotate(0)"><rect width="20" height="10" fill="#f5b97f"/></g><g transform="translate(284.05,568.89) scale(0.5780000000000001) rotate(0)"><rect width="20" height="10" fill="#f6fafa"/></g><g transform="translate(272.49,580.45) scale(0.5780000000000001) rotate(0)"><rect width="20" height="10" fill="#f09b48"/></g><rect x="284.05" y="580.45" width="11.56" height="11.56" fill="#f5be89"/><rect x="297.19039999999995" y="568.8904" width="23.1192" height="23.1192" fill="#ffffff"/><polygon points="320.31,568.89 320.31,580.4499999999999 308.75,580.4499999999999" fill="#d1e3e6"/><g transform="translate(297.19,580.45) scale(0.5780000000000001) rotate(0)"><rect width="20" height="10" fill="#fdf0e3"/></g><polygon points="308.75,580.45 320.31,580.45 320.31,592.01" fill="#f8cda4"/><rect x="321.89039999999994" y="568.8904" width="23.1192" height="23.1192" fill="#ffffff"/><rect x="321.89" y="568.89" width="11.56" height="11.56" fill="#f4b578"/><rect x="333.45" y="568.89" width="11.56" height="11.56" fill="#f9d5b2"/><g transform="translate(321.89,580.45) scale(0.5780000000000001) rotate(0)"><rect width="20" height="10" fill="#e4eef0"/></g><g transform="translate(333.45,580.45) scale(0.5780000000000001) rotate(0)"><rect width="20" height="10" fill="#f5bd87"/></g><rect x="346.5904" y="568.8904" width="23.1192" height="23.1192" fill="#ffffff"/><g transform="translate(346.59,568.89) scale(0.5780000000000001) rotate(0)"><rect width="20" height="10" fill="#f5bc86"/></g><rect x="346.59" y="580.45" width="11.56" height="11.56" fill="#f8cea5"/><g transform="translate(358.15,580.45) scale(0.5780000000000001) rotate(0)"><rect width="20" height="10" fill="#3f8895"/></g><rect x="0.39519999999999983" y="593.1952" width="23.9096" height="23.9096" fill="#ffffff"/><g transform="translate(0.4,593.2) scale(0.5974999999999999) rotate(0)"><rect width="20" height="10" fill="#f3ac67"/></g><rect x="12.35" y="593.2" width="11.95" height="11.95" fill="#fdf3e9"/><g transform="translate(0.4,605.15) scale(0.5974999999999999) rotate(0)"><rect width="20" height="10" fill="#f09741"/></g><rect x="12.35" y="605.15" width="11.95" height="11.95" fill="#f3b171"/><rect x="25.0952" y="593.1952" width="23.9096" height="23.9096" fill="#ffffff"/><rect x="25.1" y="593.2" width="11.95" height="11.95" fill="#f8d0a8"/><rect x="37.05" y="593.2" width="11.95" height="11.95" fill="#f5bb83"/><g transform="translate(25.1,605.15) scale(0.5974999999999999) rotate(0)"><rect width="20" height="10" fill="#8cb7c0"/></g><polygon points="37.05,605.15 49,605.15 37.05,617.1" fill="#f09843"/><rect x="49.7952" y="593.1952" width="23.9096" height="23.9096" fill="#ffffff"/><rect x="49.8" y="593.2" width="11.95" height="11.95" fill="#dbe8eb"/><polygon points="61.75,593.2 73.7,593.2 61.75,605.1500000000001" fill="#f3ab66"/><g transform="translate(49.8,605.15) scale(0.5974999999999999) rotate(0)"><rect width="20" height="10" fill="#fadec3"/></g><polygon points="61.75,605.15 73.7,605.15 73.7,617.1" fill="#edf4f5"/><rect x="74.4952" y="593.1952" width="23.9096" height="23.9096" fill="#ffffff"/><polygon points="74.5,593.2 86.45,593.2 86.45,605.1500000000001" fill="#5a99a4"/><g transform="translate(86.45,593.2) scale(0.5974999999999999) rotate(0)"><rect width="20" height="10" fill="#f6bf8a"/></g><g transform="translate(74.5,605.15) scale(0.5974999999999999) rotate(0)"><rect width="20" height="10" fill="#4f929e"/></g><rect x="99.1952" y="593.1952" width="23.9096" height="23.9096" fill="#ffffff"/><polygon points="111.15,593.2 111.15,605.1500000000001 99.2,605.1500000000001" fill="#78abb5"/><polygon points="111.15,593.2 123.10000000000001,593.2 111.15,605.1500000000001" fill="#5696a2"/><polygon points="111.15,605.15 111.15,617.1 99.2,617.1" fill="#c3dade"/><g transform="translate(111.15,605.15) scale(0.5974999999999999) rotate(0)"><rect width="20" height="10" fill="#fdf2e8"/></g><rect x="123.8952" y="593.1952" width="23.9096" height="23.9096" fill="#ffffff"/><g transform="translate(123.9,593.2) scale(0.5974999999999999) rotate(0)"><rect width="20" height="10" fill="#f2a65c"/></g><rect x="135.85" y="593.2" width="11.95" height="11.95" fill="#629da8"/><rect x="123.9" y="605.15" width="11.95" height="11.95" fill="#f5bc84"/><g transform="translate(135.85,605.15) scale(0.5974999999999999) rotate(0)"><rect width="20" height="10" fill="#e8f1f2"/></g><rect x="148.59519999999998" y="593.1952" width="23.9096" height="23.9096" fill="#ffffff"/><polygon points="148.6,593.2 160.54999999999998,593.2 148.6,605.1500000000001" fill="#cadee2"/><polygon points="160.55,593.2 172.5,605.1500000000001 160.55,605.1500000000001" fill="#f3b06f"/><g transform="translate(148.6,605.15) scale(0.5974999999999999) rotate(0)"><rect width="20" height="10" fill="#74a9b3"/></g><g transform="translate(160.55,605.15) scale(0.5974999999999999) rotate(0)"><rect width="20" height="10" fill="#96bec5"/></g><rect x="173.2952" y="593.1952" width="23.9096" height="23.9096" fill="#ffffff"/><g transform="translate(173.3,593.2) scale(0.5974999999999999) rotate(0)"><rect width="20" height="10" fill="#f2a65c"/></g><g transform="translate(185.25,593.2) scale(0.5974999999999999) rotate(0)"><rect width="20" height="10" fill="#f7c798"/></g><rect x="173.3" y="605.15" width="11.95" height="11.95" fill="#f8cda3"/><g transform="translate(185.25,605.15) scale(0.5974999999999999) rotate(0)"><rect width="20" height="10" fill="#fcead8"/></g><rect x="197.99519999999998" y="593.1952" width="23.9096" height="23.9096" fill="#ffffff"/><g transform="translate(198,593.2) scale(0.5974999999999999) rotate(0)"><rect width="20" height="10" fill="#d3e4e7"/></g><polygon points="209.95,593.2 221.89999999999998,593.2 209.95,605.1500000000001" fill="#6fa6b0"/><polygon points="198,605.15 209.95,605.15 198,617.1" fill="#fbe6d1"/><polygon points="209.95,605.15 221.89999999999998,617.1 209.95,617.1" fill="#87b4bd"/><rect x="222.69519999999997" y="593.1952" width="23.9096" height="23.9096" fill="#ffffff"/><g transform="translate(222.7,593.2) scale(0.5974999999999999) rotate(0)"><rect width="20" height="10" fill="#fdf1e6"/></g><rect x="234.65" y="593.2" width="11.95" height="11.95" fill="#619da8"/><polygon points="222.7,605.15 234.64999999999998,605.15 234.64999999999998,617.1" fill="#96bec5"/><g transform="translate(234.65,605.15) scale(0.5974999999999999) rotate(0)"><rect width="20" height="10" fill="#f4b87d"/></g><rect x="247.3952" y="593.1952" width="23.9096" height="23.9096" fill="#ffffff"/><g transform="translate(247.4,593.2) scale(0.5974999999999999) rotate(0)"><rect width="20" height="10" fill="#4d909d"/></g><g transform="translate(259.35,593.2) scale(0.5974999999999999) rotate(0)"><rect width="20" height="10" fill="#fbe4ce"/></g><g transform="translate(247.4,605.15) scale(0.5974999999999999) rotate(0)"><rect width="20" height="10" fill="#b4d0d6"/></g><rect x="259.35" y="605.15" width="11.95" height="11.95" fill="#5595a1"/><rect x="272.0952" y="593.1952" width="23.9096" height="23.9096" fill="#ffffff"/><rect x="272.1" y="593.2" width="11.95" height="11.95" fill="#e1edef"/><polygon points="296,593.2 296,605.1500000000001 284.05,605.1500000000001" fill="#fadcbf"/><g transform="translate(272.1,605.15) scale(0.5974999999999999) rotate(0)"><rect width="20" height="10" fill="#fbe7d3"/></g><polygon points="284.05,605.15 296,605.15 284.05,617.1" fill="#f8d1ab"/><rect x="321.49519999999995" y="593.1952" width="23.9096" height="23.9096" fill="#ffffff"/><rect x="321.5" y="593.2" width="11.95" height="11.95" fill="#4d919d"/><polygon points="345.4,593.2 345.4,605.1500000000001 333.45,605.1500000000001" fill="#dae8ea"/><g transform="translate(321.5,605.15) scale(0.5974999999999999) rotate(0)"><rect width="20" height="10" fill="#f09c4b"/></g><rect x="346.1952" y="593.1952" width="23.9096" height="23.9096" fill="#ffffff"/><g transform="translate(346.2,593.2) scale(0.5974999999999999) rotate(0)"><rect width="20" height="10" fill="#f3b06f"/></g><g transform="translate(358.15,593.2) scale(0.5974999999999999) rotate(0)"><rect width="20" height="10" fill="#f3f7f8"/></g><g transform="translate(346.2,605.15) scale(0.5974999999999999) rotate(0)"><rect width="20" height="10" fill="#82b1ba"/></g><rect x="358.15" y="605.15" width="11.95" height="11.95" fill="#fae0c7"/><rect x="0" y="617.5" width="24.7" height="24.7" fill="#ffffff"/><rect x="0" y="617.5" width="12.35" height="12.35" fill="#fcfdfd"/><g transform="translate(12.35,617.5) scale(0.6174999999999999) rotate(0)"><rect width="20" height="10" fill="#ef943d"/></g><g transform="translate(0,629.85) scale(0.6174999999999999) rotate(0)"><rect width="20" height="10" fill="#d5e5e8"/></g><g transform="translate(12.35,629.85) scale(0.6174999999999999) rotate(0)"><rect width="20" height="10" fill="#86b4bc"/></g><rect x="24.7" y="617.5" width="24.7" height="24.7" fill="#ffffff"/><rect x="24.7" y="617.5" width="12.35" height="12.35" fill="#f1a154"/><rect x="37.05" y="617.5" width="12.35" height="12.35" fill="#fcebdb"/><rect x="24.7" y="629.85" width="12.35" height="12.35" fill="#468c99"/><g transform="translate(37.05,629.85) scale(0.6174999999999999) rotate(0)"><rect width="20" height="10" fill="#c8dde1"/></g><rect x="49.4" y="617.5" width="24.7" height="24.7" fill="#ffffff"/><polygon points="49.4,617.5 61.75,617.5 49.4,629.85" fill="#ecf3f4"/><rect x="61.75" y="617.5" width="12.35" height="12.35" fill="#ef943c"/><polygon points="49.4,629.85 61.75,629.85 61.75,642.2" fill="#f1a358"/><rect x="61.75" y="629.85" width="12.35" height="12.35" fill="#fcead8"/><rect x="74.1" y="617.5" width="24.7" height="24.7" fill="#ffffff"/><polygon points="74.1,617.5 86.44999999999999,617.5 74.1,629.85" fill="#f5ba82"/><polygon points="86.45,617.5 98.8,629.85 86.45,629.85" fill="#629da8"/><rect x="74.1" y="629.85" width="12.35" height="12.35" fill="#4b8f9c"/><rect x="86.45" y="629.85" width="12.35" height="12.35" fill="#f7c799"/><rect x="98.8" y="617.5" width="24.7" height="24.7" fill="#ffffff"/><polygon points="98.8,617.5 111.14999999999999,617.5 111.14999999999999,629.85" fill="#e7f0f2"/><rect x="111.15" y="617.5" width="12.35" height="12.35" fill="#d4e5e8"/><rect x="98.8" y="629.85" width="12.35" height="12.35" fill="#5998a4"/><g transform="translate(111.15,629.85) scale(0.6174999999999999) rotate(0)"><rect width="20" height="10" fill="#f7fafb"/></g><rect x="123.5" y="617.5" width="24.7" height="24.7" fill="#ffffff"/><g transform="translate(123.5,617.5) scale(0.6174999999999999) rotate(0)"><rect width="20" height="10" fill="#bbd5d9"/></g><rect x="135.85" y="617.5" width="12.35" height="12.35" fill="#f5f9f9"/><polygon points="123.5,629.85 135.85,642.2 123.5,642.2" fill="#fce9d6"/><rect x="135.85" y="629.85" width="12.35" height="12.35" fill="#f4b578"/><rect x="148.2" y="617.5" width="24.7" height="24.7" fill="#ffffff"/><polygon points="148.2,617.5 160.54999999999998,629.85 148.2,629.85" fill="#f8cfa8"/><polygon points="160.55,617.5 172.9,617.5 172.9,629.85" fill="#d5e5e8"/><polygon points="148.2,629.85 160.54999999999998,642.2 148.2,642.2" fill="#a9c9d0"/><polygon points="160.55,629.85 172.9,629.85 160.55,642.2" fill="#fadcbf"/><rect x="172.9" y="617.5" width="24.7" height="24.7" fill="#ffffff"/><g transform="translate(172.9,617.5) scale(0.6174999999999999) rotate(0)"><rect width="20" height="10" fill="#a5c7ce"/></g><g transform="translate(185.25,617.5) scale(0.6174999999999999) rotate(0)"><rect width="20" height="10" fill="#89b6be"/></g><g transform="translate(172.9,629.85) scale(0.6174999999999999) rotate(0)"><rect width="20" height="10" fill="#fce9d7"/></g><g transform="translate(185.25,629.85) scale(0.6174999999999999) rotate(0)"><rect width="20" height="10" fill="#fceee0"/></g><rect x="197.6" y="617.5" width="24.7" height="24.7" fill="#ffffff"/><rect x="197.6" y="617.5" width="12.35" height="12.35" fill="#89b6be"/><rect x="209.95" y="617.5" width="12.35" height="12.35" fill="#f09945"/><rect x="197.6" y="629.85" width="12.35" height="12.35" fill="#fae0c6"/><g transform="translate(209.95,629.85) scale(0.6174999999999999) rotate(0)"><rect width="20" height="10" fill="#f2a75f"/></g><rect x="222.29999999999998" y="617.5" width="24.7" height="24.7" fill="#ffffff"/><polygon points="234.65,617.5 234.65,629.85 222.3,629.85" fill="#f1a256"/><g transform="translate(234.65,617.5) scale(0.6174999999999999) rotate(0)"><rect width="20" height="10" fill="#f4f8f9"/></g><rect x="222.3" y="629.85" width="12.35" height="12.35" fill="#f2a961"/><rect x="234.65" y="629.85" width="12.35" height="12.35" fill="#a8c9cf"/><rect x="247" y="617.5" width="24.7" height="24.7" fill="#ffffff"/><polygon points="247,617.5 259.35,617.5 247,629.85" fill="#74a9b2"/><polygon points="259.35,617.5 271.70000000000005,617.5 259.35,629.85" fill="#f4b375"/><rect x="247" y="629.85" width="12.35" height="12.35" fill="#9cc2c9"/><polygon points="259.35,629.85 271.70000000000005,642.2 259.35,642.2" fill="#68a1ac"/><rect x="271.7" y="617.5" width="24.7" height="24.7" fill="#ffffff"/><rect x="271.7" y="617.5" width="12.35" height="12.35" fill="#5998a4"/><g transform="translate(284.05,617.5) scale(0.6174999999999999) rotate(0)"><rect width="20" height="10" fill="#7eafb8"/></g><g transform="translate(271.7,629.85) scale(0.6174999999999999) rotate(0)"><rect width="20" height="10" fill="#f8d2ae"/></g><polygon points="284.05,629.85 296.40000000000003,629.85 296.40000000000003,642.2" fill="#6ca3ae"/><rect x="296.4" y="617.5" width="24.7" height="24.7" fill="#ffffff"/><polygon points="308.75,617.5 308.75,629.85 296.4,629.85" fill="#c1d9dd"/><rect x="308.75" y="617.5" width="12.35" height="12.35" fill="#fdf3e9"/><rect x="296.4" y="629.85" width="12.35" height="12.35" fill="#b9d4d9"/><polygon points="321.1,629.85 321.1,642.2 308.75,642.2" fill="#98bfc6"/><rect x="321.09999999999997" y="617.5" width="24.7" height="24.7" fill="#ffffff"/><polygon points="321.1,617.5 333.45000000000005,617.5 333.45000000000005,629.85" fill="#cfe1e4"/><polygon points="333.45,617.5 345.8,617.5 333.45,629.85" fill="#f9d8b8"/><g transform="translate(321.1,629.85) scale(0.6174999999999999) rotate(0)"><rect width="20" height="10" fill="#f6fafa"/></g><polygon points="333.45,629.85 345.8,642.2 333.45,642.2" fill="#5495a1"/><rect x="345.8" y="617.5" width="24.7" height="24.7" fill="#ffffff"/><rect x="345.8" y="617.5" width="12.35" height="12.35" fill="#f2f7f8"/><rect x="358.15" y="617.5" width="12.35" height="12.35" fill="#5394a0"/><g transform="translate(345.8,629.85) scale(0.6174999999999999) rotate(0)"><rect width="20" height="10" fill="#f5be88"/></g><rect x="358.15" y="629.85" width="12.35" height="12.35" fill="#7eafb8"/><rect x="0" y="642.1999999999999" width="24.7" height="24.7" fill="#ffffff"/><g transform="translate(0,642.2) scale(0.6174999999999999) rotate(0)"><rect width="20" height="10" fill="#ef953e"/></g><polygon points="12.35,642.2 24.7,654.5500000000001 12.35,654.5500000000001" fill="#faddc0"/><rect x="0" y="654.55" width="12.35" height="12.35" fill="#faddc0"/><rect x="12.35" y="654.55" width="12.35" height="12.35" fill="#80b0b9"/><rect x="24.7" y="642.1999999999999" width="24.7" height="24.7" fill="#ffffff"/><rect x="24.7" y="642.2" width="12.35" height="12.35" fill="#91bbc3"/><rect x="37.05" y="642.2" width="12.35" height="12.35" fill="#fbe4ce"/><polygon points="24.7,654.55 37.05,666.9 24.7,666.9" fill="#b4d1d6"/><polygon points="49.4,654.55 49.4,666.9 37.05,666.9" fill="#fffcfa"/><rect x="49.4" y="642.1999999999999" width="24.7" height="24.7" fill="#ffffff"/><rect x="49.4" y="642.2" width="12.35" height="12.35" fill="#fbe2c9"/><g transform="translate(61.75,642.2) scale(0.6174999999999999) rotate(0)"><rect width="20" height="10" fill="#5f9ca7"/></g><polygon points="49.4,654.55 61.75,654.55 61.75,666.9" fill="#e9f1f3"/><polygon points="61.75,654.55 74.1,666.9 61.75,666.9" fill="#f5bf8a"/><rect x="74.1" y="642.1999999999999" width="24.7" height="24.7" fill="#ffffff"/><g transform="translate(74.1,642.2) scale(0.6174999999999999) rotate(0)"><rect width="20" height="10" fill="#b3d0d5"/></g><g transform="translate(86.45,642.2) scale(0.6174999999999999) rotate(0)"><rect width="20" height="10" fill="#fcebdb"/></g><g transform="translate(74.1,654.55) scale(0.6174999999999999) rotate(0)"><rect width="20" height="10" fill="#f5be89"/></g><g transform="translate(86.45,654.55) scale(0.6174999999999999) rotate(0)"><rect width="20" height="10" fill="#fef6ef"/></g><rect x="98.8" y="642.1999999999999" width="24.7" height="24.7" fill="#ffffff"/><rect x="98.8" y="642.2" width="12.35" height="12.35" fill="#5797a3"/><rect x="111.15" y="642.2" width="12.35" height="12.35" fill="#a5c7ce"/><rect x="98.8" y="654.55" width="12.35" height="12.35" fill="#f2a55b"/><polygon points="111.15,654.55 123.5,666.9 111.15,666.9" fill="#f2a75e"/><rect x="123.5" y="642.1999999999999" width="24.7" height="24.7" fill="#ffffff"/><g transform="translate(123.5,642.2) scale(0.6174999999999999) rotate(0)"><rect width="20" height="10" fill="#5d9ba6"/></g><rect x="135.85" y="642.2" width="12.35" height="12.35" fill="#e4eef0"/><rect x="123.5" y="654.55" width="12.35" height="12.35" fill="#ef953d"/><polygon points="148.2,654.55 148.2,666.9 135.85,666.9" fill="#5a99a4"/><rect x="148.2" y="642.1999999999999" width="24.7" height="24.7" fill="#ffffff"/><rect x="148.2" y="642.2" width="12.35" height="12.35" fill="#fbe5cf"/><rect x="160.55" y="642.2" width="12.35" height="12.35" fill="#f8d2ad"/><g transform="translate(148.2,654.55) scale(0.6174999999999999) rotate(0)"><rect width="20" height="10" fill="#e1ecee"/></g><polygon points="160.55,654.55 172.9,654.55 160.55,666.9" fill="#8ab7bf"/><rect x="172.9" y="642.1999999999999" width="24.7" height="24.7" fill="#ffffff"/><g transform="translate(172.9,642.2) scale(0.6174999999999999) rotate(0)"><rect width="20" height="10" fill="#3d8794"/></g><rect x="185.25" y="642.2" width="12.35" height="12.35" fill="#8eb9c1"/><polygon points="172.9,654.55 185.25,666.9 172.9,666.9" fill="#8bb7bf"/><polygon points="197.6,654.55 197.6,666.9 185.25,666.9" fill="#f7c99c"/><rect x="197.6" y="642.1999999999999" width="24.7" height="24.7" fill="#ffffff"/><rect x="197.6" y="642.2" width="12.35" height="12.35" fill="#f09c4a"/><g transform="translate(209.95,642.2) scale(0.6174999999999999) rotate(0)"><rect width="20" height="10" fill="#619da8"/></g><rect x="197.6" y="654.55" width="12.35" height="12.35" fill="#f09c4a"/><g transform="translate(209.95,654.55) scale(0.6174999999999999) rotate(0)"><rect width="20" height="10" fill="#fefaf5"/></g><rect x="222.29999999999998" y="642.1999999999999" width="24.7" height="24.7" fill="#ffffff"/><rect x="222.3" y="642.2" width="12.35" height="12.35" fill="#f5be89"/><polygon points="234.65,642.2 247,654.5500000000001 234.65,654.5500000000001" fill="#fffcf9"/><g transform="translate(222.3,654.55) scale(0.6174999999999999) rotate(0)"><rect width="20" height="10" fill="#fcebda"/></g><g transform="translate(234.65,654.55) scale(0.6174999999999999) rotate(0)"><rect width="20" height="10" fill="#78abb5"/></g><rect x="247" y="642.1999999999999" width="24.7" height="24.7" fill="#ffffff"/><g transform="translate(247,642.2) scale(0.6174999999999999) rotate(0)"><rect width="20" height="10" fill="#f09b48"/></g><polygon points="271.70000000000005,642.2 271.70000000000005,654.5500000000001 259.35,654.5500000000001" fill="#77abb4"/><g transform="translate(247,654.55) scale(0.6174999999999999) rotate(0)"><rect width="20" height="10" fill="#fbe2cb"/></g><polygon points="259.35,654.55 271.70000000000005,666.9 259.35,666.9" fill="#8ab6be"/><rect x="271.7" y="642.1999999999999" width="24.7" height="24.7" fill="#ffffff"/><polygon points="271.7,642.2 284.05,654.5500000000001 271.7,654.5500000000001" fill="#d8e7ea"/><rect x="284.05" y="642.2" width="12.35" height="12.35" fill="#f5bf89"/><g transform="translate(271.7,654.55) scale(0.6174999999999999) rotate(0)"><rect width="20" height="10" fill="#f6c18d"/></g><g transform="translate(284.05,654.55) scale(0.6174999999999999) rotate(0)"><rect width="20" height="10" fill="#f7c89c"/></g><rect x="296.4" y="642.1999999999999" width="24.7" height="24.7" fill="#ffffff"/><rect x="296.4" y="642.2" width="12.35" height="12.35" fill="#f4b578"/><polygon points="308.75,642.2 321.1,642.2 308.75,654.5500000000001" fill="#fdf1e5"/><g transform="translate(296.4,654.55) scale(0.6174999999999999) rotate(0)"><rect width="20" height="10" fill="#afcdd3"/></g><rect x="308.75" y="654.55" width="12.35" height="12.35" fill="#ef943c"/><rect x="321.09999999999997" y="642.1999999999999" width="24.7" height="24.7" fill="#ffffff"/><rect x="321.1" y="642.2" width="12.35" height="12.35" fill="#aacad0"/><rect x="333.45" y="642.2" width="12.35" height="12.35" fill="#f4b476"/><rect x="321.1" y="654.55" width="12.35" height="12.35" fill="#f4b373"/><polygon points="345.8,654.55 345.8,666.9 333.45,666.9" fill="#f9d9b9"/><rect x="345.8" y="642.1999999999999" width="24.7" height="24.7" fill="#ffffff"/><polygon points="345.8,642.2 358.15000000000003,642.2 358.15000000000003,654.5500000000001" fill="#e1ecee"/><polygon points="358.15,642.2 370.5,654.5500000000001 358.15,654.5500000000001" fill="#f3b171"/><polygon points="358.15000000000003,654.55 358.15000000000003,666.9 345.8,666.9" fill="#92bbc3"/><polygon points="358.15,654.55 370.5,666.9 358.15,666.9" fill="#f09945"/><rect x="0" y="666.9" width="24.7" height="24.7" fill="#ffffff"/><polygon points="12.35,666.9 12.35,679.25 0,679.25" fill="#f2a962"/><rect x="12.35" y="666.9" width="12.35" height="12.35" fill="#f5bb83"/><g transform="translate(0,679.25) scale(0.6174999999999999) rotate(0)"><rect width="20" height="10" fill="#fef8f3"/></g><polygon points="24.7,679.25 24.7,691.6 12.35,691.6" fill="#a8c9cf"/><rect x="24.7" y="666.9" width="24.7" height="24.7" fill="#ffffff"/><g transform="translate(24.7,666.9) scale(0.6174999999999999) rotate(0)"><rect width="20" height="10" fill="#498e9b"/></g><rect x="37.05" y="666.9" width="12.35" height="12.35" fill="#f4b477"/><rect x="24.7" y="679.25" width="12.35" height="12.35" fill="#fef8f3"/><polygon points="37.05,679.25 49.4,691.6 37.05,691.6" fill="#fffefd"/><rect x="49.4" y="666.9" width="24.7" height="24.7" fill="#ffffff"/><g transform="translate(49.4,666.9) scale(0.6174999999999999) rotate(0)"><rect width="20" height="10" fill="#fdf2e7"/></g><g transform="translate(61.75,666.9) scale(0.6174999999999999) rotate(0)"><rect width="20" height="10" fill="#f9fcfc"/></g><g transform="translate(49.4,679.25) scale(0.6174999999999999) rotate(0)"><rect width="20" height="10" fill="#fcedde"/></g><polygon points="61.75,679.25 74.1,679.25 61.75,691.6" fill="#f5bd87"/><rect x="74.1" y="666.9" width="24.7" height="24.7" fill="#ffffff"/><polygon points="74.1,666.9 86.44999999999999,666.9 74.1,679.25" fill="#f4b476"/><rect x="86.45" y="666.9" width="12.35" height="12.35" fill="#f4b374"/><polygon points="74.1,679.25 86.44999999999999,679.25 86.44999999999999,691.6" fill="#92bbc3"/><rect x="86.45" y="679.25" width="12.35" height="12.35" fill="#fffdfc"/><rect x="98.8" y="666.9" width="24.7" height="24.7" fill="#ffffff"/><g transform="translate(98.8,666.9) scale(0.6174999999999999) rotate(0)"><rect width="20" height="10" fill="#f2a861"/></g><rect x="111.15" y="666.9" width="12.35" height="12.35" fill="#f4b374"/><g transform="translate(98.8,679.25) scale(0.6174999999999999) rotate(0)"><rect width="20" height="10" fill="#e6f0f1"/></g><g transform="translate(111.15,679.25) scale(0.6174999999999999) rotate(0)"><rect width="20" height="10" fill="#5696a2"/></g><rect x="123.5" y="666.9" width="24.7" height="24.7" fill="#ffffff"/><polygon points="135.85,666.9 135.85,679.25 123.5,679.25" fill="#a2c5cc"/><g transform="translate(135.85,666.9) scale(0.6174999999999999) rotate(0)"><rect width="20" height="10" fill="#7daeb8"/></g><g transform="translate(123.5,679.25) scale(0.6174999999999999) rotate(0)"><rect width="20" height="10" fill="#b1ced4"/></g><g transform="translate(135.85,679.25) scale(0.6174999999999999) rotate(0)"><rect width="20" height="10" fill="#5a99a4"/></g><rect x="148.2" y="666.9" width="24.7" height="24.7" fill="#ffffff"/><polygon points="160.54999999999998,666.9 160.54999999999998,679.25 148.2,679.25" fill="#aacad0"/><rect x="160.55" y="666.9" width="12.35" height="12.35" fill="#f09b48"/><g transform="translate(148.2,679.25) scale(0.6174999999999999) rotate(0)"><rect width="20" height="10" fill="#f09a47"/></g><rect x="160.55" y="679.25" width="12.35" height="12.35" fill="#f0f6f7"/><rect x="172.9" y="666.9" width="24.7" height="24.7" fill="#ffffff"/><polygon points="172.9,666.9 185.25,666.9 185.25,679.25" fill="#c6dbe0"/><polygon points="185.25,666.9 197.6,666.9 185.25,679.25" fill="#68a1ac"/><rect x="172.9" y="679.25" width="12.35" height="12.35" fill="#cde0e3"/><g transform="translate(185.25,679.25) scale(0.6174999999999999) rotate(0)"><rect width="20" height="10" fill="#7caeb7"/></g><rect x="197.6" y="666.9" width="24.7" height="24.7" fill="#ffffff"/><polygon points="197.6,666.9 209.95,666.9 197.6,679.25" fill="#f4b476"/><rect x="209.95" y="666.9" width="12.35" height="12.35" fill="#d0e2e5"/><g transform="translate(197.6,679.25) scale(0.6174999999999999) rotate(0)"><rect width="20" height="10" fill="#fadfc5"/></g><g transform="translate(209.95,679.25) scale(0.6174999999999999) rotate(0)"><rect width="20" height="10" fill="#8fbac1"/></g><rect x="222.29999999999998" y="666.9" width="24.7" height="24.7" fill="#ffffff"/><rect x="222.3" y="666.9" width="12.35" height="12.35" fill="#fbe1c9"/><g transform="translate(234.65,666.9) scale(0.6174999999999999) rotate(0)"><rect width="20" height="10" fill="#f8cea6"/></g><rect x="222.3" y="679.25" width="12.35" height="12.35" fill="#f7cba0"/><g transform="translate(234.65,679.25) scale(0.6174999999999999) rotate(0)"><rect width="20" height="10" fill="#fadbbd"/></g><rect x="247" y="666.9" width="24.7" height="24.7" fill="#ffffff"/><rect x="247" y="666.9" width="12.35" height="12.35" fill="#fcebda"/><rect x="259.35" y="666.9" width="12.35" height="12.35" fill="#fdf0e4"/><g transform="translate(247,679.25) scale(0.6174999999999999) rotate(0)"><rect width="20" height="10" fill="#fae0c6"/></g><rect x="259.35" y="679.25" width="12.35" height="12.35" fill="#fadcbf"/><rect x="271.7" y="666.9" width="24.7" height="24.7" fill="#ffffff"/><polygon points="284.05,666.9 284.05,679.25 271.7,679.25" fill="#a4c7cd"/><polygon points="284.05,666.9 296.40000000000003,679.25 284.05,679.25" fill="#80b0b9"/><rect x="271.7" y="679.25" width="12.35" height="12.35" fill="#8db8c0"/><polygon points="296.40000000000003,679.25 296.40000000000003,691.6 284.05,691.6" fill="#ffffff"/><rect x="296.4" y="666.9" width="24.7" height="24.7" fill="#ffffff"/><g transform="translate(296.4,666.9) scale(0.6174999999999999) rotate(0)"><rect width="20" height="10" fill="#b6d2d7"/></g><rect x="308.75" y="666.9" width="12.35" height="12.35" fill="#f9d4b0"/><rect x="296.4" y="679.25" width="12.35" height="12.35" fill="#fce9d6"/><polygon points="308.75,679.25 321.1,679.25 308.75,691.6" fill="#f2a65d"/><rect x="321.09999999999997" y="666.9" width="24.7" height="24.7" fill="#ffffff"/><polygon points="333.45000000000005,666.9 333.45000000000005,679.25 321.1,679.25" fill="#f1a357"/><rect x="333.45" y="666.9" width="12.35" height="12.35" fill="#f4b273"/><g transform="translate(321.1,679.25) scale(0.6174999999999999) rotate(0)"><rect width="20" height="10" fill="#f9d6b4"/></g><g transform="translate(333.45,679.25) scale(0.6174999999999999) rotate(0)"><rect width="20" height="10" fill="#d5e5e8"/></g><rect x="345.8" y="666.9" width="24.7" height="24.7" fill="#ffffff"/><rect x="345.8" y="666.9" width="12.35" height="12.35" fill="#5495a1"/><g transform="translate(358.15,666.9) scale(0.6174999999999999) rotate(0)"><rect width="20" height="10" fill="#f9d5b3"/></g><polygon points="345.8,679.25 358.15000000000003,679.25 345.8,691.6" fill="#f7c89a"/><g transform="translate(358.15,679.25) scale(0.6174999999999999) rotate(0)"><rect width="20" height="10" fill="#f4b67a"/></g><rect x="0" y="691.6" width="24.7" height="24.7" fill="#ffffff"/><g transform="translate(0,691.6) scale(0.6174999999999999) rotate(0)"><rect width="20" height="10" fill="#f3ab66"/></g><rect x="12.35" y="691.6" width="12.35" height="12.35" fill="#d6e6e9"/><polygon points="0,703.95 12.35,716.3000000000001 0,716.3000000000001" fill="#fceada"/><rect x="12.35" y="703.95" width="12.35" height="12.35" fill="#9dc2c9"/><rect x="24.7" y="691.6" width="24.7" height="24.7" fill="#ffffff"/><rect x="24.7" y="691.6" width="12.35" height="12.35" fill="#f09a46"/><rect x="37.05" y="691.6" width="12.35" height="12.35" fill="#fbe3cb"/><g transform="translate(24.7,703.95) scale(0.6174999999999999) rotate(0)"><rect width="20" height="10" fill="#99bfc7"/></g><polygon points="37.05,703.95 49.4,716.3000000000001 37.05,716.3000000000001" fill="#f9d8b7"/><rect x="49.4" y="691.6" width="24.7" height="24.7" fill="#ffffff"/><polygon points="49.4,691.6 61.75,691.6 61.75,703.95" fill="#e1ecee"/><g transform="translate(61.75,691.6) scale(0.6174999999999999) rotate(0)"><rect width="20" height="10" fill="#fbe7d4"/></g><polygon points="49.4,703.95 61.75,716.3000000000001 49.4,716.3000000000001" fill="#92bbc3"/><rect x="61.75" y="703.95" width="12.35" height="12.35" fill="#8bb7bf"/><rect x="74.1" y="691.6" width="24.7" height="24.7" fill="#ffffff"/><g transform="translate(74.1,691.6) scale(0.6174999999999999) rotate(0)"><rect width="20" height="10" fill="#5d9aa6"/></g><g transform="translate(86.45,691.6) scale(0.6174999999999999) rotate(0)"><rect width="20" height="10" fill="#6da4af"/></g><polygon points="86.44999999999999,703.95 86.44999999999999,716.3000000000001 74.1,716.3000000000001" fill="#73a8b2"/><polygon points="86.45,703.95 98.8,703.95 98.8,716.3000000000001" fill="#f6c08c"/><rect x="98.8" y="691.6" width="24.7" height="24.7" fill="#ffffff"/><g transform="translate(98.8,691.6) scale(0.6174999999999999) rotate(0)"><rect width="20" height="10" fill="#6aa2ad"/></g><g transform="translate(111.15,691.6) scale(0.6174999999999999) rotate(0)"><rect width="20" height="10" fill="#f1a255"/></g><rect x="98.8" y="703.95" width="12.35" height="12.35" fill="#c6dce0"/><rect x="111.15" y="703.95" width="12.35" height="12.35" fill="#3a8492"/><rect x="123.5" y="691.6" width="24.7" height="24.7" fill="#ffffff"/><g transform="translate(123.5,691.6) scale(0.6174999999999999) rotate(0)"><rect width="20" height="10" fill="#bed7db"/></g><g transform="translate(135.85,691.6) scale(0.6174999999999999) rotate(0)"><rect width="20" height="10" fill="#e5eff1"/></g><polygon points="135.85,703.95 135.85,716.3000000000001 123.5,716.3000000000001" fill="#fffdfc"/><polygon points="135.85,703.95 148.2,716.3000000000001 135.85,716.3000000000001" fill="#b2cfd4"/><rect x="148.2" y="691.6" width="24.7" height="24.7" fill="#ffffff"/><g transform="translate(148.2,691.6) scale(0.6174999999999999) rotate(0)"><rect width="20" height="10" fill="#b8d3d8"/></g><rect x="160.55" y="691.6" width="12.35" height="12.35" fill="#f0f6f7"/><rect x="148.2" y="703.95" width="12.35" height="12.35" fill="#f6c28f"/><rect x="160.55" y="703.95" width="12.35" height="12.35" fill="#fadfc4"/><rect x="172.9" y="691.6" width="24.7" height="24.7" fill="#ffffff"/><polygon points="172.9,691.6 185.25,691.6 172.9,703.95" fill="#7eafb8"/><rect x="185.25" y="691.6" width="12.35" height="12.35" fill="#5c9aa5"/><polygon points="172.9,703.95 185.25,716.3000000000001 172.9,716.3000000000001" fill="#478d9a"/><g transform="translate(185.25,703.95) scale(0.6174999999999999) rotate(0)"><rect width="20" height="10" fill="#f3af6d"/></g><rect x="197.6" y="691.6" width="24.7" height="24.7" fill="#ffffff"/><g transform="translate(197.6,691.6) scale(0.6174999999999999) rotate(0)"><rect width="20" height="10" fill="#faddc0"/></g><rect x="209.95" y="691.6" width="12.35" height="12.35" fill="#9fc4ca"/><polygon points="197.6,703.95 209.95,703.95 197.6,716.3000000000001" fill="#f09944"/><g transform="translate(209.95,703.95) scale(0.6174999999999999) rotate(0)"><rect width="20" height="10" fill="#afcdd3"/></g><rect x="222.29999999999998" y="691.6" width="24.7" height="24.7" fill="#ffffff"/><polygon points="234.65,691.6 234.65,703.95 222.3,703.95" fill="#fefaf6"/><rect x="234.65" y="691.6" width="12.35" height="12.35" fill="#f4b272"/><polygon points="222.3,703.95 234.65,703.95 222.3,716.3000000000001" fill="#6ea5af"/><polygon points="234.65,703.95 247,703.95 234.65,716.3000000000001" fill="#f8cfa7"/><rect x="247" y="691.6" width="24.7" height="24.7" fill="#ffffff"/><g transform="translate(247,691.6) scale(0.6174999999999999) rotate(0)"><rect width="20" height="10" fill="#ef9640"/></g><rect x="259.35" y="691.6" width="12.35" height="12.35" fill="#f6c290"/><rect x="247" y="703.95" width="12.35" height="12.35" fill="#f5ba81"/><rect x="259.35" y="703.95" width="12.35" height="12.35" fill="#e9f1f3"/><rect x="271.7" y="691.6" width="24.7" height="24.7" fill="#ffffff"/><polygon points="271.7,691.6 284.05,703.95 271.7,703.95" fill="#4a8e9b"/><polygon points="284.05,691.6 296.40000000000003,703.95 284.05,703.95" fill="#f4b273"/><rect x="271.7" y="703.95" width="12.35" height="12.35" fill="#6ca3ae"/><polygon points="284.05,703.95 296.40000000000003,716.3000000000001 284.05,716.3000000000001" fill="#448b98"/><rect x="296.4" y="691.6" width="24.7" height="24.7" fill="#ffffff"/><g transform="translate(296.4,691.6) scale(0.6174999999999999) rotate(0)"><rect width="20" height="10" fill="#a1c5cc"/></g><g transform="translate(308.75,691.6) scale(0.6174999999999999) rotate(0)"><rect width="20" height="10" fill="#d2e3e6"/></g><g transform="translate(296.4,703.95) scale(0.6174999999999999) rotate(0)"><rect width="20" height="10" fill="#f1a357"/></g><polygon points="321.1,703.95 321.1,716.3000000000001 308.75,716.3000000000001" fill="#f9d9b9"/><rect x="321.09999999999997" y="691.6" width="24.7" height="24.7" fill="#ffffff"/><rect x="321.1" y="691.6" width="12.35" height="12.35" fill="#f7cba1"/><rect x="333.45" y="691.6" width="12.35" height="12.35" fill="#fcecdd"/><polygon points="333.45000000000005,703.95 333.45000000000005,716.3000000000001 321.1,716.3000000000001" fill="#9fc4ca"/><polygon points="333.45,703.95 345.8,703.95 333.45,716.3000000000001" fill="#fcebdb"/><rect x="345.8" y="691.6" width="24.7" height="24.7" fill="#ffffff"/><polygon points="345.8,691.6 358.15000000000003,703.95 345.8,703.95" fill="#b1ced4"/><polygon points="370.5,691.6 370.5,703.95 358.15,703.95" fill="#f5ba82"/><rect x="345.8" y="703.95" width="12.35" height="12.35" fill="#6ca4ae"/><polygon points="358.15,703.95 370.5,716.3000000000001 358.15,716.3000000000001" fill="#fef8f2"/><rect x="0" y="716.3" width="24.7" height="24.7" fill="#ffffff"/><polygon points="0,716.3 12.35,728.65 0,728.65" fill="#f5bc84"/><polygon points="12.35,716.3 24.7,716.3 24.7,728.65" fill="#fdefe2"/><rect x="0" y="728.65" width="12.35" height="12.35" fill="#f2a860"/><g transform="translate(12.35,728.65) scale(0.6174999999999999) rotate(0)"><rect width="20" height="10" fill="#fef5ed"/></g><rect x="24.7" y="716.3" width="24.7" height="24.7" fill="#ffffff"/><g transform="translate(24.7,716.3) scale(0.6174999999999999) rotate(0)"><rect width="20" height="10" fill="#fceee0"/></g><rect x="37.05" y="716.3" width="12.35" height="12.35" fill="#fadbbe"/><polygon points="24.7,728.65 37.05,728.65 24.7,741" fill="#fcebdb"/><g transform="translate(37.05,728.65) scale(0.6174999999999999) rotate(0)"><rect width="20" height="10" fill="#cee0e4"/></g><rect x="49.4" y="716.3" width="24.7" height="24.7" fill="#ffffff"/><g transform="translate(49.4,716.3) scale(0.6174999999999999) rotate(0)"><rect width="20" height="10" fill="#fdf5ec"/></g><polygon points="61.75,716.3 74.1,716.3 61.75,728.65" fill="#f3ab66"/><rect x="49.4" y="728.65" width="12.35" height="12.35" fill="#3c8693"/><polygon points="61.75,728.65 74.1,741 61.75,741" fill="#edf4f5"/><rect x="74.1" y="716.3" width="24.7" height="24.7" fill="#ffffff"/><polygon points="74.1,716.3 86.44999999999999,728.65 74.1,728.65" fill="#97bfc6"/><polygon points="86.45,716.3 98.8,716.3 86.45,728.65" fill="#f4b578"/><g transform="translate(74.1,728.65) scale(0.6174999999999999) rotate(0)"><rect width="20" height="10" fill="#fce8d4"/></g><polygon points="98.8,728.65 98.8,741 86.45,741" fill="#5d9aa6"/><rect x="98.8" y="716.3" width="24.7" height="24.7" fill="#ffffff"/><rect x="98.8" y="716.3" width="12.35" height="12.35" fill="#f8cda3"/><g transform="translate(111.15,716.3) scale(0.6174999999999999) rotate(0)"><rect width="20" height="10" fill="#d6e5e8"/></g><g transform="translate(98.8,728.65) scale(0.6174999999999999) rotate(0)"><rect width="20" height="10" fill="#fadbbe"/></g><rect x="111.15" y="728.65" width="12.35" height="12.35" fill="#93bcc4"/><rect x="123.5" y="716.3" width="24.7" height="24.7" fill="#ffffff"/><polygon points="135.85,716.3 135.85,728.65 123.5,728.65" fill="#bfd8dc"/><polygon points="135.85,716.3 148.2,728.65 135.85,728.65" fill="#fadfc5"/><polygon points="123.5,728.65 135.85,728.65 135.85,741" fill="#f3f8f9"/><g transform="translate(135.85,728.65) scale(0.6174999999999999) rotate(0)"><rect width="20" height="10" fill="#f09c4b"/></g><rect x="148.2" y="716.3" width="24.7" height="24.7" fill="#ffffff"/><g transform="translate(148.2,716.3) scale(0.6174999999999999) rotate(0)"><rect width="20" height="10" fill="#fefaf6"/></g><rect x="160.55" y="716.3" width="12.35" height="12.35" fill="#b8d3d8"/><polygon points="148.2,728.65 160.54999999999998,741 148.2,741" fill="#70a6b0"/><rect x="160.55" y="728.65" width="12.35" height="12.35" fill="#b9d3d8"/><rect x="172.9" y="716.3" width="24.7" height="24.7" fill="#ffffff"/><polygon points="172.9,716.3 185.25,716.3 172.9,728.65" fill="#f3ae6b"/><rect x="185.25" y="716.3" width="12.35" height="12.35" fill="#acccd1"/><polygon points="172.9,728.65 185.25,728.65 172.9,741" fill="#f1a255"/><polygon points="185.25,728.65 197.6,728.65 185.25,741" fill="#5998a4"/><rect x="197.6" y="716.3" width="24.7" height="24.7" fill="#ffffff"/><g transform="translate(197.6,716.3) scale(0.6174999999999999) rotate(0)"><rect width="20" height="10" fill="#ccdfe3"/></g><rect x="209.95" y="716.3" width="12.35" height="12.35" fill="#f8cda5"/><g transform="translate(197.6,728.65) scale(0.6174999999999999) rotate(0)"><rect width="20" height="10" fill="#8ab6be"/></g><g transform="translate(209.95,728.65) scale(0.6174999999999999) rotate(0)"><rect width="20" height="10" fill="#f7c99d"/></g><rect x="222.29999999999998" y="716.3" width="24.7" height="24.7" fill="#ffffff"/><polygon points="234.65,716.3 234.65,728.65 222.3,728.65" fill="#c1d8dd"/><polygon points="234.65,716.3 247,716.3 247,728.65" fill="#b4d0d6"/><polygon points="234.65,728.65 234.65,741 222.3,741" fill="#c2d9dd"/><polygon points="247,728.65 247,741 234.65,741" fill="#dce9ec"/><rect x="247" y="716.3" width="24.7" height="24.7" fill="#ffffff"/><rect x="247" y="716.3" width="12.35" height="12.35" fill="#ef953e"/><g transform="translate(259.35,716.3) scale(0.6174999999999999) rotate(0)"><rect width="20" height="10" fill="#fdeee1"/></g><g transform="translate(247,728.65) scale(0.6174999999999999) rotate(0)"><rect width="20" height="10" fill="#f8cfa7"/></g><polygon points="259.35,728.65 271.70000000000005,728.65 259.35,741" fill="#6ea5af"/><rect x="271.7" y="716.3" width="24.7" height="24.7" fill="#ffffff"/><rect x="271.7" y="716.3" width="12.35" height="12.35" fill="#f09843"/><polygon points="284.05,716.3 296.40000000000003,716.3 296.40000000000003,728.65" fill="#6aa2ad"/><g transform="translate(271.7,728.65) scale(0.6174999999999999) rotate(0)"><rect width="20" height="10" fill="#3f8895"/></g><polygon points="284.05,728.65 296.40000000000003,728.65 296.40000000000003,741" fill="#fbe2cb"/><rect x="296.4" y="716.3" width="24.7" height="24.7" fill="#ffffff"/><g transform="translate(296.4,716.3) scale(0.6174999999999999) rotate(0)"><rect width="20" height="10" fill="#fbe4cd"/></g><polygon points="308.75,716.3 321.1,716.3 308.75,728.65" fill="#9fc3ca"/><polygon points="308.75,728.65 308.75,741 296.4,741" fill="#fffcfa"/><polygon points="308.75,728.65 321.1,741 308.75,741" fill="#fcecdd"/><rect x="321.09999999999997" y="716.3" width="24.7" height="24.7" fill="#ffffff"/><g transform="translate(321.1,716.3) scale(0.6174999999999999) rotate(0)"><rect width="20" height="10" fill="#f5bf89"/></g><g transform="translate(333.45,716.3) scale(0.6174999999999999) rotate(0)"><rect width="20" height="10" fill="#fffdfb"/></g><g transform="translate(321.1,728.65) scale(0.6174999999999999) rotate(0)"><rect width="20" height="10" fill="#fbe4cd"/></g><g transform="translate(333.45,728.65) scale(0.6174999999999999) rotate(0)"><rect width="20" height="10" fill="#f7c697"/></g><rect x="345.8" y="716.3" width="24.7" height="24.7" fill="#ffffff"/><polygon points="345.8,716.3 358.15000000000003,716.3 345.8,728.65" fill="#71a7b1"/><polygon points="358.15,716.3 370.5,728.65 358.15,728.65" fill="#e5eff1"/><rect x="345.8" y="728.65" width="12.35" height="12.35" fill="#f7ca9e"/><g transform="translate(358.15,728.65) scale(0.6174999999999999) rotate(0)"><rect width="20" height="10" fill="#82b1ba"/></g></g></svg>