<?xml version="1.0" standalone="no"?><svg xmlns:xlink="http://www.w3.org/1999/xlink" xmlns="http://www.w3.org/2000/svg" viewBox="0 0 1000 333.3298013245033" preserveAspectRatio="xMaxYMax slice"><g transform="scale(0.6622516556291391)"><rect x="0" y="0" width="1510" height="503.33333333333337" fill="#ffffff"/><rect x="30.60266666666667" y="131.26933333333335" width="39.46133333333333" height="39.46133333333333" fill="#ffffff"/><polygon points="50.33,131.27 70.06,151 50.33,151" fill="#5c9aa5"/><rect x="332.60266666666666" y="131.26933333333335" width="39.46133333333333" height="39.46133333333333" fill="#ffffff"/><rect x="634.6026666666667" y="131.26933333333335" width="39.46133333333333" height="39.46133333333333" fill="#ffffff"/><polygon points="654.33,151 674.0600000000001,170.73 654.33,170.73" fill="#f2aa65"/><rect x="835.936" y="131.26933333333335" width="39.46133333333333" height="39.46133333333333" fill="#ffffff"/><rect x="835.94" y="131.27" width="19.73" height="19.73" fill="#9bc1c8"/><rect x="1037.2693333333334" y="131.26933333333335" width="39.46133333333333" height="39.46133333333333" fill="#ffffff"/><polygon points="1037.27,131.27 1057,131.27 1037.27,151" fill="#5696a2"/><rect x="423.60533333333336" y="222.27200000000002" width="58.78933333333333" height="58.78933333333333" fill="#ffffff"/><rect x="423.61" y="222.27" width="29.39" height="29.39" fill="#f09c4b"/><polygon points="423.61,251.67 453,251.67 453,281.06" fill="#f5bf8a"/><rect x="725.6053333333334" y="222.27200000000002" width="58.78933333333333" height="58.78933333333333" fill="#ffffff"/><polygon points="725.61,222.27 755,222.27 755,251.66000000000003" fill="#448b98"/><g transform="translate(725.61,251.67) scale(1.4695) rotate(0)"><rect width="20" height="10" fill="#f4b77c"/></g><rect x="826.272" y="222.27200000000002" width="58.78933333333333" height="58.78933333333333" fill="#ffffff"/><rect x="826.27" y="251.67" width="29.39" height="29.39" fill="#5b99a4"/><g transform="translate(855.67,251.67) scale(1.4695) rotate(0)"><rect width="20" height="10" fill="#faddc2"/></g><rect x="926.9386666666667" y="222.27200000000002" width="58.78933333333333" height="58.78933333333333" fill="#ffffff"/><g transform="translate(926.94,222.27) scale(1.4695) rotate(0)"><rect width="20" height="10" fill="#cee1e4"/></g><rect x="956.33" y="222.27" width="29.39" height="29.39" fill="#fceee0"/><g transform="translate(926.94,251.67) scale(1.4695) rotate(0)"><rect width="20" height="10" fill="#f2a55a"/></g><rect x="1228.9386666666667" y="222.27200000000002" width="58.78933333333333" height="58.78933333333333" fill="#ffffff"/><rect x="1228.94" y="251.67" width="29.39" height="29.39" fill="#4e919e"/><rect x="1329.6053333333334" y="222.27200000000002" width="58.78933333333333" height="58.78933333333333" fill="#ffffff"/><rect x="1359" y="222.27" width="29.39" height="29.39" fill="#f4b272"/><rect x="1430.2720000000002" y="222.27200000000002" width="58.78933333333333" height="58.78933333333333" fill="#ffffff"/><polygon points="1459.67,222.27 1489.0600000000002,222.27 1489.0600000000002,251.66000000000003" fill="#fbfdfd"/><polygon points="1430.27,251.67 1459.66,251.67 1430.27,281.06" fill="#fef5ed"/><rect x="111.94133333333335" y="313.2746666666667" width="78.11733333333333" height="78.11733333333333" fill="#ffffff"/><rect x="111.94" y="313.27" width="39.06" height="39.06" fill="#5e9ba6"/><polygon points="151,313.27 190.06,313.27 151,352.33" fill="#fef7f1"/><rect x="151" y="352.33" width="39.06" height="39.06" fill="#f2a459"/><rect x="212.608" y="313.2746666666667" width="78.11733333333333" height="78.11733333333333" fill="#ffffff"/><rect x="251.67" y="313.27" width="39.06" height="39.06" fill="#fefbf8"/><polygon points="251.67,352.33 290.73,352.33 251.67,391.39" fill="#f9d5b3"/><rect x="313.2746666666667" y="313.2746666666667" width="78.11733333333333" height="78.11733333333333" fill="#ffffff"/><g transform="translate(352.33,313.27) scale(1.953) rotate(0)"><rect width="20" height="10" fill="#649faa"/></g><polygon points="313.27,352.33 352.33,391.39 313.27,391.39" fill="#fadfc5"/><g transform="translate(352.33,352.33) scale(1.953) rotate(0)"><rect width="20" height="10" fill="#f3af6d"/></g><rect x="514.6080000000001" y="313.2746666666667" width="78.11733333333333" height="78.11733333333333" fill="#ffffff"/><rect x="514.61" y="313.27" width="39.06" height="39.06" fill="#f9d7b6"/><g transform="translate(553.67,313.27) scale(1.953) rotate(0)"><rect width="20" height="10" fill="#ffffff"/></g><rect x="514.61" y="352.33" width="39.06" height="39.06" fill="#609ca7"/><g transform="translate(553.67,352.33) scale(1.953) rotate(0)"><rect width="20" height="10" fill="#f9d4b0"/></g><rect x="715.9413333333334" y="313.2746666666667" width="78.11733333333333" height="78.11733333333333" fill="#ffffff"/><g transform="translate(715.94,313.27) scale(1.953) rotate(0)"><rect width="20" height="10" fill="#3a8593"/></g><g transform="translate(755,313.27) scale(1.953) rotate(0)"><rect width="20" height="10" fill="#b6d2d7"/></g><rect x="715.94" y="352.33" width="39.06" height="39.06" fill="#5c9aa5"/><rect x="755" y="352.33" width="39.06" height="39.06" fill="#fadcbe"/><rect x="816.6080000000001" y="313.2746666666667" width="78.11733333333333" height="78.11733333333333" fill="#ffffff"/><polygon points="816.61,313.27 855.6700000000001,313.27 855.6700000000001,352.33" fill="#a8c9cf"/><polygon points="855.67,313.27 894.73,352.33 855.67,352.33" fill="#5f9ca7"/><g transform="translate(816.61,352.33) scale(1.953) rotate(0)"><rect width="20" height="10" fill="#fef8f3"/></g><rect x="917.2746666666667" y="313.2746666666667" width="78.11733333333333" height="78.11733333333333" fill="#ffffff"/><polygon points="917.27,313.27 956.3299999999999,313.27 917.27,352.33" fill="#498e9b"/><rect x="956.33" y="313.27" width="39.06" height="39.06" fill="#f7c99d"/><rect x="1017.9413333333334" y="313.2746666666667" width="78.11733333333333" height="78.11733333333333" fill="#ffffff"/><polygon points="1017.94,313.27 1057,313.27 1017.94,352.33" fill="#f5be89"/><g transform="translate(1017.94,352.33) scale(1.953) rotate(0)"><rect width="20" height="10" fill="#fce9d7"/></g><rect x="1219.2746666666667" y="313.2746666666667" width="78.11733333333333" height="78.11733333333333" fill="#ffffff"/><rect x="1219.27" y="352.33" width="39.06" height="39.06" fill="#f9d9b9"/><rect x="1319.9413333333334" y="313.2746666666667" width="78.11733333333333" height="78.11733333333333" fill="#ffffff"/><polygon points="1319.94,313.27 1359,313.27 1359,352.33" fill="#f2a55c"/><rect x="1359" y="352.33" width="39.06" height="39.06" fill="#f2a45a"/><rect x="1.6106666666666685" y="404.27733333333333" width="97.44533333333334" height="97.44533333333334" fill="#ffffff"/><polygon points="1.61,404.28 50.33,404.28 50.33,453" fill="#f9d3af"/><rect x="50.33" y="404.28" width="48.72" height="48.72" fill="#c6dce0"/><rect x="1.61" y="453" width="48.72" height="48.72" fill="#f4b67a"/><g transform="translate(50.33,453) scale(2.436) rotate(0)"><rect width="20" height="10" fill="#b2cfd5"/></g><rect x="102.27733333333335" y="404.27733333333333" width="97.44533333333334" height="97.44533333333334" fill="#ffffff"/><rect x="102.28" y="404.28" width="48.72" height="48.72" fill="#f8d3ae"/><polygon points="151,404.28 199.72,404.28 199.72,453" fill="#a9c9cf"/><polygon points="151,453 151,501.72 102.28,501.72" fill="#fce8d5"/><rect x="151" y="453" width="48.72" height="48.72" fill="#e1ecef"/><rect x="202.94400000000002" y="404.27733333333333" width="97.44533333333334" height="97.44533333333334" fill="#ffffff"/><polygon points="202.94,404.28 251.66,453 202.94,453" fill="#f6c494"/><rect x="251.67" y="404.28" width="48.72" height="48.72" fill="#4d909d"/><polygon points="251.66,453 251.66,501.72 202.94,501.72" fill="#d1e2e6"/><polygon points="251.67,453 300.39,453 300.39,501.72" fill="#f2a55b"/><rect x="303.61066666666665" y="404.27733333333333" width="97.44533333333334" height="97.44533333333334" fill="#ffffff"/><polygon points="303.61,404.28 352.33000000000004,404.28 303.61,453" fill="#639ea9"/><polygon points="352.33,404.28 401.04999999999995,404.28 401.04999999999995,453" fill="#f9d5b3"/><polygon points="303.61,453 352.33000000000004,501.72 303.61,501.72" fill="#83b2bb"/><g transform="translate(352.33,453) scale(2.436) rotate(0)"><rect width="20" height="10" fill="#75aab3"/></g><rect x="404.27733333333333" y="404.27733333333333" width="97.44533333333334" height="97.44533333333334" fill="#ffffff"/><g transform="translate(404.28,404.28) scale(2.436) rotate(0)"><rect width="20" height="10" fill="#f7fafb"/></g><polygon points="453,404.28 501.72,453 453,453" fill="#bbd5d9"/><g transform="translate(404.28,453) scale(2.436) rotate(0)"><rect width="20" height="10" fill="#fcecdd"/></g><g transform="translate(453,453) scale(2.436) rotate(0)"><rect width="20" height="10" fill="#f4b374"/></g><rect x="504.944" y="404.27733333333333" width="97.44533333333334" height="97.44533333333334" fill="#ffffff"/><g transform="translate(504.94,404.28) scale(2.436) rotate(0)"><rect width="20" height="10" fill="#f3ac68"/></g><g transform="translate(553.67,404.28) scale(2.436) rotate(0)"><rect width="20" height="10" fill="#f7c698"/></g><g transform="translate(504.94,453) scale(2.436) rotate(0)"><rect width="20" height="10" fill="#5294a0"/></g><polygon points="553.67,453 602.39,501.72 553.67,501.72" fill="#accbd1"/><rect x="605.6106666666667" y="404.27733333333333" width="97.44533333333334" height="97.44533333333334" fill="#ffffff"/><g transform="translate(605.61,404.28) scale(2.436) rotate(0)"><rect width="20" height="10" fill="#f7c89a"/></g><polygon points="654.33,404.28 703.0500000000001,404.28 703.0500000000001,453" fill="#fffcf9"/><g transform="translate(605.61,453) scale(2.436) rotate(0)"><rect width="20" height="10" fill="#deebed"/></g><rect x="654.33" y="453" width="48.72" height="48.72" fill="#9dc2c9"/><rect x="706.2773333333334" y="404.27733333333333" width="97.44533333333334" height="97.44533333333334" fill="#ffffff"/><g transform="translate(706.28,404.28) scale(2.436) rotate(0)"><rect width="20" height="10" fill="#eaf2f3"/></g><g transform="translate(755,404.28) scale(2.436) rotate(0)"><rect width="20" height="10" fill="#f4b578"/></g><rect x="706.28" y="453" width="48.72" height="48.72" fill="#a8c9cf"/><rect x="755" y="453" width="48.72" height="48.72" fill="#c3dade"/><rect x="806.9440000000001" y="404.27733333333333" width="97.44533333333334" height="97.44533333333334" fill="#ffffff"/><polygon points="806.94,404.28 855.6600000000001,453 806.94,453" fill="#629da9"/><polygon points="855.67,404.28 904.39,404.28 855.67,453" fill="#7aacb6"/><g transform="translate(806.94,453) scale(2.436) rotate(0)"><rect width="20" height="10" fill="#72a7b1"/></g><polygon points="855.67,453 904.39,453 855.67,501.72" fill="#f4b477"/><rect x="907.6106666666667" y="404.27733333333333" width="97.44533333333334" height="97.44533333333334" fill="#ffffff"/><g transform="translate(956.33,404.28) scale(2.436) rotate(0)"><rect width="20" height="10" fill="#fbe2cb"/></g><g transform="translate(907.61,453) scale(2.436) rotate(0)"><rect width="20" height="10" fill="#d8e7e9"/></g><rect x="956.33" y="453" width="48.72" height="48.72" fill="#8fbac1"/><rect x="1008.2773333333334" y="404.27733333333333" width="97.44533333333334" height="97.44533333333334" fill="#ffffff"/><polygon points="1008.28,404.28 1057,453 1008.28,453" fill="#fce8d6"/><rect x="1057" y="404.28" width="48.72" height="48.72" fill="#f2a65d"/><polygon points="1008.28,453 1057,501.72 1008.28,501.72" fill="#fefaf7"/><polygon points="1105.72,453 1105.72,501.72 1057,501.72" fill="#9ac1c8"/><rect x="1108.9440000000002" y="404.27733333333333" width="97.44533333333334" height="97.44533333333334" fill="#ffffff"/><polygon points="1108.94,404.28 1157.66,404.28 1157.66,453" fill="#76aab3"/><g transform="translate(1157.67,404.28) scale(2.436) rotate(0)"><rect width="20" height="10" fill="#639ea9"/></g><rect x="1108.94" y="453" width="48.72" height="48.72" fill="#ef943c"/><polygon points="1206.39,453 1206.39,501.72 1157.67,501.72" fill="#f5bd87"/><rect x="1209.6106666666667" y="404.27733333333333" width="97.44533333333334" height="97.44533333333334" fill="#ffffff"/><rect x="1209.61" y="404.28" width="48.72" height="48.72" fill="#eef5f6"/><polygon points="1307.05,404.28 1307.05,453 1258.33,453" fill="#c4dade"/><g transform="translate(1209.61,453) scale(2.436) rotate(0)"><rect width="20" height="10" fill="#5394a0"/></g><polygon points="1307.05,453 1307.05,501.72 1258.33,501.72" fill="#fadfc5"/><rect x="1310.2773333333334" y="404.27733333333333" width="97.44533333333334" height="97.44533333333334" fill="#ffffff"/><rect x="1310.28" y="404.28" width="48.72" height="48.72" fill="#f2a861"/><rect x="1359" y="404.28" width="48.72" height="48.72" fill="#4c909d"/><g transform="translate(1310.28,453) scale(2.436) rotate(0)"><rect width="20" height="10" fill="#99bfc7"/></g><polygon points="1359,453 1407.72,453 1359,501.72" fill="#fadabc"/><rect x="1410.9440000000002" y="404.27733333333333" width="97.44533333333334" height="97.44533333333334" fill="#ffffff"/><rect x="1459.67" y="404.28" width="48.72" height="48.72" fill="#f2a55b"/><polygon points="1410.94,453 1459.66,453 1410.94,501.72" fill="#6da4af"/><g transform="translate(1459.67,453) scale(2.436) rotate(0)"><rect width="20" height="10" fill="#afcdd3"/></g></g></svg>