<?xml version="1.0" standalone="no"?><svg xmlns:xlink="http://www.w3.org/1999/xlink" xmlns="http://www.w3.org/2000/svg" viewBox="0 0 1000 714.2925996973172" preserveAspectRatio="xMaxYMax slice"><g transform="scale(0.9639576244228303)"><rect x="0" y="0" width="1037.3999999999999" height="741" fill="#ffffff"/><rect x="74.1" y="74.1" width="74.1" height="74.1" fill="#ffffff"/><g transform="translate(111.15,74.1) scale(1.8524999999999998) rotate(0)"><rect width="20" height="10" fill="#b1cfd4"/></g><rect x="222.29999999999998" y="74.1" width="74.1" height="74.1" fill="#ffffff"/><rect x="444.59999999999997" y="74.1" width="74.1" height="74.1" fill="#ffffff"/><rect x="444.6" y="74.1" width="37.05" height="37.05" fill="#f09a48"/><rect x="741" y="74.1" width="74.1" height="74.1" fill="#ffffff"/><rect x="963.3" y="74.1" width="74.1" height="74.1" fill="#ffffff"/><rect x="148.2" y="148.2" width="74.1" height="74.1" fill="#ffffff"/><rect x="666.9" y="148.2" width="74.1" height="74.1" fill="#ffffff"/><rect x="666.9" y="185.25" width="37.05" height="37.05" fill="#5e9ba6"/><rect x="963.3" y="148.2" width="74.1" height="74.1" fill="#ffffff"/><polygon points="1000.35,148.2 1037.4,148.2 1037.4,185.25" fill="#d4e4e7"/><rect x="0" y="222.29999999999998" width="74.1" height="74.1" fill="#ffffff"/><rect x="370.5" y="222.29999999999998" width="74.1" height="74.1" fill="#ffffff"/><polygon points="370.5,222.3 407.55,259.35 370.5,259.35" fill="#fbe3cc"/><rect x="444.59999999999997" y="222.29999999999998" width="74.1" height="74.1" fill="#ffffff"/><rect x="481.65" y="222.3" width="37.05" height="37.05" fill="#f3ae6b"/><rect x="518.6999999999999" y="222.29999999999998" width="74.1" height="74.1" fill="#ffffff"/><g transform="translate(518.7,222.3) scale(1.8524999999999998) rotate(0)"><rect width="20" height="10" fill="#478d9a"/></g><rect x="555.75" y="222.3" width="37.05" height="37.05" fill="#f5ba81"/><polygon points="555.75,259.35 592.8,259.35 555.75,296.40000000000003" fill="#5294a0"/><rect x="592.8" y="222.29999999999998" width="74.1" height="74.1" fill="#ffffff"/><rect x="666.9" y="222.29999999999998" width="74.1" height="74.1" fill="#ffffff"/><polygon points="703.95,259.35 741,259.35 703.95,296.40000000000003" fill="#5897a3"/><rect x="74.1" y="296.4" width="74.1" height="74.1" fill="#ffffff"/><polygon points="74.1,296.4 111.14999999999999,333.45 74.1,333.45" fill="#f4b171"/><g transform="translate(74.1,333.45) scale(1.8524999999999998) rotate(0)"><rect width="20" height="10" fill="#fdeee0"/></g><rect x="111.15" y="333.45" width="37.05" height="37.05" fill="#f8d3af"/><rect x="370.5" y="296.4" width="74.1" height="74.1" fill="#ffffff"/><polygon points="407.55,296.4 444.6,296.4 444.6,333.45" fill="#fbe6d1"/><g transform="translate(407.55,333.45) scale(1.8524999999999998) rotate(0)"><rect width="20" height="10" fill="#f5bd86"/></g><rect x="518.6999999999999" y="296.4" width="74.1" height="74.1" fill="#ffffff"/><polygon points="518.7,296.4 555.75,296.4 555.75,333.45" fill="#ef953d"/><g transform="translate(555.75,296.4) scale(1.8524999999999998) rotate(0)"><rect width="20" height="10" fill="#fefaf6"/></g><g transform="translate(555.75,333.45) scale(1.8524999999999998) rotate(0)"><rect width="20" height="10" fill="#f7c697"/></g><rect x="592.8" y="296.4" width="74.1" height="74.1" fill="#ffffff"/><rect x="592.8" y="296.4" width="37.05" height="37.05" fill="#fbfdfd"/><rect x="629.85" y="296.4" width="37.05" height="37.05" fill="#74a8b2"/><rect x="815.0999999999999" y="296.4" width="74.1" height="74.1" fill="#ffffff"/><rect x="815.1" y="333.45" width="37.05" height="37.05" fill="#f2a55a"/><rect x="889.1999999999999" y="296.4" width="74.1" height="74.1" fill="#ffffff"/><rect x="963.3" y="296.4" width="74.1" height="74.1" fill="#ffffff"/><polygon points="963.3,296.4 1000.3499999999999,333.45 963.3,333.45" fill="#fdf4ea"/><rect x="963.3" y="333.45" width="37.05" height="37.05" fill="#f3ae6b"/><rect x="0" y="370.5" width="74.1" height="74.1" fill="#ffffff"/><rect x="0" y="370.5" width="37.05" height="37.05" fill="#f2a75f"/><g transform="translate(37.05,370.5) scale(1.8524999999999998) rotate(0)"><rect width="20" height="10" fill="#b4d0d6"/></g><rect x="74.1" y="370.5" width="74.1" height="74.1" fill="#ffffff"/><rect x="111.15" y="370.5" width="37.05" height="37.05" fill="#98bfc6"/><polygon points="74.1,407.55 111.14999999999999,407.55 111.14999999999999,444.6" fill="#b5d1d6"/><rect x="222.29999999999998" y="370.5" width="74.1" height="74.1" fill="#ffffff"/><rect x="222.3" y="370.5" width="37.05" height="37.05" fill="#fffdfb"/><g transform="translate(259.35,370.5) scale(1.8524999999999998) rotate(0)"><rect width="20" height="10" fill="#4a8f9c"/></g><g transform="translate(222.3,407.55) scale(1.8524999999999998) rotate(0)"><rect width="20" height="10" fill="#f09a48"/></g><rect x="296.4" y="370.5" width="74.1" height="74.1" fill="#ffffff"/><polygon points="370.5,370.5 370.5,407.55 333.45,407.55" fill="#498e9b"/><rect x="444.59999999999997" y="370.5" width="74.1" height="74.1" fill="#ffffff"/><polygon points="481.65,370.5 518.6999999999999,370.5 518.6999999999999,407.55" fill="#fef9f4"/><g transform="translate(444.6,407.55) scale(1.8524999999999998) rotate(0)"><rect width="20" height="10" fill="#f3b171"/></g><polygon points="481.65,407.55 518.6999999999999,407.55 518.6999999999999,444.6" fill="#f3b171"/><rect x="518.6999999999999" y="370.5" width="74.1" height="74.1" fill="#ffffff"/><g transform="translate(555.75,370.5) scale(1.8524999999999998) rotate(0)"><rect width="20" height="10" fill="#5d9aa6"/></g><rect x="555.75" y="407.55" width="37.05" height="37.05" fill="#f7cba0"/><rect x="592.8" y="370.5" width="74.1" height="74.1" fill="#ffffff"/><g transform="translate(629.85,370.5) scale(1.8524999999999998) rotate(0)"><rect width="20" height="10" fill="#fadbbd"/></g><g transform="translate(592.8,407.55) scale(1.8524999999999998) rotate(0)"><rect width="20" height="10" fill="#fdf1e6"/></g><rect x="666.9" y="370.5" width="74.1" height="74.1" fill="#ffffff"/><g transform="translate(666.9,370.5) scale(1.8524999999999998) rotate(0)"><rect width="20" height="10" fill="#649faa"/></g><rect x="889.1999999999999" y="370.5" width="74.1" height="74.1" fill="#ffffff"/><rect x="889.2" y="370.5" width="37.05" height="37.05" fill="#6ca3ae"/><polygon points="889.2,407.55 926.25,444.6 889.2,444.6" fill="#f9d7b6"/><rect x="963.3" y="370.5" width="74.1" height="74.1" fill="#ffffff"/><g transform="translate(1000.35,370.5) scale(1.8524999999999998) rotate(0)"><rect width="20" height="10" fill="#f7c89b"/></g><polygon points="1000.3499999999999,407.55 1000.3499999999999,444.6 963.3,444.6" fill="#98bfc6"/><rect x="0" y="444.59999999999997" width="74.1" height="74.1" fill="#ffffff"/><g transform="translate(0,444.6) scale(1.8524999999999998) rotate(0)"><rect width="20" height="10" fill="#fdf3e9"/></g><polygon points="74.1,444.6 74.1,481.65000000000003 37.05,481.65000000000003" fill="#aacad0"/><g transform="translate(0,481.65) scale(1.8524999999999998) rotate(0)"><rect width="20" height="10" fill="#fbe3cd"/></g><rect x="74.1" y="444.59999999999997" width="74.1" height="74.1" fill="#ffffff"/><rect x="74.1" y="444.6" width="37.05" height="37.05" fill="#fdf2e8"/><polygon points="148.2,444.6 148.2,481.65000000000003 111.15,481.65000000000003" fill="#f4b375"/><rect x="74.1" y="481.65" width="37.05" height="37.05" fill="#fdf1e5"/><rect x="111.15" y="481.65" width="37.05" height="37.05" fill="#ebf3f4"/><rect x="148.2" y="444.59999999999997" width="74.1" height="74.1" fill="#ffffff"/><g transform="translate(148.2,444.6) scale(1.8524999999999998) rotate(0)"><rect width="20" height="10" fill="#76aab3"/></g><polygon points="185.25,481.65 185.25,518.6999999999999 148.2,518.6999999999999" fill="#f4b87e"/><polygon points="185.25,481.65 222.3,481.65 222.3,518.6999999999999" fill="#ef953d"/><rect x="222.29999999999998" y="444.59999999999997" width="74.1" height="74.1" fill="#ffffff"/><polygon points="259.35,444.6 259.35,481.65000000000003 222.3,481.65000000000003" fill="#c0d8dc"/><rect x="222.3" y="481.65" width="37.05" height="37.05" fill="#f09945"/><rect x="296.4" y="444.59999999999997" width="74.1" height="74.1" fill="#ffffff"/><polygon points="296.4,444.6 333.45,444.6 296.4,481.65000000000003" fill="#a5c7cd"/><g transform="translate(296.4,481.65) scale(1.8524999999999998) rotate(0)"><rect width="20" height="10" fill="#f8cda3"/></g><polygon points="333.45,481.65 370.5,518.6999999999999 333.45,518.6999999999999" fill="#6ba3ae"/><rect x="444.59999999999997" y="444.59999999999997" width="74.1" height="74.1" fill="#ffffff"/><g transform="translate(444.6,444.6) scale(1.8524999999999998) rotate(0)"><rect width="20" height="10" fill="#fefaf6"/></g><g transform="translate(481.65,481.65) scale(1.8524999999999998) rotate(0)"><rect width="20" height="10" fill="#fafcfc"/></g><rect x="592.8" y="444.59999999999997" width="74.1" height="74.1" fill="#ffffff"/><g transform="translate(592.8,444.6) scale(1.8524999999999998) rotate(0)"><rect width="20" height="10" fill="#f2a963"/></g><rect x="629.85" y="444.6" width="37.05" height="37.05" fill="#f3ae6b"/><rect x="592.8" y="481.65" width="37.05" height="37.05" fill="#f4b578"/><rect x="629.85" y="481.65" width="37.05" height="37.05" fill="#fef6ef"/><rect x="666.9" y="444.59999999999997" width="74.1" height="74.1" fill="#ffffff"/><polygon points="666.9,444.6 703.9499999999999,481.65000000000003 666.9,481.65000000000003" fill="#649ea9"/><polygon points="741,444.6 741,481.65000000000003 703.95,481.65000000000003" fill="#6fa6b0"/><rect x="741" y="444.59999999999997" width="74.1" height="74.1" fill="#ffffff"/><rect x="741" y="444.6" width="37.05" height="37.05" fill="#a7c8ce"/><g transform="translate(778.05,444.6) scale(1.8524999999999998) rotate(0)"><rect width="20" height="10" fill="#68a1ac"/></g><polygon points="778.05,481.65 815.0999999999999,481.65 815.0999999999999,518.6999999999999" fill="#f09c4a"/><rect x="815.0999999999999" y="444.59999999999997" width="74.1" height="74.1" fill="#ffffff"/><rect x="815.1" y="444.6" width="37.05" height="37.05" fill="#5f9ba7"/><polygon points="815.1,481.65 852.15,518.6999999999999 815.1,518.6999999999999" fill="#f5ba81"/><g transform="translate(852.15,481.65) scale(1.8524999999999998) rotate(0)"><rect width="20" height="10" fill="#4b8f9c"/></g><rect x="889.1999999999999" y="444.59999999999997" width="74.1" height="74.1" fill="#ffffff"/><g transform="translate(889.2,444.6) scale(1.8524999999999998) rotate(0)"><rect width="20" height="10" fill="#a5c7ce"/></g><g transform="translate(926.25,444.6) scale(1.8524999999999998) rotate(0)"><rect width="20" height="10" fill="#fdf4eb"/></g><polygon points="889.2,481.65 926.25,481.65 889.2,518.6999999999999" fill="#f6c290"/><rect x="926.25" y="481.65" width="37.05" height="37.05" fill="#74a8b2"/><rect x="0" y="518.6999999999999" width="74.1" height="74.1" fill="#ffffff"/><polygon points="37.05,518.7 37.05,555.75 0,555.75" fill="#f09b49"/><rect x="37.05" y="518.7" width="37.05" height="37.05" fill="#fffdfb"/><rect x="0" y="555.75" width="37.05" height="37.05" fill="#8db8c0"/><polygon points="74.1,555.75 74.1,592.8 37.05,592.8" fill="#f6c18e"/><rect x="74.1" y="518.6999999999999" width="74.1" height="74.1" fill="#ffffff"/><g transform="translate(74.1,518.7) scale(1.8524999999999998) rotate(0)"><rect width="20" height="10" fill="#f8d3ae"/></g><polygon points="111.15,518.7 148.2,518.7 148.2,555.75" fill="#f09742"/><rect x="74.1" y="555.75" width="37.05" height="37.05" fill="#cfe1e4"/><rect x="111.15" y="555.75" width="37.05" height="37.05" fill="#fbe4ce"/><rect x="148.2" y="518.6999999999999" width="74.1" height="74.1" fill="#ffffff"/><rect x="148.2" y="518.7" width="37.05" height="37.05" fill="#f2a861"/><g transform="translate(185.25,518.7) scale(1.8524999999999998) rotate(0)"><rect width="20" height="10" fill="#f19d4d"/></g><g transform="translate(148.2,555.75) scale(1.8524999999999998) rotate(0)"><rect width="20" height="10" fill="#98bfc6"/></g><polygon points="185.25,555.75 222.3,555.75 222.3,592.8" fill="#76aab3"/><rect x="222.29999999999998" y="518.6999999999999" width="74.1" height="74.1" fill="#ffffff"/><polygon points="259.35,518.7 296.40000000000003,518.7 259.35,555.75" fill="#bed7db"/><rect x="222.3" y="555.75" width="37.05" height="37.05" fill="#e0ecee"/><rect x="259.35" y="555.75" width="37.05" height="37.05" fill="#d2e3e6"/><rect x="296.4" y="518.6999999999999" width="74.1" height="74.1" fill="#ffffff"/><polygon points="296.4,518.7 333.45,518.7 296.4,555.75" fill="#f09945"/><rect x="333.45" y="518.7" width="37.05" height="37.05" fill="#f5bb83"/><rect x="296.4" y="555.75" width="37.05" height="37.05" fill="#ef943c"/><polygon points="333.45,555.75 370.5,555.75 370.5,592.8" fill="#bed7db"/><rect x="370.5" y="518.6999999999999" width="74.1" height="74.1" fill="#ffffff"/><rect x="370.5" y="518.7" width="37.05" height="37.05" fill="#aecdd3"/><g transform="translate(407.55,518.7) scale(1.8524999999999998) rotate(0)"><rect width="20" height="10" fill="#fefbf7"/></g><g transform="translate(370.5,555.75) scale(1.8524999999999998) rotate(0)"><rect width="20" height="10" fill="#77aab4"/></g><rect x="407.55" y="555.75" width="37.05" height="37.05" fill="#fadbbe"/><rect x="444.59999999999997" y="518.6999999999999" width="74.1" height="74.1" fill="#ffffff"/><rect x="444.6" y="518.7" width="37.05" height="37.05" fill="#c2d9dd"/><rect x="481.65" y="518.7" width="37.05" height="37.05" fill="#f8d1ab"/><rect x="481.65" y="555.75" width="37.05" height="37.05" fill="#418997"/><rect x="518.6999999999999" y="518.6999999999999" width="74.1" height="74.1" fill="#ffffff"/><rect x="518.7" y="518.7" width="37.05" height="37.05" fill="#89b6be"/><rect x="555.75" y="518.7" width="37.05" height="37.05" fill="#78abb5"/><g transform="translate(518.7,555.75) scale(1.8524999999999998) rotate(0)"><rect width="20" height="10" fill="#478d9a"/></g><polygon points="555.75,555.75 592.8,555.75 592.8,592.8" fill="#f9d5b2"/><rect x="592.8" y="518.6999999999999" width="74.1" height="74.1" fill="#ffffff"/><polygon points="592.8,518.7 629.8499999999999,555.75 592.8,555.75" fill="#c6dbdf"/><g transform="translate(629.85,518.7) scale(1.8524999999999998) rotate(0)"><rect width="20" height="10" fill="#f9d7b6"/></g><rect x="592.8" y="555.75" width="37.05" height="37.05" fill="#cee0e4"/><polygon points="629.85,555.75 666.9,555.75 629.85,592.8" fill="#f5bc85"/><rect x="666.9" y="518.6999999999999" width="74.1" height="74.1" fill="#ffffff"/><polygon points="703.9499999999999,518.7 703.9499999999999,555.75 666.9,555.75" fill="#faddc1"/><g transform="translate(703.95,518.7) scale(1.8524999999999998) rotate(0)"><rect width="20" height="10" fill="#edf4f5"/></g><rect x="666.9" y="555.75" width="37.05" height="37.05" fill="#fcebdb"/><rect x="703.95" y="555.75" width="37.05" height="37.05" fill="#ef953d"/><rect x="741" y="518.6999999999999" width="74.1" height="74.1" fill="#ffffff"/><polygon points="741,518.7 778.05,518.7 778.05,555.75" fill="#f6c392"/><polygon points="778.05,518.7 815.0999999999999,555.75 778.05,555.75" fill="#bed7db"/><polygon points="741,555.75 778.05,555.75 741,592.8" fill="#f8d3ae"/><rect x="778.05" y="555.75" width="37.05" height="37.05" fill="#cbdfe2"/><rect x="815.0999999999999" y="518.6999999999999" width="74.1" height="74.1" fill="#ffffff"/><polygon points="815.1,518.7 852.15,518.7 852.15,555.75" fill="#fefaf6"/><rect x="852.15" y="518.7" width="37.05" height="37.05" fill="#649faa"/><g transform="translate(815.1,555.75) scale(1.8524999999999998) rotate(0)"><rect width="20" height="10" fill="#f8cda4"/></g><rect x="963.3" y="518.6999999999999" width="74.1" height="74.1" fill="#ffffff"/><polygon points="963.3,518.7 1000.3499999999999,555.75 963.3,555.75" fill="#f1a459"/><polygon points="1000.35,518.7 1037.4,518.7 1000.35,555.75" fill="#93bcc4"/><g transform="translate(963.3,555.75) scale(1.8524999999999998) rotate(0)"><rect width="20" height="10" fill="#e1ecee"/></g><g transform="translate(1000.35,555.75) scale(1.8524999999999998) rotate(0)"><rect width="20" height="10" fill="#e8f1f2"/></g><rect x="0" y="592.8" width="74.1" height="74.1" fill="#ffffff"/><g transform="translate(0,592.8) scale(1.8524999999999998) rotate(0)"><rect width="20" height="10" fill="#85b3bc"/></g><g transform="translate(37.05,592.8) scale(1.8524999999999998) rotate(0)"><rect width="20" height="10" fill="#f4b273"/></g><rect x="0" y="629.85" width="37.05" height="37.05" fill="#f09c4b"/><polygon points="37.05,629.85 74.1,666.9 37.05,666.9" fill="#478c99"/><rect x="74.1" y="592.8" width="74.1" height="74.1" fill="#ffffff"/><rect x="74.1" y="592.8" width="37.05" height="37.05" fill="#fcecdc"/><rect x="111.15" y="592.8" width="37.05" height="37.05" fill="#c2d9dd"/><g transform="translate(74.1,629.85) scale(1.8524999999999998) rotate(0)"><rect width="20" height="10" fill="#fefaf7"/></g><polygon points="111.15,629.85 148.2,629.85 148.2,666.9" fill="#fefaf5"/><rect x="148.2" y="592.8" width="74.1" height="74.1" fill="#ffffff"/><g transform="translate(148.2,592.8) scale(1.8524999999999998) rotate(0)"><rect width="20" height="10" fill="#84b2bb"/></g><rect x="185.25" y="592.8" width="37.05" height="37.05" fill="#3c8694"/><polygon points="148.2,629.85 185.25,629.85 185.25,666.9" fill="#f6c392"/><polygon points="185.25,629.85 222.3,666.9 185.25,666.9" fill="#89b5be"/><rect x="222.29999999999998" y="592.8" width="74.1" height="74.1" fill="#ffffff"/><g transform="translate(222.3,592.8) scale(1.8524999999999998) rotate(0)"><rect width="20" height="10" fill="#90bac2"/></g><g transform="translate(259.35,592.8) scale(1.8524999999999998) rotate(0)"><rect width="20" height="10" fill="#cbdfe3"/></g><g transform="translate(222.3,629.85) scale(1.8524999999999998) rotate(0)"><rect width="20" height="10" fill="#458c99"/></g><g transform="translate(259.35,629.85) scale(1.8524999999999998) rotate(0)"><rect width="20" height="10" fill="#fdf2e7"/></g><rect x="370.5" y="592.8" width="74.1" height="74.1" fill="#ffffff"/><rect x="370.5" y="592.8" width="37.05" height="37.05" fill="#faddc0"/><polygon points="407.55,592.8 444.6,592.8 407.55,629.8499999999999" fill="#fcecdc"/><polygon points="407.55,629.85 407.55,666.9 370.5,666.9" fill="#fcebdb"/><rect x="407.55" y="629.85" width="37.05" height="37.05" fill="#f2aa64"/><rect x="444.59999999999997" y="592.8" width="74.1" height="74.1" fill="#ffffff"/><polygon points="444.6,592.8 481.65000000000003,592.8 444.6,629.8499999999999" fill="#69a2ac"/><rect x="444.6" y="629.85" width="37.05" height="37.05" fill="#f2a860"/><g transform="translate(481.65,629.85) scale(1.8524999999999998) rotate(0)"><rect width="20" height="10" fill="#468c99"/></g><rect x="518.6999999999999" y="592.8" width="74.1" height="74.1" fill="#ffffff"/><g transform="translate(518.7,592.8) scale(1.8524999999999998) rotate(0)"><rect width="20" height="10" fill="#8fb9c1"/></g><rect x="555.75" y="592.8" width="37.05" height="37.05" fill="#f6c08c"/><rect x="518.7" y="629.85" width="37.05" height="37.05" fill="#d8e7e9"/><polygon points="592.8,629.85 592.8,666.9 555.75,666.9" fill="#9dc2c9"/><rect x="592.8" y="592.8" width="74.1" height="74.1" fill="#ffffff"/><polygon points="629.85,592.8 666.9,629.8499999999999 629.85,629.8499999999999" fill="#bfd8dc"/><g transform="translate(592.8,629.85) scale(1.8524999999999998) rotate(0)"><rect width="20" height="10" fill="#88b5be"/></g><g transform="translate(629.85,629.85) scale(1.8524999999999998) rotate(0)"><rect width="20" height="10" fill="#86b4bc"/></g><rect x="666.9" y="592.8" width="74.1" height="74.1" fill="#ffffff"/><rect x="666.9" y="592.8" width="37.05" height="37.05" fill="#e0ecee"/><polygon points="703.95,592.8 741,629.8499999999999 703.95,629.8499999999999" fill="#99bfc7"/><rect x="741" y="592.8" width="74.1" height="74.1" fill="#ffffff"/><rect x="741" y="592.8" width="37.05" height="37.05" fill="#f9d5b2"/><polygon points="778.05,592.8 815.0999999999999,629.8499999999999 778.05,629.8499999999999" fill="#71a7b1"/><g transform="translate(741,629.85) scale(1.8524999999999998) rotate(0)"><rect width="20" height="10" fill="#4e919d"/></g><g transform="translate(778.05,629.85) scale(1.8524999999999998) rotate(0)"><rect width="20" height="10" fill="#f09c4a"/></g><rect x="815.0999999999999" y="592.8" width="74.1" height="74.1" fill="#ffffff"/><g transform="translate(815.1,592.8) scale(1.8524999999999998) rotate(0)"><rect width="20" height="10" fill="#c4dade"/></g><g transform="translate(852.15,592.8) scale(1.8524999999999998) rotate(0)"><rect width="20" height="10" fill="#faddc2"/></g><polygon points="815.1,629.85 852.15,666.9 815.1,666.9" fill="#85b3bc"/><g transform="translate(852.15,629.85) scale(1.8524999999999998) rotate(0)"><rect width="20" height="10" fill="#7fafb8"/></g><rect x="889.1999999999999" y="592.8" width="74.1" height="74.1" fill="#ffffff"/><rect x="889.2" y="592.8" width="37.05" height="37.05" fill="#ccdfe3"/><polygon points="926.25,592.8 963.3,592.8 963.3,629.8499999999999" fill="#fbe1c8"/><g transform="translate(889.2,629.85) scale(1.8524999999999998) rotate(0)"><rect width="20" height="10" fill="#f2a75f"/></g><polygon points="963.3,629.85 963.3,666.9 926.25,666.9" fill="#98bfc6"/><rect x="963.3" y="592.8" width="74.1" height="74.1" fill="#ffffff"/><polygon points="963.3,592.8 1000.3499999999999,629.8499999999999 963.3,629.8499999999999" fill="#9ec3ca"/><polygon points="1000.35,592.8 1037.4,592.8 1037.4,629.8499999999999" fill="#fdefe2"/><polygon points="963.3,629.85 1000.3499999999999,629.85 963.3,666.9" fill="#fdf2e7"/><rect x="1000.35" y="629.85" width="37.05" height="37.05" fill="#f9d7b6"/><rect x="0" y="666.9" width="74.1" height="74.1" fill="#ffffff"/><g transform="translate(0,666.9) scale(1.8524999999999998) rotate(0)"><rect width="20" height="10" fill="#f7c697"/></g><rect x="37.05" y="666.9" width="37.05" height="37.05" fill="#fffdfc"/><polygon points="0,703.95 37.05,703.95 37.05,741" fill="#fdfefe"/><rect x="37.05" y="703.95" width="37.05" height="37.05" fill="#f3b06e"/><rect x="74.1" y="666.9" width="74.1" height="74.1" fill="#ffffff"/><polygon points="74.1,666.9 111.14999999999999,666.9 111.14999999999999,703.9499999999999" fill="#fbe7d3"/><polygon points="111.15,666.9 148.2,666.9 111.15,703.9499999999999" fill="#b8d3d8"/><g transform="translate(74.1,703.95) scale(1.8524999999999998) rotate(0)"><rect width="20" height="10" fill="#f2a75f"/></g><rect x="111.15" y="703.95" width="37.05" height="37.05" fill="#9cc2c9"/><rect x="148.2" y="666.9" width="74.1" height="74.1" fill="#ffffff"/><rect x="148.2" y="666.9" width="37.05" height="37.05" fill="#3c8694"/><g transform="translate(185.25,666.9) scale(1.8524999999999998) rotate(0)"><rect width="20" height="10" fill="#77aab4"/></g><g transform="translate(148.2,703.95) scale(1.8524999999999998) rotate(0)"><rect width="20" height="10" fill="#fdf4eb"/></g><polygon points="185.25,703.95 222.3,741 185.25,741" fill="#86b4bc"/><rect x="222.29999999999998" y="666.9" width="74.1" height="74.1" fill="#ffffff"/><polygon points="259.35,666.9 259.35,703.9499999999999 222.3,703.9499999999999" fill="#639ea9"/><rect x="259.35" y="666.9" width="37.05" height="37.05" fill="#fbe5cf"/><rect x="222.3" y="703.95" width="37.05" height="37.05" fill="#f1a051"/><polygon points="296.40000000000003,703.95 296.40000000000003,741 259.35,741" fill="#f1a256"/><rect x="296.4" y="666.9" width="74.1" height="74.1" fill="#ffffff"/><polygon points="296.4,666.9 333.45,666.9 333.45,703.9499999999999" fill="#c8dde1"/><rect x="333.45" y="666.9" width="37.05" height="37.05" fill="#bdd6db"/><polygon points="333.45,703.95 333.45,741 296.4,741" fill="#fbe4ce"/><polygon points="370.5,703.95 370.5,741 333.45,741" fill="#f2a459"/><rect x="370.5" y="666.9" width="74.1" height="74.1" fill="#ffffff"/><g transform="translate(370.5,666.9) scale(1.8524999999999998) rotate(0)"><rect width="20" height="10" fill="#f1a458"/></g><g transform="translate(407.55,666.9) scale(1.8524999999999998) rotate(0)"><rect width="20" height="10" fill="#5495a1"/></g><polygon points="370.5,703.95 407.55,741 370.5,741" fill="#fefaf5"/><polygon points="407.55,703.95 444.6,703.95 444.6,741" fill="#f2a75e"/><rect x="444.59999999999997" y="666.9" width="74.1" height="74.1" fill="#ffffff"/><rect x="444.6" y="666.9" width="37.05" height="37.05" fill="#dae8eb"/><polygon points="481.65,666.9 518.6999999999999,666.9 481.65,703.9499999999999" fill="#fae0c6"/><rect x="444.6" y="703.95" width="37.05" height="37.05" fill="#c5dbdf"/><g transform="translate(481.65,703.95) scale(1.8524999999999998) rotate(0)"><rect width="20" height="10" fill="#a9c9cf"/></g><rect x="518.6999999999999" y="666.9" width="74.1" height="74.1" fill="#ffffff"/><rect x="518.7" y="666.9" width="37.05" height="37.05" fill="#f19e4f"/><g transform="translate(555.75,666.9) scale(1.8524999999999998) rotate(0)"><rect width="20" height="10" fill="#fadabc"/></g><g transform="translate(518.7,703.95) scale(1.8524999999999998) rotate(0)"><rect width="20" height="10" fill="#e4eef0"/></g><polygon points="555.75,703.95 592.8,703.95 592.8,741" fill="#cee1e4"/><rect x="592.8" y="666.9" width="74.1" height="74.1" fill="#ffffff"/><polygon points="592.8,666.9 629.8499999999999,666.9 592.8,703.9499999999999" fill="#458b98"/><rect x="629.85" y="666.9" width="37.05" height="37.05" fill="#fcecdd"/><polygon points="592.8,703.95 629.8499999999999,703.95 592.8,741" fill="#76aab4"/><g transform="translate(629.85,703.95) scale(1.8524999999999998) rotate(0)"><rect width="20" height="10" fill="#99bfc7"/></g><rect x="666.9" y="666.9" width="74.1" height="74.1" fill="#ffffff"/><polygon points="666.9,666.9 703.9499999999999,703.9499999999999 666.9,703.9499999999999" fill="#f09b49"/><rect x="703.95" y="666.9" width="37.05" height="37.05" fill="#e1edef"/><rect x="666.9" y="703.95" width="37.05" height="37.05" fill="#e5eff0"/><polygon points="703.95,703.95 741,741 703.95,741" fill="#f1a255"/><rect x="741" y="666.9" width="74.1" height="74.1" fill="#ffffff"/><polygon points="741,666.9 778.05,666.9 778.05,703.9499999999999" fill="#f1a357"/><polygon points="778.05,666.9 815.0999999999999,666.9 778.05,703.9499999999999" fill="#f6fafa"/><rect x="741" y="703.95" width="37.05" height="37.05" fill="#f9dabb"/><g transform="translate(778.05,703.95) scale(1.8524999999999998) rotate(0)"><rect width="20" height="10" fill="#81b1ba"/></g><rect x="815.0999999999999" y="666.9" width="74.1" height="74.1" fill="#ffffff"/><polygon points="815.1,666.9 852.15,666.9 815.1,703.9499999999999" fill="#f6c18f"/><g transform="translate(852.15,666.9) scale(1.8524999999999998) rotate(0)"><rect width="20" height="10" fill="#8eb9c1"/></g><rect x="815.1" y="703.95" width="37.05" height="37.05" fill="#fdf4eb"/><polygon points="889.1999999999999,703.95 889.1999999999999,741 852.15,741" fill="#e4eef0"/><rect x="889.1999999999999" y="666.9" width="74.1" height="74.1" fill="#ffffff"/><g transform="translate(889.2,666.9) scale(1.8524999999999998) rotate(0)"><rect width="20" height="10" fill="#b4d0d6"/></g><polygon points="926.25,666.9 963.3,666.9 963.3,703.9499999999999" fill="#4e919e"/><polygon points="926.25,703.95 926.25,741 889.2,741" fill="#5394a0"/><rect x="926.25" y="703.95" width="37.05" height="37.05" fill="#fef9f5"/><rect x="963.3" y="666.9" width="74.1" height="74.1" fill="#ffffff"/><rect x="963.3" y="666.9" width="37.05" height="37.05" fill="#fbe2ca"/><rect x="1000.35" y="666.9" width="37.05" height="37.05" fill="#5495a1"/><g transform="translate(963.3,703.95) scale(1.8524999999999998) rotate(0)"><rect width="20" height="10" fill="#5e9ba6"/></g><polygon points="1000.35,703.95 1037.4,741 1000.35,741" fill="#f6c494"/></g></svg>