<?xml version="1.0" standalone="no"?><svg xmlns:xlink="http://www.w3.org/1999/xlink" xmlns="http://www.w3.org/2000/svg" viewBox="0 0 1000 625.0052716369065" preserveAspectRatio="xMaxYMax slice"><g transform="scale(0.8434619050430587)"><rect x="0" y="0" width="1185.6" height="741" fill="#ffffff"/><rect x="470.68319999999994" y="100.1832" width="21.93359999999999" height="21.93359999999999" fill="#ffffff"/><g transform="translate(470.68,100.18) scale(0.5485) rotate(0)"><rect width="20" height="10" fill="#5796a2"/></g><rect x="989.3832" y="100.1832" width="21.93359999999999" height="21.93359999999999" fill="#ffffff"/><polygon points="1000.35,111.15 1000.35,122.12 989.38,122.12" fill="#6fa5b0"/><polygon points="1011.32,111.15 1011.32,122.12 1000.35,122.12" fill="#b4d1d6"/><rect x="96.62639999999999" y="170.72639999999998" width="29.047199999999997" height="29.047199999999997" fill="#ffffff"/><g transform="translate(96.63,170.73) scale(0.726) rotate(0)"><rect width="20" height="10" fill="#fcfdfd"/></g><rect x="96.63" y="185.25" width="14.52" height="14.52" fill="#9cc2c9"/><rect x="689.4264" y="170.72639999999998" width="29.047199999999997" height="29.047199999999997" fill="#ffffff"/><rect x="763.5264" y="170.72639999999998" width="29.047199999999997" height="29.047199999999997" fill="#ffffff"/><rect x="93.0696" y="241.26959999999997" width="36.1608" height="36.1608" fill="#ffffff"/><g transform="translate(111.15,259.35) scale(0.9039999999999999) rotate(0)"><rect width="20" height="10" fill="#ecf3f5"/></g><rect x="167.16959999999997" y="241.26959999999997" width="36.1608" height="36.1608" fill="#ffffff"/><g transform="translate(167.17,241.27) scale(0.9039999999999999) rotate(0)"><rect width="20" height="10" fill="#acccd2"/></g><polygon points="167.17,259.35 185.25,259.35 185.25,277.43" fill="#5b99a5"/><g transform="translate(185.25,259.35) scale(0.9039999999999999) rotate(0)"><rect width="20" height="10" fill="#609ca8"/></g><rect x="611.7696" y="241.26959999999997" width="36.1608" height="36.1608" fill="#ffffff"/><rect x="611.77" y="241.27" width="18.08" height="18.08" fill="#f9d6b5"/><g transform="translate(629.85,241.27) scale(0.9039999999999999) rotate(0)"><rect width="20" height="10" fill="#fdefe2"/></g><rect x="685.8696" y="241.26959999999997" width="36.1608" height="36.1608" fill="#ffffff"/><rect x="703.95" y="241.27" width="18.08" height="18.08" fill="#5294a0"/><rect x="834.0695999999999" y="241.26959999999997" width="36.1608" height="36.1608" fill="#ffffff"/><polygon points="834.07,241.27 852.1500000000001,241.27 852.1500000000001,259.35" fill="#f9d7b6"/><polygon points="834.07,259.35 852.1500000000001,259.35 834.07,277.43" fill="#adccd2"/><rect x="852.15" y="259.35" width="18.08" height="18.08" fill="#94bdc4"/><rect x="908.1696" y="241.26959999999997" width="36.1608" height="36.1608" fill="#ffffff"/><rect x="926.25" y="241.27" width="18.08" height="18.08" fill="#398492"/><rect x="908.17" y="259.35" width="18.08" height="18.08" fill="#fdf1e5"/><rect x="15.412799999999999" y="311.8128" width="43.2744" height="43.2744" fill="#ffffff"/><polygon points="15.41,311.81 37.05,311.81 37.05,333.45" fill="#4a8e9b"/><rect x="37.05" y="333.45" width="21.64" height="21.64" fill="#7fafb8"/><rect x="311.8128" y="311.8128" width="43.2744" height="43.2744" fill="#ffffff"/><g transform="translate(311.81,333.45) scale(1.082) rotate(0)"><rect width="20" height="10" fill="#fdefe3"/></g><rect x="385.9128" y="311.8128" width="43.2744" height="43.2744" fill="#ffffff"/><g transform="translate(407.55,311.81) scale(1.082) rotate(0)"><rect width="20" height="10" fill="#74a9b2"/></g><rect x="407.55" y="333.45" width="21.64" height="21.64" fill="#b3d0d5"/><rect x="534.1127999999999" y="311.8128" width="43.2744" height="43.2744" fill="#ffffff"/><g transform="translate(534.11,333.45) scale(1.082) rotate(0)"><rect width="20" height="10" fill="#e9f1f3"/></g><rect x="555.75" y="333.45" width="21.64" height="21.64" fill="#fdf0e3"/><rect x="682.3127999999999" y="311.8128" width="43.2744" height="43.2744" fill="#ffffff"/><g transform="translate(682.31,311.81) scale(1.082) rotate(0)"><rect width="20" height="10" fill="#accbd1"/></g><polygon points="703.95,311.81 725.59,311.81 703.95,333.45" fill="#f8cea5"/><g transform="translate(682.31,333.45) scale(1.082) rotate(0)"><rect width="20" height="10" fill="#f9d6b5"/></g><rect x="756.4128" y="311.8128" width="43.2744" height="43.2744" fill="#ffffff"/><rect x="778.05" y="311.81" width="21.64" height="21.64" fill="#fbe2ca"/><rect x="160.05599999999998" y="382.356" width="50.38799999999999" height="50.38799999999999" fill="#ffffff"/><rect x="185.25" y="382.36" width="25.19" height="25.19" fill="#f1a052"/><polygon points="160.06,407.55 185.25,407.55 160.06,432.74" fill="#f19e4e"/><rect x="234.15599999999998" y="382.356" width="50.38799999999999" height="50.38799999999999" fill="#ffffff"/><g transform="translate(234.16,382.36) scale(1.2595) rotate(0)"><rect width="20" height="10" fill="#f2a75e"/></g><rect x="308.256" y="382.356" width="50.38799999999999" height="50.38799999999999" fill="#ffffff"/><rect x="308.26" y="382.36" width="25.19" height="25.19" fill="#ef963f"/><rect x="308.26" y="407.55" width="25.19" height="25.19" fill="#9cc2c9"/><rect x="333.45" y="407.55" width="25.19" height="25.19" fill="#ebf3f4"/><rect x="382.356" y="382.356" width="50.38799999999999" height="50.38799999999999" fill="#ffffff"/><g transform="translate(382.36,382.36) scale(1.2595) rotate(0)"><rect width="20" height="10" fill="#e0ecee"/></g><rect x="407.55" y="382.36" width="25.19" height="25.19" fill="#fffcf9"/><rect x="382.36" y="407.55" width="25.19" height="25.19" fill="#f09a46"/><rect x="604.656" y="382.356" width="50.38799999999999" height="50.38799999999999" fill="#ffffff"/><rect x="604.66" y="382.36" width="25.19" height="25.19" fill="#d7e6e9"/><rect x="629.85" y="407.55" width="25.19" height="25.19" fill="#3e8795"/><rect x="678.756" y="382.356" width="50.38799999999999" height="50.38799999999999" fill="#ffffff"/><polygon points="678.76,407.55 703.95,432.74 678.76,432.74" fill="#f5bc85"/><rect x="901.0559999999999" y="382.356" width="50.38799999999999" height="50.38799999999999" fill="#ffffff"/><polygon points="926.25,382.36 951.44,382.36 951.44,407.55" fill="#fdf3e9"/><g transform="translate(926.25,407.55) scale(1.2595) rotate(0)"><rect width="20" height="10" fill="#a6c8ce"/></g><rect x="975.156" y="382.356" width="50.38799999999999" height="50.38799999999999" fill="#ffffff"/><polygon points="975.16,382.36 1000.35,382.36 975.16,407.55" fill="#5495a1"/><g transform="translate(1000.35,382.36) scale(1.2595) rotate(0)"><rect width="20" height="10" fill="#f8d3ae"/></g><g transform="translate(975.16,407.55) scale(1.2595) rotate(0)"><rect width="20" height="10" fill="#b4d0d6"/></g><rect x="1049.2559999999999" y="382.356" width="50.38799999999999" height="50.38799999999999" fill="#ffffff"/><rect x="1074.45" y="382.36" width="25.19" height="25.19" fill="#639ea9"/><rect x="1074.45" y="407.55" width="25.19" height="25.19" fill="#ef933b"/><rect x="1123.356" y="382.356" width="50.38799999999999" height="50.38799999999999" fill="#ffffff"/><g transform="translate(1123.36,382.36) scale(1.2595) rotate(0)"><rect width="20" height="10" fill="#8eb9c1"/></g><polygon points="1173.74,382.36 1173.74,407.55 1148.55,407.55" fill="#fffffe"/><rect x="8.299199999999999" y="452.89919999999995" width="57.501599999999996" height="57.501599999999996" fill="#ffffff"/><polygon points="37.05,452.9 37.05,481.65 8.3,481.65" fill="#a5c7ce"/><polygon points="37.05,481.65 37.05,510.4 8.3,510.4" fill="#bfd7dc"/><rect x="37.05" y="481.65" width="28.75" height="28.75" fill="#4a8e9b"/><rect x="82.3992" y="452.89919999999995" width="57.501599999999996" height="57.501599999999996" fill="#ffffff"/><g transform="translate(82.4,481.65) scale(1.4375) rotate(0)"><rect width="20" height="10" fill="#f09842"/></g><g transform="translate(111.15,481.65) scale(1.4375) rotate(0)"><rect width="20" height="10" fill="#fcecdc"/></g><rect x="230.5992" y="452.89919999999995" width="57.501599999999996" height="57.501599999999996" fill="#ffffff"/><rect x="259.35" y="452.9" width="28.75" height="28.75" fill="#8cb7c0"/><polygon points="230.6,481.65 259.35,481.65 259.35,510.4" fill="#f8d1ab"/><rect x="259.35" y="481.65" width="28.75" height="28.75" fill="#f2f7f8"/><rect x="304.69919999999996" y="452.89919999999995" width="57.501599999999996" height="57.501599999999996" fill="#ffffff"/><polygon points="304.7,452.9 333.45,452.9 304.7,481.65" fill="#f3ad69"/><polygon points="304.7,481.65 333.45,481.65 304.7,510.4" fill="#fadfc5"/><g transform="translate(333.45,481.65) scale(1.4375) rotate(0)"><rect width="20" height="10" fill="#f3af6e"/></g><rect x="378.7992" y="452.89919999999995" width="57.501599999999996" height="57.501599999999996" fill="#ffffff"/><polygon points="436.3,452.9 436.3,481.65 407.55,481.65" fill="#b7d2d7"/><rect x="378.8" y="481.65" width="28.75" height="28.75" fill="#f09843"/><polygon points="407.55,481.65 436.3,510.4 407.55,510.4" fill="#f19e4e"/><rect x="452.89919999999995" y="452.89919999999995" width="57.501599999999996" height="57.501599999999996" fill="#ffffff"/><g transform="translate(452.9,452.9) scale(1.4375) rotate(0)"><rect width="20" height="10" fill="#f7c697"/></g><rect x="481.65" y="452.9" width="28.75" height="28.75" fill="#f2a75e"/><g transform="translate(452.9,481.65) scale(1.4375) rotate(0)"><rect width="20" height="10" fill="#f7c99c"/></g><rect x="481.65" y="481.65" width="28.75" height="28.75" fill="#c0d8dc"/><rect x="526.9992" y="452.89919999999995" width="57.501599999999996" height="57.501599999999996" fill="#ffffff"/><rect x="527" y="452.9" width="28.75" height="28.75" fill="#f6c28f"/><polygon points="584.5,452.9 584.5,481.65 555.75,481.65" fill="#c4dade"/><polygon points="527,481.65 555.75,481.65 555.75,510.4" fill="#50929e"/><rect x="555.75" y="481.65" width="28.75" height="28.75" fill="#f4b679"/><rect x="675.1992" y="452.89919999999995" width="57.501599999999996" height="57.501599999999996" fill="#ffffff"/><polygon points="732.7,452.9 732.7,481.65 703.95,481.65" fill="#f5bd87"/><rect x="749.2992" y="452.89919999999995" width="57.501599999999996" height="57.501599999999996" fill="#ffffff"/><polygon points="749.3,481.65 778.05,510.4 749.3,510.4" fill="#fdf2e7"/><rect x="823.3992" y="452.89919999999995" width="57.501599999999996" height="57.501599999999996" fill="#ffffff"/><polygon points="852.15,452.9 880.9,452.9 852.15,481.65" fill="#adccd2"/><rect x="823.4" y="481.65" width="28.75" height="28.75" fill="#fef5ee"/><g transform="translate(852.15,481.65) scale(1.4375) rotate(0)"><rect width="20" height="10" fill="#f1a357"/></g><rect x="897.4992" y="452.89919999999995" width="57.501599999999996" height="57.501599999999996" fill="#ffffff"/><polygon points="926.25,452.9 955,452.9 926.25,481.65" fill="#ebf3f4"/><rect x="897.5" y="481.65" width="28.75" height="28.75" fill="#f7cca2"/><rect x="926.25" y="481.65" width="28.75" height="28.75" fill="#f09945"/><rect x="971.5992" y="452.89919999999995" width="57.501599999999996" height="57.501599999999996" fill="#ffffff"/><polygon points="971.6,452.9 1000.35,452.9 971.6,481.65" fill="#fdeee1"/><polygon points="1029.1,452.9 1029.1,481.65 1000.35,481.65" fill="#51939f"/><rect x="971.6" y="481.65" width="28.75" height="28.75" fill="#e6f0f1"/><rect x="1119.7992" y="452.89919999999995" width="57.501599999999996" height="57.501599999999996" fill="#ffffff"/><g transform="translate(1119.8,452.9) scale(1.4375) rotate(0)"><rect width="20" height="10" fill="#f3ad69"/></g><g transform="translate(1119.8,481.65) scale(1.4375) rotate(0)"><rect width="20" height="10" fill="#cde0e4"/></g><rect x="1148.55" y="481.65" width="28.75" height="28.75" fill="#d5e5e8"/><rect x="4.742400000000001" y="523.4423999999999" width="64.61519999999999" height="64.61519999999999" fill="#ffffff"/><polygon points="4.74,523.44 37.050000000000004,523.44 37.050000000000004,555.75" fill="#e4eef0"/><g transform="translate(4.74,555.75) scale(1.6155000000000002) rotate(0)"><rect width="20" height="10" fill="#fef8f2"/></g><rect x="37.05" y="555.75" width="32.31" height="32.31" fill="#94bdc4"/><rect x="78.8424" y="523.4423999999999" width="64.61519999999999" height="64.61519999999999" fill="#ffffff"/><rect x="78.84" y="523.44" width="32.31" height="32.31" fill="#fffcfa"/><polygon points="111.15,523.44 143.46,523.44 143.46,555.75" fill="#f09946"/><polygon points="78.84,555.75 111.15,555.75 111.15,588.06" fill="#fcead9"/><rect x="152.9424" y="523.4423999999999" width="64.61519999999999" height="64.61519999999999" fill="#ffffff"/><rect x="152.94" y="523.44" width="32.31" height="32.31" fill="#a5c7ce"/><polygon points="185.25,523.44 217.56,523.44 185.25,555.75" fill="#75a9b3"/><g transform="translate(152.94,555.75) scale(1.6155000000000002) rotate(0)"><rect width="20" height="10" fill="#9fc3ca"/></g><rect x="185.25" y="555.75" width="32.31" height="32.31" fill="#e4eef0"/><rect x="227.0424" y="523.4423999999999" width="64.61519999999999" height="64.61519999999999" fill="#ffffff"/><g transform="translate(259.35,523.44) scale(1.6155000000000002) rotate(0)"><rect width="20" height="10" fill="#6ba3ae"/></g><g transform="translate(227.04,555.75) scale(1.6155000000000002) rotate(0)"><rect width="20" height="10" fill="#4c909c"/></g><g transform="translate(259.35,555.75) scale(1.6155000000000002) rotate(0)"><rect width="20" height="10" fill="#f8d3af"/></g><rect x="301.14239999999995" y="523.4423999999999" width="64.61519999999999" height="64.61519999999999" fill="#ffffff"/><rect x="333.45" y="523.44" width="32.31" height="32.31" fill="#f8d0a8"/><polygon points="301.14,555.75 333.45,588.06 301.14,588.06" fill="#f4b477"/><g transform="translate(333.45,555.75) scale(1.6155000000000002) rotate(0)"><rect width="20" height="10" fill="#6ba3ae"/></g><rect x="375.2424" y="523.4423999999999" width="64.61519999999999" height="64.61519999999999" fill="#ffffff"/><rect x="375.24" y="523.44" width="32.31" height="32.31" fill="#f5bb83"/><rect x="407.55" y="523.44" width="32.31" height="32.31" fill="#fafcfc"/><polygon points="407.55,555.75 407.55,588.06 375.24,588.06" fill="#cadee2"/><rect x="449.34239999999994" y="523.4423999999999" width="64.61519999999999" height="64.61519999999999" fill="#ffffff"/><g transform="translate(449.34,523.44) scale(1.6155000000000002) rotate(0)"><rect width="20" height="10" fill="#fef5ed"/></g><polygon points="481.65,523.44 513.96,555.75 481.65,555.75" fill="#fdf1e5"/><rect x="523.4423999999999" y="523.4423999999999" width="64.61519999999999" height="64.61519999999999" fill="#ffffff"/><polygon points="555.75,523.44 555.75,555.75 523.44,555.75" fill="#fef5ed"/><rect x="523.44" y="555.75" width="32.31" height="32.31" fill="#f2a962"/><rect x="555.75" y="555.75" width="32.31" height="32.31" fill="#f9d8b8"/><rect x="597.5423999999999" y="523.4423999999999" width="64.61519999999999" height="64.61519999999999" fill="#ffffff"/><g transform="translate(597.54,523.44) scale(1.6155000000000002) rotate(0)"><rect width="20" height="10" fill="#fce8d6"/></g><rect x="629.85" y="523.44" width="32.31" height="32.31" fill="#fefaf6"/><polygon points="629.8499999999999,555.75 629.8499999999999,588.06 597.54,588.06" fill="#c2d9de"/><polygon points="662.1600000000001,555.75 662.1600000000001,588.06 629.85,588.06" fill="#4f929e"/><rect x="745.7424" y="523.4423999999999" width="64.61519999999999" height="64.61519999999999" fill="#ffffff"/><polygon points="745.74,555.75 778.05,588.06 745.74,588.06" fill="#f7c89b"/><polygon points="810.3599999999999,555.75 810.3599999999999,588.06 778.05,588.06" fill="#f3ad6a"/><rect x="893.9423999999999" y="523.4423999999999" width="64.61519999999999" height="64.61519999999999" fill="#ffffff"/><polygon points="926.25,523.44 926.25,555.75 893.94,555.75" fill="#fef9f4"/><polygon points="926.25,523.44 958.56,523.44 958.56,555.75" fill="#418997"/><rect x="893.94" y="555.75" width="32.31" height="32.31" fill="#f4b374"/><rect x="968.0423999999999" y="523.4423999999999" width="64.61519999999999" height="64.61519999999999" fill="#ffffff"/><g transform="translate(968.04,523.44) scale(1.6155000000000002) rotate(0)"><rect width="20" height="10" fill="#7daeb7"/></g><polygon points="968.04,555.75 1000.3499999999999,555.75 1000.3499999999999,588.06" fill="#90bac2"/><rect x="1000.35" y="555.75" width="32.31" height="32.31" fill="#fadbbd"/><rect x="1.1855999999999995" y="593.9856" width="71.72879999999999" height="71.72879999999999" fill="#ffffff"/><rect x="1.19" y="593.99" width="35.86" height="35.86" fill="#85b4bc"/><rect x="37.05" y="593.99" width="35.86" height="35.86" fill="#75a9b3"/><rect x="1.19" y="629.85" width="35.86" height="35.86" fill="#5294a0"/><rect x="149.38559999999998" y="593.9856" width="71.72879999999999" height="71.72879999999999" fill="#ffffff"/><polygon points="149.39,593.99 185.25,593.99 185.25,629.85" fill="#f6c392"/><g transform="translate(185.25,593.99) scale(1.793) rotate(0)"><rect width="20" height="10" fill="#609ca7"/></g><rect x="149.39" y="629.85" width="35.86" height="35.86" fill="#f2a860"/><polygon points="221.11,629.85 221.11,665.71 185.25,665.71" fill="#4c909c"/><rect x="223.48559999999998" y="593.9856" width="71.72879999999999" height="71.72879999999999" fill="#ffffff"/><rect x="223.49" y="593.99" width="35.86" height="35.86" fill="#5495a1"/><polygon points="259.35,593.99 295.21000000000004,593.99 295.21000000000004,629.85" fill="#82b1ba"/><g transform="translate(223.49,629.85) scale(1.793) rotate(0)"><rect width="20" height="10" fill="#fae1c8"/></g><rect x="259.35" y="629.85" width="35.86" height="35.86" fill="#b0ced3"/><rect x="297.5856" y="593.9856" width="71.72879999999999" height="71.72879999999999" fill="#ffffff"/><polygon points="333.45,593.99 333.45,629.85 297.59,629.85" fill="#f09c4a"/><rect x="333.45" y="593.99" width="35.86" height="35.86" fill="#94bdc4"/><polygon points="297.59,629.85 333.45,629.85 333.45,665.71" fill="#fdf4eb"/><polygon points="333.45,629.85 369.31,665.71 333.45,665.71" fill="#dbe8eb"/><rect x="371.6856" y="593.9856" width="71.72879999999999" height="71.72879999999999" fill="#ffffff"/><polygon points="371.69,593.99 407.55,629.85 371.69,629.85" fill="#f19e4e"/><rect x="407.55" y="593.99" width="35.86" height="35.86" fill="#f09b49"/><polygon points="371.69,629.85 407.55,629.85 371.69,665.71" fill="#b3d0d5"/><g transform="translate(407.55,629.85) scale(1.793) rotate(0)"><rect width="20" height="10" fill="#f8cfa7"/></g><rect x="445.7856" y="593.9856" width="71.72879999999999" height="71.72879999999999" fill="#ffffff"/><polygon points="445.79,593.99 481.65000000000003,629.85 445.79,629.85" fill="#f7ca9e"/><rect x="481.65" y="593.99" width="35.86" height="35.86" fill="#a8c9cf"/><rect x="445.79" y="629.85" width="35.86" height="35.86" fill="#f6c696"/><g transform="translate(481.65,629.85) scale(1.793) rotate(0)"><rect width="20" height="10" fill="#f09843"/></g><rect x="519.8856" y="593.9856" width="71.72879999999999" height="71.72879999999999" fill="#ffffff"/><polygon points="519.89,593.99 555.75,593.99 555.75,629.85" fill="#fffcfa"/><g transform="translate(555.75,593.99) scale(1.793) rotate(0)"><rect width="20" height="10" fill="#d3e4e7"/></g><g transform="translate(519.89,629.85) scale(1.793) rotate(0)"><rect width="20" height="10" fill="#f3b06f"/></g><rect x="555.75" y="629.85" width="35.86" height="35.86" fill="#9fc3ca"/><rect x="668.0856" y="593.9856" width="71.72879999999999" height="71.72879999999999" fill="#ffffff"/><rect x="668.09" y="593.99" width="35.86" height="35.86" fill="#f3ab66"/><polygon points="703.95,593.99 739.8100000000001,629.85 703.95,629.85" fill="#5a99a4"/><polygon points="739.8100000000001,629.85 739.8100000000001,665.71 703.95,665.71" fill="#aacad0"/><rect x="742.1856" y="593.9856" width="71.72879999999999" height="71.72879999999999" fill="#ffffff"/><g transform="translate(742.19,593.99) scale(1.793) rotate(0)"><rect width="20" height="10" fill="#fadcc0"/></g><g transform="translate(778.05,593.99) scale(1.793) rotate(0)"><rect width="20" height="10" fill="#4a8f9b"/></g><polygon points="813.91,629.85 813.91,665.71 778.05,665.71" fill="#f3ae6c"/><rect x="890.3856" y="593.9856" width="71.72879999999999" height="71.72879999999999" fill="#ffffff"/><rect x="890.39" y="593.99" width="35.86" height="35.86" fill="#f8d1aa"/><g transform="translate(926.25,593.99) scale(1.793) rotate(0)"><rect width="20" height="10" fill="#f3b170"/></g><g transform="translate(890.39,629.85) scale(1.793) rotate(0)"><rect width="20" height="10" fill="#72a7b1"/></g><g transform="translate(926.25,629.85) scale(1.793) rotate(0)"><rect width="20" height="10" fill="#f09c4b"/></g><rect x="964.4856" y="593.9856" width="71.72879999999999" height="71.72879999999999" fill="#ffffff"/><g transform="translate(964.49,593.99) scale(1.793) rotate(0)"><rect width="20" height="10" fill="#f2a45a"/></g><polygon points="1000.35,593.99 1036.21,593.99 1000.35,629.85" fill="#fadabc"/><rect x="964.49" y="629.85" width="35.86" height="35.86" fill="#4c909c"/><rect x="1000.35" y="629.85" width="35.86" height="35.86" fill="#f2a963"/><rect x="1038.5855999999999" y="593.9856" width="71.72879999999999" height="71.72879999999999" fill="#ffffff"/><g transform="translate(1038.59,593.99) scale(1.793) rotate(0)"><rect width="20" height="10" fill="#b3d0d5"/></g><g transform="translate(1074.45,593.99) scale(1.793) rotate(0)"><rect width="20" height="10" fill="#fadfc6"/></g><g transform="translate(1038.59,629.85) scale(1.793) rotate(0)"><rect width="20" height="10" fill="#f5bd86"/></g><rect x="1074.45" y="629.85" width="35.86" height="35.86" fill="#ef943d"/><rect x="1112.6856" y="593.9856" width="71.72879999999999" height="71.72879999999999" fill="#ffffff"/><rect x="1148.55" y="593.99" width="35.86" height="35.86" fill="#5998a4"/><polygon points="1112.69,629.85 1148.55,629.85 1112.69,665.71" fill="#f8d3ae"/><rect x="1148.55" y="629.85" width="35.86" height="35.86" fill="#cde0e4"/><rect x="0" y="666.9" width="74.1" height="74.1" fill="#ffffff"/><g transform="translate(0,666.9) scale(1.8524999999999998) rotate(0)"><rect width="20" height="10" fill="#f7c99d"/></g><polygon points="37.05,666.9 74.1,666.9 37.05,703.9499999999999" fill="#f9dabb"/><rect x="0" y="703.95" width="37.05" height="37.05" fill="#b3d0d5"/><polygon points="37.05,703.95 74.1,703.95 74.1,741" fill="#f9d5b3"/><rect x="74.1" y="666.9" width="74.1" height="74.1" fill="#ffffff"/><g transform="translate(74.1,666.9) scale(1.8524999999999998) rotate(0)"><rect width="20" height="10" fill="#fafcfc"/></g><rect x="111.15" y="666.9" width="37.05" height="37.05" fill="#fef6ef"/><rect x="74.1" y="703.95" width="37.05" height="37.05" fill="#f4b273"/><g transform="translate(111.15,703.95) scale(1.8524999999999998) rotate(0)"><rect width="20" height="10" fill="#fdefe1"/></g><rect x="148.2" y="666.9" width="74.1" height="74.1" fill="#ffffff"/><g transform="translate(148.2,666.9) scale(1.8524999999999998) rotate(0)"><rect width="20" height="10" fill="#f5b87e"/></g><rect x="185.25" y="666.9" width="37.05" height="37.05" fill="#5696a2"/><polygon points="185.25,703.95 185.25,741 148.2,741" fill="#f9fbfb"/><rect x="185.25" y="703.95" width="37.05" height="37.05" fill="#fbe2ca"/><rect x="222.29999999999998" y="666.9" width="74.1" height="74.1" fill="#ffffff"/><g transform="translate(222.3,666.9) scale(1.8524999999999998) rotate(0)"><rect width="20" height="10" fill="#ccdfe3"/></g><rect x="259.35" y="666.9" width="37.05" height="37.05" fill="#dfebee"/><g transform="translate(222.3,703.95) scale(1.8524999999999998) rotate(0)"><rect width="20" height="10" fill="#95bdc5"/></g><polygon points="259.35,703.95 296.40000000000003,703.95 296.40000000000003,741" fill="#f8cea6"/><rect x="296.4" y="666.9" width="74.1" height="74.1" fill="#ffffff"/><rect x="296.4" y="666.9" width="37.05" height="37.05" fill="#dbe9eb"/><rect x="333.45" y="666.9" width="37.05" height="37.05" fill="#f5be88"/><g transform="translate(296.4,703.95) scale(1.8524999999999998) rotate(0)"><rect width="20" height="10" fill="#fef5ed"/></g><rect x="333.45" y="703.95" width="37.05" height="37.05" fill="#f5be89"/><rect x="370.5" y="666.9" width="74.1" height="74.1" fill="#ffffff"/><polygon points="370.5,666.9 407.55,666.9 407.55,703.9499999999999" fill="#fdefe1"/><g transform="translate(407.55,666.9) scale(1.8524999999999998) rotate(0)"><rect width="20" height="10" fill="#bfd7dc"/></g><g transform="translate(370.5,703.95) scale(1.8524999999999998) rotate(0)"><rect width="20" height="10" fill="#fce9d7"/></g><polygon points="444.6,703.95 444.6,741 407.55,741" fill="#4e919e"/><rect x="444.59999999999997" y="666.9" width="74.1" height="74.1" fill="#ffffff"/><rect x="444.6" y="666.9" width="37.05" height="37.05" fill="#5796a2"/><g transform="translate(481.65,666.9) scale(1.8524999999999998) rotate(0)"><rect width="20" height="10" fill="#fcecdd"/></g><g transform="translate(444.6,703.95) scale(1.8524999999999998) rotate(0)"><rect width="20" height="10" fill="#7daeb7"/></g><g transform="translate(481.65,703.95) scale(1.8524999999999998) rotate(0)"><rect width="20" height="10" fill="#f3af6d"/></g><rect x="518.6999999999999" y="666.9" width="74.1" height="74.1" fill="#ffffff"/><polygon points="518.7,666.9 555.75,703.9499999999999 518.7,703.9499999999999" fill="#f09741"/><polygon points="555.75,666.9 592.8,703.9499999999999 555.75,703.9499999999999" fill="#6ea5af"/><rect x="518.7" y="703.95" width="37.05" height="37.05" fill="#f8cfa7"/><polygon points="555.75,703.95 592.8,703.95 555.75,741" fill="#98bfc6"/><rect x="592.8" y="666.9" width="74.1" height="74.1" fill="#ffffff"/><rect x="592.8" y="666.9" width="37.05" height="37.05" fill="#e5eff1"/><rect x="629.85" y="666.9" width="37.05" height="37.05" fill="#e1edef"/><rect x="592.8" y="703.95" width="37.05" height="37.05" fill="#f6c391"/><g transform="translate(629.85,703.95) scale(1.8524999999999998) rotate(0)"><rect width="20" height="10" fill="#f4b67a"/></g><rect x="666.9" y="666.9" width="74.1" height="74.1" fill="#ffffff"/><rect x="666.9" y="666.9" width="37.05" height="37.05" fill="#81b1ba"/><rect x="703.95" y="666.9" width="37.05" height="37.05" fill="#aecdd2"/><rect x="666.9" y="703.95" width="37.05" height="37.05" fill="#488e9a"/><polygon points="703.95,703.95 741,703.95 703.95,741" fill="#6ba3ae"/><rect x="741" y="666.9" width="74.1" height="74.1" fill="#ffffff"/><g transform="translate(741,666.9) scale(1.8524999999999998) rotate(0)"><rect width="20" height="10" fill="#fce9d7"/></g><rect x="778.05" y="666.9" width="37.05" height="37.05" fill="#619da8"/><polygon points="741,703.95 778.05,703.95 741,741" fill="#f19d4d"/><g transform="translate(778.05,703.95) scale(1.8524999999999998) rotate(0)"><rect width="20" height="10" fill="#71a7b1"/></g><rect x="815.0999999999999" y="666.9" width="74.1" height="74.1" fill="#ffffff"/><g transform="translate(815.1,666.9) scale(1.8524999999999998) rotate(0)"><rect width="20" height="10" fill="#f4b273"/></g><g transform="translate(852.15,666.9) scale(1.8524999999999998) rotate(0)"><rect width="20" height="10" fill="#478d9a"/></g><polygon points="815.1,703.95 852.15,703.95 815.1,741" fill="#9cc2c9"/><rect x="852.15" y="703.95" width="37.05" height="37.05" fill="#e6eff1"/><rect x="889.1999999999999" y="666.9" width="74.1" height="74.1" fill="#ffffff"/><rect x="889.2" y="666.9" width="37.05" height="37.05" fill="#fbe4ce"/><rect x="926.25" y="666.9" width="37.05" height="37.05" fill="#4a8e9b"/><g transform="translate(889.2,703.95) scale(1.8524999999999998) rotate(0)"><rect width="20" height="10" fill="#fdf0e4"/></g><polygon points="926.25,703.95 963.3,741 926.25,741" fill="#f8cea6"/><rect x="963.3" y="666.9" width="74.1" height="74.1" fill="#ffffff"/><g transform="translate(963.3,666.9) scale(1.8524999999999998) rotate(0)"><rect width="20" height="10" fill="#c6dbdf"/></g><g transform="translate(1000.35,666.9) scale(1.8524999999999998) rotate(0)"><rect width="20" height="10" fill="#8bb7bf"/></g><rect x="963.3" y="703.95" width="37.05" height="37.05" fill="#adccd2"/><rect x="1000.35" y="703.95" width="37.05" height="37.05" fill="#f7c798"/><rect x="1037.3999999999999" y="666.9" width="74.1" height="74.1" fill="#ffffff"/><g transform="translate(1037.4,666.9) scale(1.8524999999999998) rotate(0)"><rect width="20" height="10" fill="#f7cca2"/></g><polygon points="1074.45,666.9 1111.5,703.9499999999999 1074.45,703.9499999999999" fill="#a7c9cf"/><polygon points="1037.4,703.95 1074.45,703.95 1037.4,741" fill="#f2a860"/><rect x="1074.45" y="703.95" width="37.05" height="37.05" fill="#98bfc6"/><rect x="1111.5" y="666.9" width="74.1" height="74.1" fill="#ffffff"/><polygon points="1111.5,666.9 1148.55,666.9 1111.5,703.9499999999999" fill="#7eafb8"/><g transform="translate(1148.55,666.9) scale(1.8524999999999998) rotate(0)"><rect width="20" height="10" fill="#f7c697"/></g><rect x="1111.5" y="703.95" width="37.05" height="37.05" fill="#fcecdc"/><rect x="1148.55" y="703.95" width="37.05" height="37.05" fill="#fcedde"/></g></svg>